<?xml version="1.0" encoding="UTF-8" standalone="no"?><svg xmlns="http://www.w3.org/2000/svg" xmlns:xlink="http://www.w3.org/1999/xlink" clip-rule="evenodd" stroke-miterlimit="4.00" viewBox="0 0 720 540"><desc>SVG generated by Keynote</desc><defs></defs><g transform="matrix(1.00, 0.00, -0.00, -1.00, 0.0, 540.0)"><g><clipPath id="clip-149"><path d="M 0.0 540.0 L 720.0 540.0 L 720.0 0.0 L 0.0 0.0 Z M 0.0 540.0 "></path></clipPath><g clip-path="url(#clip-149)"><image xlink:href="../../50284B37-CCEE-4A85-B7F1-B37C6F61AD00/assets/FBB8612FB975EB8CCDB12C37C765AF08.png" width="720.00" height="540.00" transform="matrix(1.00, 0.00, -0.00, -1.00, 0.0, 540.0)"></image></g></g><g><clipPath id="clip-150"><path d="M 0.0 540.0 L 720.0 540.0 L 720.0 0.0 L 0.0 0.0 Z M 0.0 540.0 "></path></clipPath><g clip-path="url(#clip-150)"><image xlink:href="../../50284B37-CCEE-4A85-B7F1-B37C6F61AD00/assets/7601BF848A1235B6B5A20445977AEE42.png" width="720.00" height="540.00" transform="matrix(1.00, 0.00, -0.00, 1.00, 0.0, 0.0)"></image></g></g><g><clipPath id="clip-151"><path d="M 483.0 474.0 C 623.7 456.7 697.6 335.1 647.9 202.3 C 598.3 69.6 444.0 -24.1 303.3 -6.9 C 162.6 10.4 88.8 132.0 138.4 264.8 C 188.1 397.5 342.3 491.2 483.0 474.0 Z M 483.0 474.0 "></path></clipPath><g clip-path="url(#clip-151)"><image xlink:href="../../50284B37-CCEE-4A85-B7F1-B37C6F61AD00/assets/BADFE6F353B7F5F8A00CE8CD81F8D3D6.png" width="570.00" height="541.00" transform="matrix(1.16, 0.71, -0.71, 1.16, 252.6, -271.0)"></image></g></g><g><clipPath id="clip-152"><path d="M 146.2 463.6 C 244.0 512.9 345.8 467.0 373.6 361.1 C 401.3 255.1 344.6 129.3 246.8 80.0 C 148.9 30.7 47.1 76.6 19.4 182.6 C -8.4 288.5 48.4 414.3 146.2 463.6 Z M 146.2 463.6 "></path></clipPath><g clip-path="url(#clip-152)"><image xlink:href="../../50284B37-CCEE-4A85-B7F1-B37C6F61AD00/assets/4FDB1B0E90AF8D3A2BED7188D138EB0A.png" width="580.00" height="541.00" transform="matrix(0.43, 0.95, -0.95, 0.43, 333.9, -120.5)"></image></g></g><g><clipPath id="clip-153"><path d="M 598.7 550.4 C 721.8 539.6 783.3 438.3 736.1 324.1 C 688.9 209.9 550.8 126.1 427.7 136.8 C 304.6 147.6 243.1 249.0 290.3 363.1 C 337.5 477.3 475.6 561.2 598.7 550.4 Z M 598.7 550.4 "></path></clipPath><g clip-path="url(#clip-153)"><image xlink:href="../../50284B37-CCEE-4A85-B7F1-B37C6F61AD00/assets/C6A1A72DB74EAFC4E8775A40D516143F.png" width="560.00" height="541.00" transform="matrix(0.95, 0.58, -0.58, 0.95, 371.5, -86.1)"></image></g></g><text xml:space="preserve" font-family="PalatinoLinotype-Roman" font-size="13.0" fill="#9EABBE" transform="matrix(1.00, 0.00, -0.00, -1.00, 15.0, 20.0)">D</text><text xml:space="preserve" font-family="PalatinoLinotype-Roman" font-size="13.0" fill="#9EABBE" transform="matrix(1.00, 0.00, -0.00, -1.00, 25.1, 20.0)">a</text><text xml:space="preserve" font-family="PalatinoLinotype-Roman" font-size="13.0" fill="#9EABBE" transform="matrix(1.00, 0.00, -0.00, -1.00, 31.6, 20.0)">w</text><text xml:space="preserve" font-family="PalatinoLinotype-Roman" font-size="13.0" fill="#9EABBE" transform="matrix(1.00, 0.00, -0.00, -1.00, 42.4, 20.0)">n</text><text xml:space="preserve" font-family="PalatinoLinotype-Roman" font-size="13.0" fill="#9EABBE" transform="matrix(1.00, 0.00, -0.00, -1.00, 50.0, 20.0)"> </text><text xml:space="preserve" font-family="PalatinoLinotype-Roman" font-size="13.0" fill="#9EABBE" transform="matrix(1.00, 0.00, -0.00, -1.00, 53.2, 20.0)">C</text><text xml:space="preserve" font-family="PalatinoLinotype-Roman" font-size="13.0" fill="#9EABBE" transform="matrix(1.00, 0.00, -0.00, -1.00, 62.4, 20.0)">o</text><text xml:space="preserve" font-family="PalatinoLinotype-Roman" font-size="13.0" fill="#9EABBE" transform="matrix(1.00, 0.00, -0.00, -1.00, 69.5, 20.0)">d</text><text xml:space="preserve" font-family="PalatinoLinotype-Roman" font-size="13.0" fill="#9EABBE" transform="matrix(1.00, 0.00, -0.00, -1.00, 77.5, 20.0)">e</text><text xml:space="preserve" font-family="PalatinoLinotype-Roman" font-size="13.0" fill="#9EABBE" transform="matrix(1.00, 0.00, -0.00, -1.00, 83.7, 20.0)">,</text><text xml:space="preserve" font-family="PalatinoLinotype-Roman" font-size="13.0" fill="#9EABBE" transform="matrix(1.00, 0.00, -0.00, -1.00, 86.9, 20.0)"> </text><text xml:space="preserve" font-family="PalatinoLinotype-Roman" font-size="13.0" fill="#9EABBE" transform="matrix(1.00, 0.00, -0.00, -1.00, 90.2, 20.0)">T</text><text xml:space="preserve" font-family="PalatinoLinotype-Roman" font-size="13.0" fill="#9EABBE" transform="matrix(1.00, 0.00, -0.00, -1.00, 98.2, 20.0)">r</text><text xml:space="preserve" font-family="PalatinoLinotype-Roman" font-size="13.0" fill="#9EABBE" transform="matrix(1.00, 0.00, -0.00, -1.00, 103.3, 20.0)">i</text><text xml:space="preserve" font-family="PalatinoLinotype-Roman" font-size="13.0" fill="#9EABBE" transform="matrix(1.00, 0.00, -0.00, -1.00, 107.1, 20.0)">A</text><text xml:space="preserve" font-family="PalatinoLinotype-Roman" font-size="13.0" fill="#9EABBE" transform="matrix(1.00, 0.00, -0.00, -1.00, 117.2, 20.0)">g</text><text xml:space="preserve" font-family="PalatinoLinotype-Roman" font-size="13.0" fill="#9EABBE" transform="matrix(1.00, 0.00, -0.00, -1.00, 124.4, 20.0)">i</text><text xml:space="preserve" font-family="PalatinoLinotype-Roman" font-size="13.0" fill="#9EABBE" transform="matrix(1.00, 0.00, -0.00, -1.00, 128.2, 20.0)">l</text><text xml:space="preserve" font-family="PalatinoLinotype-Roman" font-size="13.0" fill="#9EABBE" transform="matrix(1.00, 0.00, -0.00, -1.00, 132.0, 20.0)">e</text><text xml:space="preserve" font-family="PalatinoLinotype-Roman" font-size="13.0" fill="#9EABBE" transform="matrix(1.00, 0.00, -0.00, -1.00, 138.2, 20.0)"> </text><text xml:space="preserve" font-family="PalatinoLinotype-Roman" font-size="13.0" fill="#9EABBE" transform="matrix(1.00, 0.00, -0.00, -1.00, 141.5, 20.0)">2</text><text xml:space="preserve" font-family="PalatinoLinotype-Roman" font-size="13.0" fill="#9EABBE" transform="matrix(1.00, 0.00, -0.00, -1.00, 148.0, 20.0)">0</text><text xml:space="preserve" font-family="PalatinoLinotype-Roman" font-size="13.0" fill="#9EABBE" transform="matrix(1.00, 0.00, -0.00, -1.00, 154.5, 20.0)">1</text><text xml:space="preserve" font-family="PalatinoLinotype-Roman" font-size="13.0" fill="#9EABBE" transform="matrix(1.00, 0.00, -0.00, -1.00, 161.0, 20.0)">6</text><g><clipPath id="clip-154"><path d="M 42.6 5.8 L 728.7 5.8 L 728.7 217.1 L 42.6 217.1 Z M 42.6 5.8 "></path></clipPath><g clip-path="url(#clip-154)"><image xlink:href="../../47311CA1-DD85-4445-A6A2-E0AE97CEF3B7/assets/3E7176439863BD268B7AE0B92CF62B9A.png" width="684.00" height="209.00" transform="matrix(1.00, 0.00, -0.00, -1.00, 43.6, 216.1)" opacity="0.60"></image></g></g><g><clipPath id="clip-155"><path d="M 111.1 148.1 L 111.1 148.1 C 103.3 170.9 143.5 191.9 200.8 195.1 C 224.0 196.3 247.7 194.4 267.9 189.7 L 267.9 189.7 C 289.3 205.8 339.4 211.9 379.8 203.4 C 386.9 201.9 393.4 200.0 399.0 197.7 L 399.0 197.7 C 415.7 211.1 456.4 216.5 489.9 209.9 C 499.2 208.0 507.2 205.3 513.5 202.1 L 513.5 202.1 C 540.4 214.7 588.0 216.2 619.8 205.5 C 633.1 201.1 642.1 194.9 645.2 188.0 L 645.2 188.0 C 689.3 183.2 715.3 165.1 703.3 147.5 C 702.3 146.0 701.0 144.5 699.5 143.1 L 699.5 143.1 C 734.9 124.8 726.2 98.5 680.2 84.4 C 665.8 80.0 648.9 77.2 631.0 76.2 C 631.0 56.5 590.8 40.5 541.2 40.5 C 524.4 40.5 508.0 42.3 493.7 45.9 L 493.7 45.9 C 476.9 23.8 418.4 11.3 363.1 18.0 C 339.8 20.8 319.8 26.7 306.3 34.8 L 306.3 34.8 C 249.6 21.1 176.0 28.5 141.9 51.1 C 141.5 51.4 141.1 51.7 140.6 52.0 L 140.6 52.0 C 103.5 50.3 69.9 60.8 65.6 75.5 C 63.2 83.4 69.8 91.3 83.4 97.0 L 83.4 97.0 C 51.2 104.6 40.4 121.1 59.3 134.0 C 70.1 141.4 89.2 146.3 110.5 147.2 Z M 111.1 148.1 "></path></clipPath><g clip-path="url(#clip-155)"><g><clipPath id="clip-156"><path d="M 42.6 5.8 L 728.7 5.8 L 728.7 217.1 L 42.6 217.1 Z M 42.6 5.8 "></path></clipPath><g clip-path="url(#clip-156)"><image xlink:href="../../47311CA1-DD85-4445-A6A2-E0AE97CEF3B7/assets/5D7D5E58A9F17E432822C3CFDA0911CD.png" width="678.00" height="206.00" transform="matrix(1.00, 0.00, -0.00, 1.00, 42.0, 10.7)"></image></g></g></g></g><g><clipPath id="clip-157"><path d="M 42.6 5.8 L 728.7 5.8 L 728.7 217.1 L 42.6 217.1 Z M 42.6 5.8 "></path></clipPath><g clip-path="url(#clip-157)"><path d="M 61.1 64.6 L 61.1 64.6 C 53.3 41.8 93.5 20.7 150.8 17.6 C 174.0 16.4 197.7 18.3 217.9 23.0 L 217.9 23.0 C 239.3 6.9 289.4 0.8 329.8 9.3 C 336.9 10.8 343.3 12.7 349.0 15.0 L 349.0 15.0 C 365.7 1.6 406.4 -3.8 439.9 2.8 C 449.2 4.7 457.2 7.4 463.5 10.6 L 463.5 10.6 C 490.4 -2.0 538.0 -3.5 569.8 7.2 C 583.1 11.6 592.1 17.8 595.2 24.7 L 595.2 24.7 C 639.3 29.5 665.3 47.6 653.3 65.2 C 652.3 66.7 651.0 68.2 649.5 69.6 L 649.5 69.6 C 684.9 87.9 676.2 114.2 630.2 128.3 C 615.8 132.6 598.9 135.5 581.0 136.5 C 581.0 156.2 540.8 172.2 491.2 172.2 C 474.4 172.2 458.0 170.4 443.7 166.8 L 443.7 166.8 C 426.9 188.9 368.4 201.4 313.1 194.7 C 289.8 191.9 269.8 186.0 256.3 177.9 L 256.3 177.9 C 199.6 191.6 126.0 184.2 91.9 161.6 C 91.5 161.3 91.1 161.0 90.6 160.7 L 90.6 160.7 C 53.5 162.4 19.9 151.9 15.6 137.2 C 13.2 129.3 19.8 121.4 33.4 115.7 L 33.4 115.7 C 1.2 108.1 -9.6 91.6 9.3 78.7 C 20.1 71.3 39.2 66.4 60.5 65.5 Z M 61.1 64.6 " fill="none" stroke="#5D99CE" stroke-width="0.75" stroke-linejoin="bevel" transform="matrix(1.00, 0.00, 0.00, -1.00, 50.0, 212.7)"></path></g></g><g><clipPath id="clip-158"><path d="M 83.0 34.5 L 700.5 34.5 L 700.5 204.0 L 83.0 204.0 Z M 83.0 34.5 "></path></clipPath><g clip-path="url(#clip-158)"><path d="M 39.3 108.2 L 39.3 108.2 C 25.6 108.7 11.9 107.4 0.0 104.6 M 74.0 147.8 L 74.0 147.8 C 68.5 148.7 62.7 149.3 56.8 149.6 M 222.2 166.9 L 222.2 166.9 C 218.0 164.4 214.6 161.7 211.8 159.0 M 413.8 147.2 L 413.8 147.2 C 413.2 150.1 411.8 153.0 409.7 155.8 M 496.1 93.6 L 496.1 93.6 C 527.0 99.6 546.6 112.0 546.6 125.7 M 615.1 59.1 L 615.1 59.1 C 610.1 63.8 602.4 67.9 592.6 71.2 M 561.2 14.0 L 561.2 14.0 C 562.1 15.9 562.5 17.8 562.4 19.7 M 417.7 7.3 L 417.7 7.3 C 420.6 4.7 424.5 2.2 429.2 0.0 M 310.1 10.8 L 310.1 10.8 C 311.3 8.6 313.1 6.5 315.6 4.5 M 183.7 12.9 L 183.7 12.9 C 191.1 14.7 197.8 16.7 203.9 19.1 M 30.5 61.1 L 30.5 61.1 C 28.9 59.0 27.8 56.8 27.0 54.6 " fill="none" stroke="#5D99CE" stroke-width="0.75" stroke-linejoin="bevel" transform="matrix(1.00, 0.00, 0.00, -1.00, 84.1, 202.7)"></path></g></g><g><clipPath id="clip-159"><path d="M 122.0 531.0 L 649.0 531.0 L 649.0 34.0 L 122.0 34.0 Z M 122.1 531.1 "></path></clipPath><g clip-path="url(#clip-159)"><image xlink:href="../../47311CA1-DD85-4445-A6A2-E0AE97CEF3B7/assets/9A07EFF22DF2ACE5069BB9A778C471E2.png" width="528.00" height="489.00" transform="matrix(1.00, 0.00, -0.00, -1.00, 122.0, 528.0)"></image></g></g></g></svg>