<?xml version="1.0" encoding="UTF-8" standalone="no"?><svg xmlns="http://www.w3.org/2000/svg" xmlns:xlink="http://www.w3.org/1999/xlink" clip-rule="evenodd" stroke-miterlimit="4.00" viewBox="0 0 720 540"><desc>SVG generated by Keynote</desc><defs></defs><g transform="matrix(1.00, 0.00, -0.00, -1.00, 0.0, 540.0)"><g><clipPath id="clip-85"><path d="M 0.0 540.0 L 720.0 540.0 L 720.0 0.0 L 0.0 0.0 Z M 0.0 540.0 "></path></clipPath><g clip-path="url(#clip-85)"><image xlink:href="../../50284B37-CCEE-4A85-B7F1-B37C6F61AD00/assets/FBB8612FB975EB8CCDB12C37C765AF08.png" width="720.00" height="540.00" transform="matrix(1.00, 0.00, -0.00, -1.00, 0.0, 540.0)"></image></g></g><g><clipPath id="clip-86"><path d="M 0.0 540.0 L 720.0 540.0 L 720.0 0.0 L 0.0 0.0 Z M 0.0 540.0 "></path></clipPath><g clip-path="url(#clip-86)"><image xlink:href="../../50284B37-CCEE-4A85-B7F1-B37C6F61AD00/assets/7601BF848A1235B6B5A20445977AEE42.png" width="720.00" height="540.00" transform="matrix(1.00, 0.00, -0.00, 1.00, 0.0, 0.0)"></image></g></g><g><clipPath id="clip-87"><path d="M 483.0 474.0 C 623.7 456.7 697.6 335.1 647.9 202.3 C 598.3 69.6 444.0 -24.1 303.3 -6.9 C 162.6 10.4 88.8 132.0 138.4 264.8 C 188.1 397.5 342.3 491.2 483.0 474.0 Z M 483.0 474.0 "></path></clipPath><g clip-path="url(#clip-87)"><image xlink:href="../../50284B37-CCEE-4A85-B7F1-B37C6F61AD00/assets/BADFE6F353B7F5F8A00CE8CD81F8D3D6.png" width="570.00" height="541.00" transform="matrix(1.16, 0.71, -0.71, 1.16, 252.6, -271.0)"></image></g></g><g><clipPath id="clip-88"><path d="M 146.2 463.6 C 244.0 512.9 345.8 467.0 373.6 361.1 C 401.3 255.1 344.6 129.3 246.8 80.0 C 148.9 30.7 47.1 76.6 19.4 182.6 C -8.4 288.5 48.4 414.3 146.2 463.6 Z M 146.2 463.6 "></path></clipPath><g clip-path="url(#clip-88)"><image xlink:href="../../50284B37-CCEE-4A85-B7F1-B37C6F61AD00/assets/4FDB1B0E90AF8D3A2BED7188D138EB0A.png" width="580.00" height="541.00" transform="matrix(0.43, 0.95, -0.95, 0.43, 333.9, -120.5)"></image></g></g><g><clipPath id="clip-89"><path d="M 598.7 550.4 C 721.8 539.6 783.3 438.3 736.1 324.1 C 688.9 209.9 550.8 126.1 427.7 136.8 C 304.6 147.6 243.1 249.0 290.3 363.1 C 337.5 477.3 475.6 561.2 598.7 550.4 Z M 598.7 550.4 "></path></clipPath><g clip-path="url(#clip-89)"><image xlink:href="../../50284B37-CCEE-4A85-B7F1-B37C6F61AD00/assets/C6A1A72DB74EAFC4E8775A40D516143F.png" width="560.00" height="541.00" transform="matrix(0.95, 0.58, -0.58, 0.95, 371.5, -86.1)"></image></g></g><text xml:space="preserve" font-family="PalatinoLinotype-Roman" font-size="13.0" fill="#9EABBE" transform="matrix(1.00, 0.00, -0.00, -1.00, 15.0, 20.0)">D</text><text xml:space="preserve" font-family="PalatinoLinotype-Roman" font-size="13.0" fill="#9EABBE" transform="matrix(1.00, 0.00, -0.00, -1.00, 25.1, 20.0)">a</text><text xml:space="preserve" font-family="PalatinoLinotype-Roman" font-size="13.0" fill="#9EABBE" transform="matrix(1.00, 0.00, -0.00, -1.00, 31.6, 20.0)">w</text><text xml:space="preserve" font-family="PalatinoLinotype-Roman" font-size="13.0" fill="#9EABBE" transform="matrix(1.00, 0.00, -0.00, -1.00, 42.4, 20.0)">n</text><text xml:space="preserve" font-family="PalatinoLinotype-Roman" font-size="13.0" fill="#9EABBE" transform="matrix(1.00, 0.00, -0.00, -1.00, 50.0, 20.0)"> </text><text xml:space="preserve" font-family="PalatinoLinotype-Roman" font-size="13.0" fill="#9EABBE" transform="matrix(1.00, 0.00, -0.00, -1.00, 53.2, 20.0)">C</text><text xml:space="preserve" font-family="PalatinoLinotype-Roman" font-size="13.0" fill="#9EABBE" transform="matrix(1.00, 0.00, -0.00, -1.00, 62.4, 20.0)">o</text><text xml:space="preserve" font-family="PalatinoLinotype-Roman" font-size="13.0" fill="#9EABBE" transform="matrix(1.00, 0.00, -0.00, -1.00, 69.5, 20.0)">d</text><text xml:space="preserve" font-family="PalatinoLinotype-Roman" font-size="13.0" fill="#9EABBE" transform="matrix(1.00, 0.00, -0.00, -1.00, 77.5, 20.0)">e</text><text xml:space="preserve" font-family="PalatinoLinotype-Roman" font-size="13.0" fill="#9EABBE" transform="matrix(1.00, 0.00, -0.00, -1.00, 83.7, 20.0)">,</text><text xml:space="preserve" font-family="PalatinoLinotype-Roman" font-size="13.0" fill="#9EABBE" transform="matrix(1.00, 0.00, -0.00, -1.00, 86.9, 20.0)"> </text><text xml:space="preserve" font-family="PalatinoLinotype-Roman" font-size="13.0" fill="#9EABBE" transform="matrix(1.00, 0.00, -0.00, -1.00, 90.2, 20.0)">T</text><text xml:space="preserve" font-family="PalatinoLinotype-Roman" font-size="13.0" fill="#9EABBE" transform="matrix(1.00, 0.00, -0.00, -1.00, 98.2, 20.0)">r</text><text xml:space="preserve" font-family="PalatinoLinotype-Roman" font-size="13.0" fill="#9EABBE" transform="matrix(1.00, 0.00, -0.00, -1.00, 103.3, 20.0)">i</text><text xml:space="preserve" font-family="PalatinoLinotype-Roman" font-size="13.0" fill="#9EABBE" transform="matrix(1.00, 0.00, -0.00, -1.00, 107.1, 20.0)">A</text><text xml:space="preserve" font-family="PalatinoLinotype-Roman" font-size="13.0" fill="#9EABBE" transform="matrix(1.00, 0.00, -0.00, -1.00, 117.2, 20.0)">g</text><text xml:space="preserve" font-family="PalatinoLinotype-Roman" font-size="13.0" fill="#9EABBE" transform="matrix(1.00, 0.00, -0.00, -1.00, 124.4, 20.0)">i</text><text xml:space="preserve" font-family="PalatinoLinotype-Roman" font-size="13.0" fill="#9EABBE" transform="matrix(1.00, 0.00, -0.00, -1.00, 128.2, 20.0)">l</text><text xml:space="preserve" font-family="PalatinoLinotype-Roman" font-size="13.0" fill="#9EABBE" transform="matrix(1.00, 0.00, -0.00, -1.00, 132.0, 20.0)">e</text><text xml:space="preserve" font-family="PalatinoLinotype-Roman" font-size="13.0" fill="#9EABBE" transform="matrix(1.00, 0.00, -0.00, -1.00, 138.2, 20.0)"> </text><text xml:space="preserve" font-family="PalatinoLinotype-Roman" font-size="13.0" fill="#9EABBE" transform="matrix(1.00, 0.00, -0.00, -1.00, 141.5, 20.0)">2</text><text xml:space="preserve" font-family="PalatinoLinotype-Roman" font-size="13.0" fill="#9EABBE" transform="matrix(1.00, 0.00, -0.00, -1.00, 148.0, 20.0)">0</text><text xml:space="preserve" font-family="PalatinoLinotype-Roman" font-size="13.0" fill="#9EABBE" transform="matrix(1.00, 0.00, -0.00, -1.00, 154.5, 20.0)">1</text><text xml:space="preserve" font-family="PalatinoLinotype-Roman" font-size="13.0" fill="#9EABBE" transform="matrix(1.00, 0.00, -0.00, -1.00, 161.0, 20.0)">6</text><image xlink:href="../../3EFA903B-5B61-4D62-89B7-E7B0AFDF90B7/assets/9C0D05BF0DFCB7DE221DFA87028FECED.png" width="19.00" height="19.00" transform="matrix(1.00, 0.00, -0.00, -1.00, 172.0, 476.0)"></image><text xml:space="preserve" font-family="Wingdings-Regular" font-size="12.6" fill="#FFFFFF" transform="matrix(1.00, 0.00, -0.00, -1.00, 173.0, 465.1)">Ñ</text><image xlink:href="../../3EFA903B-5B61-4D62-89B7-E7B0AFDF90B7/assets/75114AC77020632C91601D7E3F212E6D.png" width="116.00" height="28.00" transform="matrix(1.00, 0.00, -0.00, -1.00, 192.0, 479.0)"></image><text xml:space="preserve" font-family="PalatinoLinotype-Roman" font-size="21.0" fill="#FFFFFF" transform="matrix(1.00, 0.00, -0.00, -1.00, 193.0, 462.0)">D</text><text xml:space="preserve" font-family="PalatinoLinotype-Roman" font-size="21.0" fill="#FFFFFF" transform="matrix(1.00, 0.00, -0.00, -1.00, 209.3, 462.0)">e</text><text xml:space="preserve" font-family="PalatinoLinotype-Roman" font-size="21.0" fill="#FFFFFF" transform="matrix(1.00, 0.00, -0.00, -1.00, 219.3, 462.0)">v</text><text xml:space="preserve" font-family="PalatinoLinotype-Roman" font-size="21.0" fill="#FFFFFF" transform="matrix(1.00, 0.00, -0.00, -1.00, 230.8, 462.0)">e</text><text xml:space="preserve" font-family="PalatinoLinotype-Roman" font-size="21.0" fill="#FFFFFF" transform="matrix(1.00, 0.00, -0.00, -1.00, 240.9, 462.0)">l</text><text xml:space="preserve" font-family="PalatinoLinotype-Roman" font-size="21.0" fill="#FFFFFF" transform="matrix(1.00, 0.00, -0.00, -1.00, 247.0, 462.0)">o</text><text xml:space="preserve" font-family="PalatinoLinotype-Roman" font-size="21.0" fill="#FFFFFF" transform="matrix(1.00, 0.00, -0.00, -1.00, 258.4, 462.0)">p</text><text xml:space="preserve" font-family="PalatinoLinotype-Roman" font-size="21.0" fill="#FFFFFF" transform="matrix(1.00, 0.00, -0.00, -1.00, 271.1, 462.0)">e</text><text xml:space="preserve" font-family="PalatinoLinotype-Roman" font-size="21.0" fill="#FFFFFF" transform="matrix(1.00, 0.00, -0.00, -1.00, 281.1, 462.0)">r</text><text xml:space="preserve" font-family="PalatinoLinotype-Roman" font-size="21.0" fill="#FFFFFF" transform="matrix(1.00, 0.00, -0.00, -1.00, 289.4, 462.0)">s</text><text xml:space="preserve" font-family="PalatinoLinotype-Roman" font-size="21.0" fill="#FFFFFF" transform="matrix(1.00, 0.00, -0.00, -1.00, 298.3, 462.0)">:</text><text xml:space="preserve" font-family="PalatinoLinotype-Roman" font-size="21.0" fill="#FFFFFF" transform="matrix(1.00, 0.00, -0.00, -1.00, 303.6, 462.0)"> </text><image xlink:href="../../3EFA903B-5B61-4D62-89B7-E7B0AFDF90B7/assets/CE02DD02A6E24DF091D4819C8825F72A.png" width="19.00" height="19.00" transform="matrix(1.00, 0.00, -0.00, -1.00, 201.0, 443.0)"></image><text xml:space="preserve" font-family="Wingdings-Regular" font-size="12.6" fill="#FFFFFF" transform="matrix(1.00, 0.00, -0.00, -1.00, 201.8, 432.0)">Ñ</text><image xlink:href="../../3EFA903B-5B61-4D62-89B7-E7B0AFDF90B7/assets/6EA4DA0E9CC19E48123475FF8CDC48E2.png" width="281.00" height="23.00" transform="matrix(1.00, 0.00, -0.00, -1.00, 221.0, 446.0)"></image><text xml:space="preserve" font-family="PalatinoLinotype-Roman" font-size="21.0" fill="#FFFFFF" transform="matrix(1.00, 0.00, -0.00, -1.00, 222.0, 429.0)">W</text><text xml:space="preserve" font-family="PalatinoLinotype-Roman" font-size="21.0" fill="#FFFFFF" transform="matrix(1.00, 0.00, -0.00, -1.00, 243.0, 429.0)">r</text><text xml:space="preserve" font-family="PalatinoLinotype-Roman" font-size="21.0" fill="#FFFFFF" transform="matrix(1.00, 0.00, -0.00, -1.00, 251.3, 429.0)">i</text><text xml:space="preserve" font-family="PalatinoLinotype-Roman" font-size="21.0" fill="#FFFFFF" transform="matrix(1.00, 0.00, -0.00, -1.00, 257.4, 429.0)">t</text><text xml:space="preserve" font-family="PalatinoLinotype-Roman" font-size="21.0" fill="#FFFFFF" transform="matrix(1.00, 0.00, -0.00, -1.00, 264.3, 429.0)">e</text><text xml:space="preserve" font-family="PalatinoLinotype-Roman" font-size="21.0" fill="#FFFFFF" transform="matrix(1.00, 0.00, -0.00, -1.00, 274.3, 429.0)"> </text><text xml:space="preserve" font-family="PalatinoLinotype-Roman" font-size="21.0" fill="#FFFFFF" transform="matrix(1.00, 0.00, -0.00, -1.00, 279.6, 429.0)">C</text><text xml:space="preserve" font-family="PalatinoLinotype-Roman" font-size="21.0" fill="#FFFFFF" transform="matrix(1.00, 0.00, -0.00, -1.00, 294.5, 429.0)">l</text><text xml:space="preserve" font-family="PalatinoLinotype-Roman" font-size="21.0" fill="#FFFFFF" transform="matrix(1.00, 0.00, -0.00, -1.00, 300.6, 429.0)">e</text><text xml:space="preserve" font-family="PalatinoLinotype-Roman" font-size="21.0" fill="#FFFFFF" transform="matrix(1.00, 0.00, -0.00, -1.00, 310.6, 429.0)">a</text><text xml:space="preserve" font-family="PalatinoLinotype-Roman" font-size="21.0" fill="#FFFFFF" transform="matrix(1.00, 0.00, -0.00, -1.00, 321.1, 429.0)">n</text><text xml:space="preserve" font-family="PalatinoLinotype-Roman" font-size="21.0" fill="#FFFFFF" transform="matrix(1.00, 0.00, -0.00, -1.00, 333.4, 429.0)"> </text><text xml:space="preserve" font-family="PalatinoLinotype-Roman" font-size="21.0" fill="#FFFFFF" transform="matrix(1.00, 0.00, -0.00, -1.00, 338.6, 429.0)">P</text><text xml:space="preserve" font-family="PalatinoLinotype-Roman" font-size="21.0" fill="#FFFFFF" transform="matrix(1.00, 0.00, -0.00, -1.00, 351.3, 429.0)">r</text><text xml:space="preserve" font-family="PalatinoLinotype-Roman" font-size="21.0" fill="#FFFFFF" transform="matrix(1.00, 0.00, -0.00, -1.00, 359.6, 429.0)">o</text><text xml:space="preserve" font-family="PalatinoLinotype-Roman" font-size="21.0" fill="#FFFFFF" transform="matrix(1.00, 0.00, -0.00, -1.00, 371.0, 429.0)">d</text><text xml:space="preserve" font-family="PalatinoLinotype-Roman" font-size="21.0" fill="#FFFFFF" transform="matrix(1.00, 0.00, -0.00, -1.00, 383.9, 429.0)">u</text><text xml:space="preserve" font-family="PalatinoLinotype-Roman" font-size="21.0" fill="#FFFFFF" transform="matrix(1.00, 0.00, -0.00, -1.00, 396.5, 429.0)">c</text><text xml:space="preserve" font-family="PalatinoLinotype-Roman" font-size="21.0" fill="#FFFFFF" transform="matrix(1.00, 0.00, -0.00, -1.00, 405.8, 429.0)">t</text><text xml:space="preserve" font-family="PalatinoLinotype-Roman" font-size="21.0" fill="#FFFFFF" transform="matrix(1.00, 0.00, -0.00, -1.00, 412.7, 429.0)">i</text><text xml:space="preserve" font-family="PalatinoLinotype-Roman" font-size="21.0" fill="#FFFFFF" transform="matrix(1.00, 0.00, -0.00, -1.00, 418.8, 429.0)">o</text><text xml:space="preserve" font-family="PalatinoLinotype-Roman" font-size="21.0" fill="#FFFFFF" transform="matrix(1.00, 0.00, -0.00, -1.00, 430.3, 429.0)">n</text><text xml:space="preserve" font-family="PalatinoLinotype-Roman" font-size="21.0" fill="#FFFFFF" transform="matrix(1.00, 0.00, -0.00, -1.00, 442.5, 429.0)"> </text><text xml:space="preserve" font-family="PalatinoLinotype-Roman" font-size="21.0" fill="#FFFFFF" transform="matrix(1.00, 0.00, -0.00, -1.00, 447.7, 429.0)">C</text><text xml:space="preserve" font-family="PalatinoLinotype-Roman" font-size="21.0" fill="#FFFFFF" transform="matrix(1.00, 0.00, -0.00, -1.00, 462.6, 429.0)">o</text><text xml:space="preserve" font-family="PalatinoLinotype-Roman" font-size="21.0" fill="#FFFFFF" transform="matrix(1.00, 0.00, -0.00, -1.00, 474.1, 429.0)">d</text><text xml:space="preserve" font-family="PalatinoLinotype-Roman" font-size="21.0" fill="#FFFFFF" transform="matrix(1.00, 0.00, -0.00, -1.00, 486.9, 429.0)">e</text><text xml:space="preserve" font-family="PalatinoLinotype-Roman" font-size="21.0" fill="#FFFFFF" transform="matrix(1.00, 0.00, -0.00, -1.00, 497.0, 429.0)"> </text><image xlink:href="../../3EFA903B-5B61-4D62-89B7-E7B0AFDF90B7/assets/86C2662548B9D3D7B37B122DFA20745B.png" width="19.00" height="19.00" transform="matrix(1.00, 0.00, -0.00, -1.00, 172.0, 410.0)"></image><text xml:space="preserve" font-family="Wingdings-Regular" font-size="12.6" fill="#FFFFFF" transform="matrix(1.00, 0.00, -0.00, -1.00, 173.0, 399.0)">Ñ</text><image xlink:href="../../3EFA903B-5B61-4D62-89B7-E7B0AFDF90B7/assets/B1369D68B0D000E9A7A68249DF5615BA.png" width="75.00" height="22.00" transform="matrix(1.00, 0.00, -0.00, -1.00, 192.0, 412.0)"></image><text xml:space="preserve" font-family="PalatinoLinotype-Roman" font-size="21.0" fill="#FFFFFF" transform="matrix(1.00, 0.00, -0.00, -1.00, 193.0, 396.0)">T</text><text xml:space="preserve" font-family="PalatinoLinotype-Roman" font-size="21.0" fill="#FFFFFF" transform="matrix(1.00, 0.00, -0.00, -1.00, 204.4, 396.0)">e</text><text xml:space="preserve" font-family="PalatinoLinotype-Roman" font-size="21.0" fill="#FFFFFF" transform="matrix(1.00, 0.00, -0.00, -1.00, 214.4, 396.0)">s</text><text xml:space="preserve" font-family="PalatinoLinotype-Roman" font-size="21.0" fill="#FFFFFF" transform="matrix(1.00, 0.00, -0.00, -1.00, 223.3, 396.0)">t</text><text xml:space="preserve" font-family="PalatinoLinotype-Roman" font-size="21.0" fill="#FFFFFF" transform="matrix(1.00, 0.00, -0.00, -1.00, 230.2, 396.0)">e</text><text xml:space="preserve" font-family="PalatinoLinotype-Roman" font-size="21.0" fill="#FFFFFF" transform="matrix(1.00, 0.00, -0.00, -1.00, 240.2, 396.0)">r</text><text xml:space="preserve" font-family="PalatinoLinotype-Roman" font-size="21.0" fill="#FFFFFF" transform="matrix(1.00, 0.00, -0.00, -1.00, 248.5, 396.0)">s</text><text xml:space="preserve" font-family="PalatinoLinotype-Roman" font-size="21.0" fill="#FFFFFF" transform="matrix(1.00, 0.00, -0.00, -1.00, 257.4, 396.0)">:</text><text xml:space="preserve" font-family="PalatinoLinotype-Roman" font-size="21.0" fill="#FFFFFF" transform="matrix(1.00, 0.00, -0.00, -1.00, 262.7, 396.0)"> </text><image xlink:href="../../3EFA903B-5B61-4D62-89B7-E7B0AFDF90B7/assets/E266E52BD3788B4A0E266F8EE39C4137.png" width="19.00" height="19.00" transform="matrix(1.00, 0.00, -0.00, -1.00, 201.0, 377.0)"></image><text xml:space="preserve" font-family="Wingdings-Regular" font-size="12.6" fill="#FFFFFF" transform="matrix(1.00, 0.00, -0.00, -1.00, 201.8, 365.9)">Ñ</text><image xlink:href="../../3EFA903B-5B61-4D62-89B7-E7B0AFDF90B7/assets/B4EB2848B9728E51D54ABA9CD2C8F3BC.png" width="271.00" height="28.00" transform="matrix(1.00, 0.00, -0.00, -1.00, 221.0, 380.0)"></image><text xml:space="preserve" font-family="PalatinoLinotype-Roman" font-size="21.0" fill="#FFFFFF" transform="matrix(1.00, 0.00, -0.00, -1.00, 222.0, 363.0)">P</text><text xml:space="preserve" font-family="PalatinoLinotype-Roman" font-size="21.0" fill="#FFFFFF" transform="matrix(1.00, 0.00, -0.00, -1.00, 234.0, 363.0)">e</text><text xml:space="preserve" font-family="PalatinoLinotype-Roman" font-size="21.0" fill="#FFFFFF" transform="matrix(1.00, 0.00, -0.00, -1.00, 244.1, 363.0)">r</text><text xml:space="preserve" font-family="PalatinoLinotype-Roman" font-size="21.0" fill="#FFFFFF" transform="matrix(1.00, 0.00, -0.00, -1.00, 252.4, 363.0)">f</text><text xml:space="preserve" font-family="PalatinoLinotype-Roman" font-size="21.0" fill="#FFFFFF" transform="matrix(1.00, 0.00, -0.00, -1.00, 259.4, 363.0)">o</text><text xml:space="preserve" font-family="PalatinoLinotype-Roman" font-size="21.0" fill="#FFFFFF" transform="matrix(1.00, 0.00, -0.00, -1.00, 270.8, 363.0)">r</text><text xml:space="preserve" font-family="PalatinoLinotype-Roman" font-size="21.0" fill="#FFFFFF" transform="matrix(1.00, 0.00, -0.00, -1.00, 279.1, 363.0)">m</text><text xml:space="preserve" font-family="PalatinoLinotype-Roman" font-size="21.0" fill="#FFFFFF" transform="matrix(1.00, 0.00, -0.00, -1.00, 297.7, 363.0)"> </text><text xml:space="preserve" font-family="PalatinoLinotype-Roman" font-size="21.0" fill="#FFFFFF" transform="matrix(1.00, 0.00, -0.00, -1.00, 302.9, 363.0)">E</text><text xml:space="preserve" font-family="PalatinoLinotype-Roman" font-size="21.0" fill="#FFFFFF" transform="matrix(1.00, 0.00, -0.00, -1.00, 315.7, 363.0)">x</text><text xml:space="preserve" font-family="PalatinoLinotype-Roman" font-size="21.0" fill="#FFFFFF" transform="matrix(1.00, 0.00, -0.00, -1.00, 326.6, 363.0)">p</text><text xml:space="preserve" font-family="PalatinoLinotype-Roman" font-size="21.0" fill="#FFFFFF" transform="matrix(1.00, 0.00, -0.00, -1.00, 339.2, 363.0)">l</text><text xml:space="preserve" font-family="PalatinoLinotype-Roman" font-size="21.0" fill="#FFFFFF" transform="matrix(1.00, 0.00, -0.00, -1.00, 345.3, 363.0)">o</text><text xml:space="preserve" font-family="PalatinoLinotype-Roman" font-size="21.0" fill="#FFFFFF" transform="matrix(1.00, 0.00, -0.00, -1.00, 356.8, 363.0)">r</text><text xml:space="preserve" font-family="PalatinoLinotype-Roman" font-size="21.0" fill="#FFFFFF" transform="matrix(1.00, 0.00, -0.00, -1.00, 365.1, 363.0)">a</text><text xml:space="preserve" font-family="PalatinoLinotype-Roman" font-size="21.0" fill="#FFFFFF" transform="matrix(1.00, 0.00, -0.00, -1.00, 375.6, 363.0)">t</text><text xml:space="preserve" font-family="PalatinoLinotype-Roman" font-size="21.0" fill="#FFFFFF" transform="matrix(1.00, 0.00, -0.00, -1.00, 382.4, 363.0)">o</text><text xml:space="preserve" font-family="PalatinoLinotype-Roman" font-size="21.0" fill="#FFFFFF" transform="matrix(1.00, 0.00, -0.00, -1.00, 393.9, 363.0)">r</text><text xml:space="preserve" font-family="PalatinoLinotype-Roman" font-size="21.0" fill="#FFFFFF" transform="matrix(1.00, 0.00, -0.00, -1.00, 402.2, 363.0)">y</text><text xml:space="preserve" font-family="PalatinoLinotype-Roman" font-size="21.0" fill="#FFFFFF" transform="matrix(1.00, 0.00, -0.00, -1.00, 413.9, 363.0)"> </text><text xml:space="preserve" font-family="PalatinoLinotype-Roman" font-size="21.0" fill="#FFFFFF" transform="matrix(1.00, 0.00, -0.00, -1.00, 419.1, 363.0)">T</text><text xml:space="preserve" font-family="PalatinoLinotype-Roman" font-size="21.0" fill="#FFFFFF" transform="matrix(1.00, 0.00, -0.00, -1.00, 430.5, 363.0)">e</text><text xml:space="preserve" font-family="PalatinoLinotype-Roman" font-size="21.0" fill="#FFFFFF" transform="matrix(1.00, 0.00, -0.00, -1.00, 440.5, 363.0)">s</text><text xml:space="preserve" font-family="PalatinoLinotype-Roman" font-size="21.0" fill="#FFFFFF" transform="matrix(1.00, 0.00, -0.00, -1.00, 449.4, 363.0)">t</text><text xml:space="preserve" font-family="PalatinoLinotype-Roman" font-size="21.0" fill="#FFFFFF" transform="matrix(1.00, 0.00, -0.00, -1.00, 456.3, 363.0)">i</text><text xml:space="preserve" font-family="PalatinoLinotype-Roman" font-size="21.0" fill="#FFFFFF" transform="matrix(1.00, 0.00, -0.00, -1.00, 462.4, 363.0)">n</text><text xml:space="preserve" font-family="PalatinoLinotype-Roman" font-size="21.0" fill="#FFFFFF" transform="matrix(1.00, 0.00, -0.00, -1.00, 474.6, 363.0)">g</text><text xml:space="preserve" font-family="PalatinoLinotype-Roman" font-size="21.0" fill="#FFFFFF" transform="matrix(1.00, 0.00, -0.00, -1.00, 486.3, 363.0)"> </text><image xlink:href="../../3EFA903B-5B61-4D62-89B7-E7B0AFDF90B7/assets/8E84255BCCD90DE5418E4C193AA2FBD6.png" width="19.00" height="19.00" transform="matrix(1.00, 0.00, -0.00, -1.00, 201.0, 344.0)"></image><text xml:space="preserve" font-family="Wingdings-Regular" font-size="12.6" fill="#FFFFFF" transform="matrix(1.00, 0.00, -0.00, -1.00, 201.8, 332.9)">Ñ</text><image xlink:href="../../3EFA903B-5B61-4D62-89B7-E7B0AFDF90B7/assets/80F5E6EAA31D79BB77296BC46E6FCB89.png" width="415.00" height="28.00" transform="matrix(1.00, 0.00, -0.00, -1.00, 221.0, 347.0)"></image><text xml:space="preserve" font-family="PalatinoLinotype-Roman" font-size="21.0" fill="#FFFFFF" transform="matrix(1.00, 0.00, -0.00, -1.00, 222.0, 330.0)">A</text><text xml:space="preserve" font-family="PalatinoLinotype-Roman" font-size="21.0" fill="#FFFFFF" transform="matrix(1.00, 0.00, -0.00, -1.00, 238.3, 330.0)">N</text><text xml:space="preserve" font-family="PalatinoLinotype-Roman" font-size="21.0" fill="#FFFFFF" transform="matrix(1.00, 0.00, -0.00, -1.00, 255.8, 330.0)">D</text><text xml:space="preserve" font-family="PalatinoLinotype-Roman" font-size="21.0" fill="#FFFFFF" transform="matrix(1.00, 0.00, -0.00, -1.00, 272.0, 330.0)"> </text><text xml:space="preserve" font-family="PalatinoLinotype-Roman" font-size="21.0" fill="#FFFFFF" transform="matrix(1.00, 0.00, -0.00, -1.00, 277.3, 330.0)">n</text><text xml:space="preserve" font-family="PalatinoLinotype-Roman" font-size="21.0" fill="#FFFFFF" transform="matrix(1.00, 0.00, -0.00, -1.00, 289.5, 330.0)">o</text><text xml:space="preserve" font-family="PalatinoLinotype-Roman" font-size="21.0" fill="#FFFFFF" transform="matrix(1.00, 0.00, -0.00, -1.00, 301.0, 330.0)">w</text><text xml:space="preserve" font-family="PalatinoLinotype-Roman" font-size="21.0" fill="#FFFFFF" transform="matrix(1.00, 0.00, -0.00, -1.00, 317.9, 330.0)">a</text><text xml:space="preserve" font-family="PalatinoLinotype-Roman" font-size="21.0" fill="#FFFFFF" transform="matrix(1.00, 0.00, -0.00, -1.00, 328.4, 330.0)">d</text><text xml:space="preserve" font-family="PalatinoLinotype-Roman" font-size="21.0" fill="#FFFFFF" transform="matrix(1.00, 0.00, -0.00, -1.00, 341.2, 330.0)">a</text><text xml:space="preserve" font-family="PalatinoLinotype-Roman" font-size="21.0" fill="#FFFFFF" transform="matrix(1.00, 0.00, -0.00, -1.00, 351.7, 330.0)">y</text><text xml:space="preserve" font-family="PalatinoLinotype-Roman" font-size="21.0" fill="#FFFFFF" transform="matrix(1.00, 0.00, -0.00, -1.00, 363.4, 330.0)">s</text><text xml:space="preserve" font-family="PalatinoLinotype-Roman" font-size="21.0" fill="#FFFFFF" transform="matrix(1.00, 0.00, -0.00, -1.00, 372.3, 330.0)"> </text><text xml:space="preserve" font-family="PalatinoLinotype-Roman" font-size="21.0" fill="#FFFFFF" transform="matrix(1.00, 0.00, -0.00, -1.00, 377.6, 330.0)">a</text><text xml:space="preserve" font-family="PalatinoLinotype-Roman" font-size="21.0" fill="#FFFFFF" transform="matrix(1.00, 0.00, -0.00, -1.00, 388.1, 330.0)">r</text><text xml:space="preserve" font-family="PalatinoLinotype-Roman" font-size="21.0" fill="#FFFFFF" transform="matrix(1.00, 0.00, -0.00, -1.00, 396.4, 330.0)">e</text><text xml:space="preserve" font-family="PalatinoLinotype-Roman" font-size="21.0" fill="#FFFFFF" transform="matrix(1.00, 0.00, -0.00, -1.00, 406.4, 330.0)"> </text><text xml:space="preserve" font-family="PalatinoLinotype-Roman" font-size="21.0" fill="#FFFFFF" transform="matrix(1.00, 0.00, -0.00, -1.00, 411.7, 330.0)">e</text><text xml:space="preserve" font-family="PalatinoLinotype-Roman" font-size="21.0" fill="#FFFFFF" transform="matrix(1.00, 0.00, -0.00, -1.00, 421.7, 330.0)">x</text><text xml:space="preserve" font-family="PalatinoLinotype-Roman" font-size="21.0" fill="#FFFFFF" transform="matrix(1.00, 0.00, -0.00, -1.00, 432.6, 330.0)">p</text><text xml:space="preserve" font-family="PalatinoLinotype-Roman" font-size="21.0" fill="#FFFFFF" transform="matrix(1.00, 0.00, -0.00, -1.00, 445.2, 330.0)">e</text><text xml:space="preserve" font-family="PalatinoLinotype-Roman" font-size="21.0" fill="#FFFFFF" transform="matrix(1.00, 0.00, -0.00, -1.00, 455.3, 330.0)">c</text><text xml:space="preserve" font-family="PalatinoLinotype-Roman" font-size="21.0" fill="#FFFFFF" transform="matrix(1.00, 0.00, -0.00, -1.00, 464.6, 330.0)">t</text><text xml:space="preserve" font-family="PalatinoLinotype-Roman" font-size="21.0" fill="#FFFFFF" transform="matrix(1.00, 0.00, -0.00, -1.00, 471.4, 330.0)">e</text><text xml:space="preserve" font-family="PalatinoLinotype-Roman" font-size="21.0" fill="#FFFFFF" transform="matrix(1.00, 0.00, -0.00, -1.00, 481.5, 330.0)">d</text><text xml:space="preserve" font-family="PalatinoLinotype-Roman" font-size="21.0" fill="#FFFFFF" transform="matrix(1.00, 0.00, -0.00, -1.00, 494.3, 330.0)"> </text><text xml:space="preserve" font-family="PalatinoLinotype-Roman" font-size="21.0" fill="#FFFFFF" transform="matrix(1.00, 0.00, -0.00, -1.00, 499.6, 330.0)">t</text><text xml:space="preserve" font-family="PalatinoLinotype-Roman" font-size="21.0" fill="#FFFFFF" transform="matrix(1.00, 0.00, -0.00, -1.00, 506.4, 330.0)">o</text><text xml:space="preserve" font-family="PalatinoLinotype-Roman" font-size="21.0" fill="#FFFFFF" transform="matrix(1.00, 0.00, -0.00, -1.00, 517.9, 330.0)"> </text><text xml:space="preserve" font-family="PalatinoLinotype-Roman" font-size="21.0" fill="#FFFFFF" transform="matrix(1.00, 0.00, -0.00, -1.00, 523.1, 330.0)">w</text><text xml:space="preserve" font-family="PalatinoLinotype-Roman" font-size="21.0" fill="#FFFFFF" transform="matrix(1.00, 0.00, -0.00, -1.00, 540.6, 330.0)">r</text><text xml:space="preserve" font-family="PalatinoLinotype-Roman" font-size="21.0" fill="#FFFFFF" transform="matrix(1.00, 0.00, -0.00, -1.00, 548.9, 330.0)">i</text><text xml:space="preserve" font-family="PalatinoLinotype-Roman" font-size="21.0" fill="#FFFFFF" transform="matrix(1.00, 0.00, -0.00, -1.00, 555.0, 330.0)">t</text><text xml:space="preserve" font-family="PalatinoLinotype-Roman" font-size="21.0" fill="#FFFFFF" transform="matrix(1.00, 0.00, -0.00, -1.00, 561.9, 330.0)">e</text><text xml:space="preserve" font-family="PalatinoLinotype-Roman" font-size="21.0" fill="#FFFFFF" transform="matrix(1.00, 0.00, -0.00, -1.00, 572.0, 330.0)"> </text><text xml:space="preserve" font-family="PalatinoLinotype-Roman" font-size="21.0" fill="#FFFFFF" transform="matrix(1.00, 0.00, -0.00, -1.00, 577.2, 330.0)">C</text><text xml:space="preserve" font-family="PalatinoLinotype-Roman" font-size="21.0" fill="#FFFFFF" transform="matrix(1.00, 0.00, -0.00, -1.00, 592.1, 330.0)">l</text><text xml:space="preserve" font-family="PalatinoLinotype-Roman" font-size="21.0" fill="#FFFFFF" transform="matrix(1.00, 0.00, -0.00, -1.00, 598.2, 330.0)">e</text><text xml:space="preserve" font-family="PalatinoLinotype-Roman" font-size="21.0" fill="#FFFFFF" transform="matrix(1.00, 0.00, -0.00, -1.00, 608.3, 330.0)">a</text><text xml:space="preserve" font-family="PalatinoLinotype-Roman" font-size="21.0" fill="#FFFFFF" transform="matrix(1.00, 0.00, -0.00, -1.00, 618.8, 330.0)">n</text><text xml:space="preserve" font-family="PalatinoLinotype-Roman" font-size="21.0" fill="#FFFFFF" transform="matrix(1.00, 0.00, -0.00, -1.00, 631.0, 330.0)"> </text><image xlink:href="../../3EFA903B-5B61-4D62-89B7-E7B0AFDF90B7/assets/61048F722627545884DF4938D9A38ED6.png" width="97.00" height="23.00" transform="matrix(1.00, 0.00, -0.00, -1.00, 221.0, 319.0)"></image><text xml:space="preserve" font-family="PalatinoLinotype-Roman" font-size="21.0" fill="#FFFFFF" transform="matrix(1.00, 0.00, -0.00, -1.00, 222.0, 302.0)">T</text><text xml:space="preserve" font-family="PalatinoLinotype-Roman" font-size="21.0" fill="#FFFFFF" transform="matrix(1.00, 0.00, -0.00, -1.00, 233.4, 302.0)">e</text><text xml:space="preserve" font-family="PalatinoLinotype-Roman" font-size="21.0" fill="#FFFFFF" transform="matrix(1.00, 0.00, -0.00, -1.00, 243.4, 302.0)">s</text><text xml:space="preserve" font-family="PalatinoLinotype-Roman" font-size="21.0" fill="#FFFFFF" transform="matrix(1.00, 0.00, -0.00, -1.00, 252.3, 302.0)">t</text><text xml:space="preserve" font-family="PalatinoLinotype-Roman" font-size="21.0" fill="#FFFFFF" transform="matrix(1.00, 0.00, -0.00, -1.00, 259.2, 302.0)"> </text><text xml:space="preserve" font-family="PalatinoLinotype-Roman" font-size="21.0" fill="#FFFFFF" transform="matrix(1.00, 0.00, -0.00, -1.00, 264.4, 302.0)">C</text><text xml:space="preserve" font-family="PalatinoLinotype-Roman" font-size="21.0" fill="#FFFFFF" transform="matrix(1.00, 0.00, -0.00, -1.00, 279.3, 302.0)">o</text><text xml:space="preserve" font-family="PalatinoLinotype-Roman" font-size="21.0" fill="#FFFFFF" transform="matrix(1.00, 0.00, -0.00, -1.00, 290.8, 302.0)">d</text><text xml:space="preserve" font-family="PalatinoLinotype-Roman" font-size="21.0" fill="#FFFFFF" transform="matrix(1.00, 0.00, -0.00, -1.00, 303.6, 302.0)">e</text><text xml:space="preserve" font-family="PalatinoLinotype-Roman" font-size="21.0" fill="#FFFFFF" transform="matrix(1.00, 0.00, -0.00, -1.00, 313.7, 302.0)"> </text><image xlink:href="../../3EFA903B-5B61-4D62-89B7-E7B0AFDF90B7/assets/4FF33B24C32C231E32AC6A03665FA67A.png" width="19.00" height="19.00" transform="matrix(1.00, 0.00, -0.00, -1.00, 172.0, 250.0)"></image><text xml:space="preserve" font-family="Wingdings-Regular" font-size="12.6" fill="#FFFFFF" transform="matrix(1.00, 0.00, -0.00, -1.00, 173.0, 238.8)">Ñ</text><image xlink:href="../../3EFA903B-5B61-4D62-89B7-E7B0AFDF90B7/assets/EB1107C76D43CE0A5ECFEDA1CC121651.png" width="427.00" height="28.00" transform="matrix(1.00, 0.00, -0.00, -1.00, 192.0, 252.0)"></image><text xml:space="preserve" font-family="PalatinoLinotype-Roman" font-size="21.0" fill="#FFFFFF" transform="matrix(1.00, 0.00, -0.00, -1.00, 193.0, 235.0)">D</text><text xml:space="preserve" font-family="PalatinoLinotype-Roman" font-size="21.0" fill="#FFFFFF" transform="matrix(1.00, 0.00, -0.00, -1.00, 209.3, 235.0)">o</text><text xml:space="preserve" font-family="PalatinoLinotype-Roman" font-size="21.0" fill="#FFFFFF" transform="matrix(1.00, 0.00, -0.00, -1.00, 220.7, 235.0)"> </text><text xml:space="preserve" font-family="PalatinoLinotype-Roman" font-size="21.0" fill="#FFFFFF" transform="matrix(1.00, 0.00, -0.00, -1.00, 226.0, 235.0)">y</text><text xml:space="preserve" font-family="PalatinoLinotype-Roman" font-size="21.0" fill="#FFFFFF" transform="matrix(1.00, 0.00, -0.00, -1.00, 237.6, 235.0)">o</text><text xml:space="preserve" font-family="PalatinoLinotype-Roman" font-size="21.0" fill="#FFFFFF" transform="matrix(1.00, 0.00, -0.00, -1.00, 249.1, 235.0)">u</text><text xml:space="preserve" font-family="PalatinoLinotype-Roman" font-size="21.0" fill="#FFFFFF" transform="matrix(1.00, 0.00, -0.00, -1.00, 261.8, 235.0)"> </text><text xml:space="preserve" font-family="PalatinoLinotype-Roman" font-size="21.0" fill="#FFFFFF" transform="matrix(1.00, 0.00, -0.00, -1.00, 267.0, 235.0)">h</text><text xml:space="preserve" font-family="PalatinoLinotype-Roman" font-size="21.0" fill="#FFFFFF" transform="matrix(1.00, 0.00, -0.00, -1.00, 279.2, 235.0)">e</text><text xml:space="preserve" font-family="PalatinoLinotype-Roman" font-size="21.0" fill="#FFFFFF" transform="matrix(1.00, 0.00, -0.00, -1.00, 289.3, 235.0)">a</text><text xml:space="preserve" font-family="PalatinoLinotype-Roman" font-size="21.0" fill="#FFFFFF" transform="matrix(1.00, 0.00, -0.00, -1.00, 299.8, 235.0)">r</text><text xml:space="preserve" font-family="PalatinoLinotype-Roman" font-size="21.0" fill="#FFFFFF" transform="matrix(1.00, 0.00, -0.00, -1.00, 308.1, 235.0)"> </text><text xml:space="preserve" font-family="PalatinoLinotype-Roman" font-size="21.0" fill="#FFFFFF" transform="matrix(1.00, 0.00, -0.00, -1.00, 313.3, 235.0)">m</text><text xml:space="preserve" font-family="PalatinoLinotype-Roman" font-size="21.0" fill="#FFFFFF" transform="matrix(1.00, 0.00, -0.00, -1.00, 331.9, 235.0)">u</text><text xml:space="preserve" font-family="PalatinoLinotype-Roman" font-size="21.0" fill="#FFFFFF" transform="matrix(1.00, 0.00, -0.00, -1.00, 344.5, 235.0)">c</text><text xml:space="preserve" font-family="PalatinoLinotype-Roman" font-size="21.0" fill="#FFFFFF" transform="matrix(1.00, 0.00, -0.00, -1.00, 353.9, 235.0)">h</text><text xml:space="preserve" font-family="PalatinoLinotype-Roman" font-size="21.0" fill="#FFFFFF" transform="matrix(1.00, 0.00, -0.00, -1.00, 366.1, 235.0)"> </text><text xml:space="preserve" font-family="PalatinoLinotype-Roman" font-size="21.0" fill="#FFFFFF" transform="matrix(1.00, 0.00, -0.00, -1.00, 371.3, 235.0)">a</text><text xml:space="preserve" font-family="PalatinoLinotype-Roman" font-size="21.0" fill="#FFFFFF" transform="matrix(1.00, 0.00, -0.00, -1.00, 381.8, 235.0)">b</text><text xml:space="preserve" font-family="PalatinoLinotype-Roman" font-size="21.0" fill="#FFFFFF" transform="matrix(1.00, 0.00, -0.00, -1.00, 393.5, 235.0)">o</text><text xml:space="preserve" font-family="PalatinoLinotype-Roman" font-size="21.0" fill="#FFFFFF" transform="matrix(1.00, 0.00, -0.00, -1.00, 404.9, 235.0)">u</text><text xml:space="preserve" font-family="PalatinoLinotype-Roman" font-size="21.0" fill="#FFFFFF" transform="matrix(1.00, 0.00, -0.00, -1.00, 417.6, 235.0)">t</text><text xml:space="preserve" font-family="PalatinoLinotype-Roman" font-size="21.0" fill="#FFFFFF" transform="matrix(1.00, 0.00, -0.00, -1.00, 424.4, 235.0)"> </text><text xml:space="preserve" font-family="PalatinoLinotype-Roman" font-size="21.0" fill="#FFFFFF" transform="matrix(1.00, 0.00, -0.00, -1.00, 429.7, 235.0)">d</text><text xml:space="preserve" font-family="PalatinoLinotype-Roman" font-size="21.0" fill="#FFFFFF" transform="matrix(1.00, 0.00, -0.00, -1.00, 442.5, 235.0)">e</text><text xml:space="preserve" font-family="PalatinoLinotype-Roman" font-size="21.0" fill="#FFFFFF" transform="matrix(1.00, 0.00, -0.00, -1.00, 452.6, 235.0)">v</text><text xml:space="preserve" font-family="PalatinoLinotype-Roman" font-size="21.0" fill="#FFFFFF" transform="matrix(1.00, 0.00, -0.00, -1.00, 464.1, 235.0)">e</text><text xml:space="preserve" font-family="PalatinoLinotype-Roman" font-size="21.0" fill="#FFFFFF" transform="matrix(1.00, 0.00, -0.00, -1.00, 474.1, 235.0)">l</text><text xml:space="preserve" font-family="PalatinoLinotype-Roman" font-size="21.0" fill="#FFFFFF" transform="matrix(1.00, 0.00, -0.00, -1.00, 480.2, 235.0)">o</text><text xml:space="preserve" font-family="PalatinoLinotype-Roman" font-size="21.0" fill="#FFFFFF" transform="matrix(1.00, 0.00, -0.00, -1.00, 491.7, 235.0)">p</text><text xml:space="preserve" font-family="PalatinoLinotype-Roman" font-size="21.0" fill="#FFFFFF" transform="matrix(1.00, 0.00, -0.00, -1.00, 504.3, 235.0)">e</text><text xml:space="preserve" font-family="PalatinoLinotype-Roman" font-size="21.0" fill="#FFFFFF" transform="matrix(1.00, 0.00, -0.00, -1.00, 514.4, 235.0)">r</text><text xml:space="preserve" font-family="PalatinoLinotype-Roman" font-size="21.0" fill="#FFFFFF" transform="matrix(1.00, 0.00, -0.00, -1.00, 522.7, 235.0)">s</text><text xml:space="preserve" font-family="PalatinoLinotype-Roman" font-size="21.0" fill="#FFFFFF" transform="matrix(1.00, 0.00, -0.00, -1.00, 531.6, 235.0)"> </text><text xml:space="preserve" font-family="PalatinoLinotype-Roman" font-size="21.0" fill="#FFFFFF" transform="matrix(1.00, 0.00, -0.00, -1.00, 536.8, 235.0)">l</text><text xml:space="preserve" font-family="PalatinoLinotype-Roman" font-size="21.0" fill="#FFFFFF" transform="matrix(1.00, 0.00, -0.00, -1.00, 542.9, 235.0)">e</text><text xml:space="preserve" font-family="PalatinoLinotype-Roman" font-size="21.0" fill="#FFFFFF" transform="matrix(1.00, 0.00, -0.00, -1.00, 553.0, 235.0)">a</text><text xml:space="preserve" font-family="PalatinoLinotype-Roman" font-size="21.0" fill="#FFFFFF" transform="matrix(1.00, 0.00, -0.00, -1.00, 563.5, 235.0)">r</text><text xml:space="preserve" font-family="PalatinoLinotype-Roman" font-size="21.0" fill="#FFFFFF" transform="matrix(1.00, 0.00, -0.00, -1.00, 571.8, 235.0)">n</text><text xml:space="preserve" font-family="PalatinoLinotype-Roman" font-size="21.0" fill="#FFFFFF" transform="matrix(1.00, 0.00, -0.00, -1.00, 584.0, 235.0)">i</text><text xml:space="preserve" font-family="PalatinoLinotype-Roman" font-size="21.0" fill="#FFFFFF" transform="matrix(1.00, 0.00, -0.00, -1.00, 590.1, 235.0)">n</text><text xml:space="preserve" font-family="PalatinoLinotype-Roman" font-size="21.0" fill="#FFFFFF" transform="matrix(1.00, 0.00, -0.00, -1.00, 602.4, 235.0)">g</text><text xml:space="preserve" font-family="PalatinoLinotype-Roman" font-size="21.0" fill="#FFFFFF" transform="matrix(1.00, 0.00, -0.00, -1.00, 614.0, 235.0)"> </text><image xlink:href="../../3EFA903B-5B61-4D62-89B7-E7B0AFDF90B7/assets/C7DB85C1B8257B04A9808B3AE97E13A2.png" width="135.00" height="28.00" transform="matrix(1.00, 0.00, -0.00, -1.00, 192.0, 224.0)"></image><text xml:space="preserve" font-family="PalatinoLinotype-Roman" font-size="21.0" fill="#FFFFFF" transform="matrix(1.00, 0.00, -0.00, -1.00, 193.0, 207.0)">T</text><text xml:space="preserve" font-family="PalatinoLinotype-Roman" font-size="21.0" fill="#FFFFFF" transform="matrix(1.00, 0.00, -0.00, -1.00, 204.4, 207.0)">e</text><text xml:space="preserve" font-family="PalatinoLinotype-Roman" font-size="21.0" fill="#FFFFFF" transform="matrix(1.00, 0.00, -0.00, -1.00, 214.4, 207.0)">s</text><text xml:space="preserve" font-family="PalatinoLinotype-Roman" font-size="21.0" fill="#FFFFFF" transform="matrix(1.00, 0.00, -0.00, -1.00, 223.3, 207.0)">t</text><text xml:space="preserve" font-family="PalatinoLinotype-Roman" font-size="21.0" fill="#FFFFFF" transform="matrix(1.00, 0.00, -0.00, -1.00, 230.2, 207.0)">i</text><text xml:space="preserve" font-family="PalatinoLinotype-Roman" font-size="21.0" fill="#FFFFFF" transform="matrix(1.00, 0.00, -0.00, -1.00, 236.3, 207.0)">n</text><text xml:space="preserve" font-family="PalatinoLinotype-Roman" font-size="21.0" fill="#FFFFFF" transform="matrix(1.00, 0.00, -0.00, -1.00, 248.5, 207.0)">g</text><text xml:space="preserve" font-family="PalatinoLinotype-Roman" font-size="21.0" fill="#FFFFFF" transform="matrix(1.00, 0.00, -0.00, -1.00, 260.2, 207.0)"> </text><text xml:space="preserve" font-family="PalatinoLinotype-Roman" font-size="21.0" fill="#FFFFFF" transform="matrix(1.00, 0.00, -0.00, -1.00, 265.5, 207.0)">s</text><text xml:space="preserve" font-family="PalatinoLinotype-Roman" font-size="21.0" fill="#FFFFFF" transform="matrix(1.00, 0.00, -0.00, -1.00, 274.4, 207.0)">k</text><text xml:space="preserve" font-family="PalatinoLinotype-Roman" font-size="21.0" fill="#FFFFFF" transform="matrix(1.00, 0.00, -0.00, -1.00, 286.0, 207.0)">i</text><text xml:space="preserve" font-family="PalatinoLinotype-Roman" font-size="21.0" fill="#FFFFFF" transform="matrix(1.00, 0.00, -0.00, -1.00, 292.1, 207.0)">l</text><text xml:space="preserve" font-family="PalatinoLinotype-Roman" font-size="21.0" fill="#FFFFFF" transform="matrix(1.00, 0.00, -0.00, -1.00, 298.3, 207.0)">l</text><text xml:space="preserve" font-family="PalatinoLinotype-Roman" font-size="21.0" fill="#FFFFFF" transform="matrix(1.00, 0.00, -0.00, -1.00, 304.4, 207.0)">s</text><text xml:space="preserve" font-family="PalatinoLinotype-Roman" font-size="21.0" fill="#FFFFFF" transform="matrix(1.00, 0.00, -0.00, -1.00, 313.3, 207.0)">?</text><image xlink:href="../../3EFA903B-5B61-4D62-89B7-E7B0AFDF90B7/assets/7CBE0AE116FC0C8AAFF155CFFCA64866.png" width="265.00" height="52.00" transform="matrix(1.00, 0.00, -0.00, -1.00, 64.0, 139.0)"></image><g><clipPath id="clip-90"><path d="M 47.4 87.6 L 673.2 87.6 L 673.2 182.4 L 47.4 182.4 Z M 47.4 87.6 "></path></clipPath><g clip-path="url(#clip-90)"><text xml:space="preserve" font-family="PalatinoLinotype-Roman" font-size="49.0" fill="#FFFFFF" transform="matrix(1.00, 0.00, -0.00, -1.00, 65.0, 102.0)">T</text><text xml:space="preserve" font-family="PalatinoLinotype-Roman" font-size="49.0" fill="#FFFFFF" transform="matrix(1.00, 0.00, -0.00, -1.00, 95.0, 102.0)">y</text><text xml:space="preserve" font-family="PalatinoLinotype-Roman" font-size="49.0" fill="#FFFFFF" transform="matrix(1.00, 0.00, -0.00, -1.00, 122.3, 102.0)">p</text><text xml:space="preserve" font-family="PalatinoLinotype-Roman" font-size="49.0" fill="#FFFFFF" transform="matrix(1.00, 0.00, -0.00, -1.00, 151.7, 102.0)">i</text><text xml:space="preserve" font-family="PalatinoLinotype-Roman" font-size="49.0" fill="#FFFFFF" transform="matrix(1.00, 0.00, -0.00, -1.00, 166.0, 102.0)">c</text><text xml:space="preserve" font-family="PalatinoLinotype-Roman" font-size="49.0" fill="#FFFFFF" transform="matrix(1.00, 0.00, -0.00, -1.00, 187.7, 102.0)">a</text><text xml:space="preserve" font-family="PalatinoLinotype-Roman" font-size="49.0" fill="#FFFFFF" transform="matrix(1.00, 0.00, -0.00, -1.00, 212.2, 102.0)">l</text><text xml:space="preserve" font-family="PalatinoLinotype-Roman" font-size="49.0" fill="#FFFFFF" transform="matrix(1.00, 0.00, -0.00, -1.00, 226.5, 102.0)">l</text><text xml:space="preserve" font-family="PalatinoLinotype-Roman" font-size="49.0" fill="#FFFFFF" transform="matrix(1.00, 0.00, -0.00, -1.00, 240.8, 102.0)">y</text><text xml:space="preserve" font-family="PalatinoLinotype-Roman" font-size="49.0" fill="#FFFFFF" transform="matrix(1.00, 0.00, -0.00, -1.00, 268.0, 102.0)"> </text><text xml:space="preserve" font-family="PalatinoLinotype-Roman" font-size="49.0" fill="#FFFFFF" transform="matrix(1.00, 0.00, -0.00, -1.00, 280.3, 102.0)">…</text><text xml:space="preserve" font-family="PalatinoLinotype-Roman" font-size="49.0" fill="#FFFFFF" transform="matrix(1.00, 0.00, -0.00, -1.00, 329.3, 102.0)"> </text></g></g></g></svg>