<?xml version="1.0" encoding="UTF-8" standalone="no"?><svg xmlns="http://www.w3.org/2000/svg" xmlns:xlink="http://www.w3.org/1999/xlink" clip-rule="evenodd" stroke-miterlimit="4.00" viewBox="0 0 720 540"><desc>SVG generated by Keynote</desc><defs></defs><g transform="matrix(1.00, 0.00, -0.00, -1.00, 0.0, 540.0)"><g><clipPath id="clip-202"><path d="M 0.0 540.0 L 720.0 540.0 L 720.0 0.0 L 0.0 0.0 Z M 0.0 540.0 "></path></clipPath><g clip-path="url(#clip-202)"><image xlink:href="../../50284B37-CCEE-4A85-B7F1-B37C6F61AD00/assets/FBB8612FB975EB8CCDB12C37C765AF08.png" width="720.00" height="540.00" transform="matrix(1.00, 0.00, -0.00, -1.00, 0.0, 540.0)"></image></g></g><g><clipPath id="clip-203"><path d="M 0.0 540.0 L 720.0 540.0 L 720.0 0.0 L 0.0 0.0 Z M 0.0 540.0 "></path></clipPath><g clip-path="url(#clip-203)"><image xlink:href="../../50284B37-CCEE-4A85-B7F1-B37C6F61AD00/assets/7601BF848A1235B6B5A20445977AEE42.png" width="720.00" height="540.00" transform="matrix(1.00, 0.00, -0.00, 1.00, 0.0, 0.0)"></image></g></g><g><clipPath id="clip-204"><path d="M 483.0 474.0 C 623.7 456.7 697.6 335.1 647.9 202.3 C 598.3 69.6 444.0 -24.1 303.3 -6.9 C 162.6 10.4 88.8 132.0 138.4 264.8 C 188.1 397.5 342.3 491.2 483.0 474.0 Z M 483.0 474.0 "></path></clipPath><g clip-path="url(#clip-204)"><image xlink:href="../../50284B37-CCEE-4A85-B7F1-B37C6F61AD00/assets/BADFE6F353B7F5F8A00CE8CD81F8D3D6.png" width="570.00" height="541.00" transform="matrix(1.16, 0.71, -0.71, 1.16, 252.6, -271.0)"></image></g></g><g><clipPath id="clip-205"><path d="M 146.2 463.6 C 244.0 512.9 345.8 467.0 373.6 361.1 C 401.3 255.1 344.6 129.3 246.8 80.0 C 148.9 30.7 47.1 76.6 19.4 182.6 C -8.4 288.5 48.4 414.3 146.2 463.6 Z M 146.2 463.6 "></path></clipPath><g clip-path="url(#clip-205)"><image xlink:href="../../50284B37-CCEE-4A85-B7F1-B37C6F61AD00/assets/4FDB1B0E90AF8D3A2BED7188D138EB0A.png" width="580.00" height="541.00" transform="matrix(0.43, 0.95, -0.95, 0.43, 333.9, -120.5)"></image></g></g><g><clipPath id="clip-206"><path d="M 598.7 550.4 C 721.8 539.6 783.3 438.3 736.1 324.1 C 688.9 209.9 550.8 126.1 427.7 136.8 C 304.6 147.6 243.1 249.0 290.3 363.1 C 337.5 477.3 475.6 561.2 598.7 550.4 Z M 598.7 550.4 "></path></clipPath><g clip-path="url(#clip-206)"><image xlink:href="../../50284B37-CCEE-4A85-B7F1-B37C6F61AD00/assets/C6A1A72DB74EAFC4E8775A40D516143F.png" width="560.00" height="541.00" transform="matrix(0.95, 0.58, -0.58, 0.95, 371.5, -86.1)"></image></g></g><text xml:space="preserve" font-family="PalatinoLinotype-Roman" font-size="13.0" fill="#9EABBE" transform="matrix(1.00, 0.00, -0.00, -1.00, 15.0, 20.0)">D</text><text xml:space="preserve" font-family="PalatinoLinotype-Roman" font-size="13.0" fill="#9EABBE" transform="matrix(1.00, 0.00, -0.00, -1.00, 25.1, 20.0)">a</text><text xml:space="preserve" font-family="PalatinoLinotype-Roman" font-size="13.0" fill="#9EABBE" transform="matrix(1.00, 0.00, -0.00, -1.00, 31.6, 20.0)">w</text><text xml:space="preserve" font-family="PalatinoLinotype-Roman" font-size="13.0" fill="#9EABBE" transform="matrix(1.00, 0.00, -0.00, -1.00, 42.4, 20.0)">n</text><text xml:space="preserve" font-family="PalatinoLinotype-Roman" font-size="13.0" fill="#9EABBE" transform="matrix(1.00, 0.00, -0.00, -1.00, 50.0, 20.0)"> </text><text xml:space="preserve" font-family="PalatinoLinotype-Roman" font-size="13.0" fill="#9EABBE" transform="matrix(1.00, 0.00, -0.00, -1.00, 53.2, 20.0)">C</text><text xml:space="preserve" font-family="PalatinoLinotype-Roman" font-size="13.0" fill="#9EABBE" transform="matrix(1.00, 0.00, -0.00, -1.00, 62.4, 20.0)">o</text><text xml:space="preserve" font-family="PalatinoLinotype-Roman" font-size="13.0" fill="#9EABBE" transform="matrix(1.00, 0.00, -0.00, -1.00, 69.5, 20.0)">d</text><text xml:space="preserve" font-family="PalatinoLinotype-Roman" font-size="13.0" fill="#9EABBE" transform="matrix(1.00, 0.00, -0.00, -1.00, 77.5, 20.0)">e</text><text xml:space="preserve" font-family="PalatinoLinotype-Roman" font-size="13.0" fill="#9EABBE" transform="matrix(1.00, 0.00, -0.00, -1.00, 83.7, 20.0)">,</text><text xml:space="preserve" font-family="PalatinoLinotype-Roman" font-size="13.0" fill="#9EABBE" transform="matrix(1.00, 0.00, -0.00, -1.00, 86.9, 20.0)"> </text><text xml:space="preserve" font-family="PalatinoLinotype-Roman" font-size="13.0" fill="#9EABBE" transform="matrix(1.00, 0.00, -0.00, -1.00, 90.2, 20.0)">T</text><text xml:space="preserve" font-family="PalatinoLinotype-Roman" font-size="13.0" fill="#9EABBE" transform="matrix(1.00, 0.00, -0.00, -1.00, 98.2, 20.0)">r</text><text xml:space="preserve" font-family="PalatinoLinotype-Roman" font-size="13.0" fill="#9EABBE" transform="matrix(1.00, 0.00, -0.00, -1.00, 103.3, 20.0)">i</text><text xml:space="preserve" font-family="PalatinoLinotype-Roman" font-size="13.0" fill="#9EABBE" transform="matrix(1.00, 0.00, -0.00, -1.00, 107.1, 20.0)">A</text><text xml:space="preserve" font-family="PalatinoLinotype-Roman" font-size="13.0" fill="#9EABBE" transform="matrix(1.00, 0.00, -0.00, -1.00, 117.2, 20.0)">g</text><text xml:space="preserve" font-family="PalatinoLinotype-Roman" font-size="13.0" fill="#9EABBE" transform="matrix(1.00, 0.00, -0.00, -1.00, 124.4, 20.0)">i</text><text xml:space="preserve" font-family="PalatinoLinotype-Roman" font-size="13.0" fill="#9EABBE" transform="matrix(1.00, 0.00, -0.00, -1.00, 128.2, 20.0)">l</text><text xml:space="preserve" font-family="PalatinoLinotype-Roman" font-size="13.0" fill="#9EABBE" transform="matrix(1.00, 0.00, -0.00, -1.00, 132.0, 20.0)">e</text><text xml:space="preserve" font-family="PalatinoLinotype-Roman" font-size="13.0" fill="#9EABBE" transform="matrix(1.00, 0.00, -0.00, -1.00, 138.2, 20.0)"> </text><text xml:space="preserve" font-family="PalatinoLinotype-Roman" font-size="13.0" fill="#9EABBE" transform="matrix(1.00, 0.00, -0.00, -1.00, 141.5, 20.0)">2</text><text xml:space="preserve" font-family="PalatinoLinotype-Roman" font-size="13.0" fill="#9EABBE" transform="matrix(1.00, 0.00, -0.00, -1.00, 148.0, 20.0)">0</text><text xml:space="preserve" font-family="PalatinoLinotype-Roman" font-size="13.0" fill="#9EABBE" transform="matrix(1.00, 0.00, -0.00, -1.00, 154.5, 20.0)">1</text><text xml:space="preserve" font-family="PalatinoLinotype-Roman" font-size="13.0" fill="#9EABBE" transform="matrix(1.00, 0.00, -0.00, -1.00, 161.0, 20.0)">6</text><image xlink:href="0F3A89E78B7332F25D4D7FA04EAF87A2.png" width="358.00" height="50.00" transform="matrix(1.00, 0.00, -0.00, -1.00, 65.0, 137.0)"></image><g><clipPath id="clip-207"><path d="M 47.7 87.6 L 672.9 87.6 L 672.9 152.4 L 47.7 152.4 Z M 47.7 87.6 "></path></clipPath><g clip-path="url(#clip-207)"><text xml:space="preserve" font-family="PalatinoLinotype-Roman" font-size="48.0" fill="#FFFFFF" transform="matrix(1.00, 0.00, -0.00, -1.00, 65.0, 102.0)">I</text><text xml:space="preserve" font-family="PalatinoLinotype-Roman" font-size="48.0" fill="#FFFFFF" transform="matrix(1.00, 0.00, -0.00, -1.00, 81.2, 102.0)">n</text><text xml:space="preserve" font-family="PalatinoLinotype-Roman" font-size="48.0" fill="#FFFFFF" transform="matrix(1.00, 0.00, -0.00, -1.00, 109.1, 102.0)">t</text><text xml:space="preserve" font-family="PalatinoLinotype-Roman" font-size="48.0" fill="#FFFFFF" transform="matrix(1.00, 0.00, -0.00, -1.00, 124.8, 102.0)">e</text><text xml:space="preserve" font-family="PalatinoLinotype-Roman" font-size="48.0" fill="#FFFFFF" transform="matrix(1.00, 0.00, -0.00, -1.00, 147.8, 102.0)">g</text><text xml:space="preserve" font-family="PalatinoLinotype-Roman" font-size="48.0" fill="#FFFFFF" transform="matrix(1.00, 0.00, -0.00, -1.00, 174.5, 102.0)">r</text><text xml:space="preserve" font-family="PalatinoLinotype-Roman" font-size="48.0" fill="#FFFFFF" transform="matrix(1.00, 0.00, -0.00, -1.00, 193.5, 102.0)">a</text><text xml:space="preserve" font-family="PalatinoLinotype-Roman" font-size="48.0" fill="#FFFFFF" transform="matrix(1.00, 0.00, -0.00, -1.00, 217.5, 102.0)">t</text><text xml:space="preserve" font-family="PalatinoLinotype-Roman" font-size="48.0" fill="#FFFFFF" transform="matrix(1.00, 0.00, -0.00, -1.00, 233.2, 102.0)">i</text><text xml:space="preserve" font-family="PalatinoLinotype-Roman" font-size="48.0" fill="#FFFFFF" transform="matrix(1.00, 0.00, -0.00, -1.00, 247.1, 102.0)">o</text><text xml:space="preserve" font-family="PalatinoLinotype-Roman" font-size="48.0" fill="#FFFFFF" transform="matrix(1.00, 0.00, -0.00, -1.00, 273.3, 102.0)">n</text><text xml:space="preserve" font-family="PalatinoLinotype-Roman" font-size="48.0" fill="#FFFFFF" transform="matrix(1.00, 0.00, -0.00, -1.00, 301.3, 102.0)"> </text><text xml:space="preserve" font-family="PalatinoLinotype-Roman" font-size="48.0" fill="#FFFFFF" transform="matrix(1.00, 0.00, -0.00, -1.00, 313.3, 102.0)">T</text><text xml:space="preserve" font-family="PalatinoLinotype-Roman" font-size="48.0" fill="#FFFFFF" transform="matrix(1.00, 0.00, -0.00, -1.00, 339.3, 102.0)">e</text><text xml:space="preserve" font-family="PalatinoLinotype-Roman" font-size="48.0" fill="#FFFFFF" transform="matrix(1.00, 0.00, -0.00, -1.00, 362.3, 102.0)">s</text><text xml:space="preserve" font-family="PalatinoLinotype-Roman" font-size="48.0" fill="#FFFFFF" transform="matrix(1.00, 0.00, -0.00, -1.00, 382.7, 102.0)">t</text><text xml:space="preserve" font-family="PalatinoLinotype-Roman" font-size="48.0" fill="#FFFFFF" transform="matrix(1.00, 0.00, -0.00, -1.00, 398.3, 102.0)">s</text></g></g><g><clipPath id="clip-208"><path d="M 0.0 489.0 L 405.0 489.0 L 405.0 190.0 L 0.0 190.0 Z M 0.0 488.6 "></path></clipPath><g clip-path="url(#clip-208)"><image xlink:href="717905B7F85718A453E1F2AEC9A084EE.png" width="131.00" height="131.00" transform="matrix(3.09, 0.00, -0.00, -3.09, 0.0, 539.0)"></image></g></g></g></svg>