<?xml version="1.0" encoding="UTF-8" standalone="no"?><svg xmlns="http://www.w3.org/2000/svg" xmlns:xlink="http://www.w3.org/1999/xlink" clip-rule="evenodd" stroke-miterlimit="4.00" viewBox="0 0 720 540"><desc>SVG generated by Keynote</desc><defs></defs><g transform="matrix(1.00, 0.00, -0.00, -1.00, 0.0, 540.0)"><g><clipPath id="clip-35"><path d="M 0.0 540.0 L 720.0 540.0 L 720.0 0.0 L 0.0 0.0 Z M 0.0 540.0 "></path></clipPath><g clip-path="url(#clip-35)"><image xlink:href="../../50284B37-CCEE-4A85-B7F1-B37C6F61AD00/assets/FBB8612FB975EB8CCDB12C37C765AF08.png" width="720.00" height="540.00" transform="matrix(1.00, 0.00, -0.00, -1.00, 0.0, 540.0)"></image></g></g><g><clipPath id="clip-36"><path d="M 0.0 540.0 L 720.0 540.0 L 720.0 0.0 L 0.0 0.0 Z M 0.0 540.0 "></path></clipPath><g clip-path="url(#clip-36)"><image xlink:href="../../50284B37-CCEE-4A85-B7F1-B37C6F61AD00/assets/7601BF848A1235B6B5A20445977AEE42.png" width="720.00" height="540.00" transform="matrix(1.00, 0.00, -0.00, 1.00, 0.0, 0.0)"></image></g></g><g><clipPath id="clip-37"><path d="M 483.0 474.0 C 623.7 456.7 697.6 335.1 647.9 202.3 C 598.3 69.6 444.0 -24.1 303.3 -6.9 C 162.6 10.4 88.8 132.0 138.4 264.8 C 188.1 397.5 342.3 491.2 483.0 474.0 Z M 483.0 474.0 "></path></clipPath><g clip-path="url(#clip-37)"><image xlink:href="../../50284B37-CCEE-4A85-B7F1-B37C6F61AD00/assets/BADFE6F353B7F5F8A00CE8CD81F8D3D6.png" width="570.00" height="541.00" transform="matrix(1.16, 0.71, -0.71, 1.16, 252.6, -271.0)"></image></g></g><g><clipPath id="clip-38"><path d="M 146.2 463.6 C 244.0 512.9 345.8 467.0 373.6 361.1 C 401.3 255.1 344.6 129.3 246.8 80.0 C 148.9 30.7 47.1 76.6 19.4 182.6 C -8.4 288.5 48.4 414.3 146.2 463.6 Z M 146.2 463.6 "></path></clipPath><g clip-path="url(#clip-38)"><image xlink:href="../../50284B37-CCEE-4A85-B7F1-B37C6F61AD00/assets/4FDB1B0E90AF8D3A2BED7188D138EB0A.png" width="580.00" height="541.00" transform="matrix(0.43, 0.95, -0.95, 0.43, 333.9, -120.5)"></image></g></g><g><clipPath id="clip-39"><path d="M 598.7 550.4 C 721.8 539.6 783.3 438.3 736.1 324.1 C 688.9 209.9 550.8 126.1 427.7 136.8 C 304.6 147.6 243.1 249.0 290.3 363.1 C 337.5 477.3 475.6 561.2 598.7 550.4 Z M 598.7 550.4 "></path></clipPath><g clip-path="url(#clip-39)"><image xlink:href="../../50284B37-CCEE-4A85-B7F1-B37C6F61AD00/assets/C6A1A72DB74EAFC4E8775A40D516143F.png" width="560.00" height="541.00" transform="matrix(0.95, 0.58, -0.58, 0.95, 371.5, -86.1)"></image></g></g><text xml:space="preserve" font-family="PalatinoLinotype-Roman" font-size="13.0" fill="#9EABBE" transform="matrix(1.00, 0.00, -0.00, -1.00, 15.0, 20.0)">D</text><text xml:space="preserve" font-family="PalatinoLinotype-Roman" font-size="13.0" fill="#9EABBE" transform="matrix(1.00, 0.00, -0.00, -1.00, 25.1, 20.0)">a</text><text xml:space="preserve" font-family="PalatinoLinotype-Roman" font-size="13.0" fill="#9EABBE" transform="matrix(1.00, 0.00, -0.00, -1.00, 31.6, 20.0)">w</text><text xml:space="preserve" font-family="PalatinoLinotype-Roman" font-size="13.0" fill="#9EABBE" transform="matrix(1.00, 0.00, -0.00, -1.00, 42.4, 20.0)">n</text><text xml:space="preserve" font-family="PalatinoLinotype-Roman" font-size="13.0" fill="#9EABBE" transform="matrix(1.00, 0.00, -0.00, -1.00, 50.0, 20.0)"> </text><text xml:space="preserve" font-family="PalatinoLinotype-Roman" font-size="13.0" fill="#9EABBE" transform="matrix(1.00, 0.00, -0.00, -1.00, 53.2, 20.0)">C</text><text xml:space="preserve" font-family="PalatinoLinotype-Roman" font-size="13.0" fill="#9EABBE" transform="matrix(1.00, 0.00, -0.00, -1.00, 62.4, 20.0)">o</text><text xml:space="preserve" font-family="PalatinoLinotype-Roman" font-size="13.0" fill="#9EABBE" transform="matrix(1.00, 0.00, -0.00, -1.00, 69.5, 20.0)">d</text><text xml:space="preserve" font-family="PalatinoLinotype-Roman" font-size="13.0" fill="#9EABBE" transform="matrix(1.00, 0.00, -0.00, -1.00, 77.5, 20.0)">e</text><text xml:space="preserve" font-family="PalatinoLinotype-Roman" font-size="13.0" fill="#9EABBE" transform="matrix(1.00, 0.00, -0.00, -1.00, 83.7, 20.0)">,</text><text xml:space="preserve" font-family="PalatinoLinotype-Roman" font-size="13.0" fill="#9EABBE" transform="matrix(1.00, 0.00, -0.00, -1.00, 86.9, 20.0)"> </text><text xml:space="preserve" font-family="PalatinoLinotype-Roman" font-size="13.0" fill="#9EABBE" transform="matrix(1.00, 0.00, -0.00, -1.00, 90.2, 20.0)">T</text><text xml:space="preserve" font-family="PalatinoLinotype-Roman" font-size="13.0" fill="#9EABBE" transform="matrix(1.00, 0.00, -0.00, -1.00, 98.2, 20.0)">r</text><text xml:space="preserve" font-family="PalatinoLinotype-Roman" font-size="13.0" fill="#9EABBE" transform="matrix(1.00, 0.00, -0.00, -1.00, 103.3, 20.0)">i</text><text xml:space="preserve" font-family="PalatinoLinotype-Roman" font-size="13.0" fill="#9EABBE" transform="matrix(1.00, 0.00, -0.00, -1.00, 107.1, 20.0)">A</text><text xml:space="preserve" font-family="PalatinoLinotype-Roman" font-size="13.0" fill="#9EABBE" transform="matrix(1.00, 0.00, -0.00, -1.00, 117.2, 20.0)">g</text><text xml:space="preserve" font-family="PalatinoLinotype-Roman" font-size="13.0" fill="#9EABBE" transform="matrix(1.00, 0.00, -0.00, -1.00, 124.4, 20.0)">i</text><text xml:space="preserve" font-family="PalatinoLinotype-Roman" font-size="13.0" fill="#9EABBE" transform="matrix(1.00, 0.00, -0.00, -1.00, 128.2, 20.0)">l</text><text xml:space="preserve" font-family="PalatinoLinotype-Roman" font-size="13.0" fill="#9EABBE" transform="matrix(1.00, 0.00, -0.00, -1.00, 132.0, 20.0)">e</text><text xml:space="preserve" font-family="PalatinoLinotype-Roman" font-size="13.0" fill="#9EABBE" transform="matrix(1.00, 0.00, -0.00, -1.00, 138.2, 20.0)"> </text><text xml:space="preserve" font-family="PalatinoLinotype-Roman" font-size="13.0" fill="#9EABBE" transform="matrix(1.00, 0.00, -0.00, -1.00, 141.5, 20.0)">2</text><text xml:space="preserve" font-family="PalatinoLinotype-Roman" font-size="13.0" fill="#9EABBE" transform="matrix(1.00, 0.00, -0.00, -1.00, 148.0, 20.0)">0</text><text xml:space="preserve" font-family="PalatinoLinotype-Roman" font-size="13.0" fill="#9EABBE" transform="matrix(1.00, 0.00, -0.00, -1.00, 154.5, 20.0)">1</text><text xml:space="preserve" font-family="PalatinoLinotype-Roman" font-size="13.0" fill="#9EABBE" transform="matrix(1.00, 0.00, -0.00, -1.00, 161.0, 20.0)">6</text><g><clipPath id="clip-40"><path d="M 168.0 503.0 L 602.0 503.0 L 602.0 156.0 L 168.0 156.0 Z M 168.0 503.2 "></path></clipPath><g clip-path="url(#clip-40)"><image xlink:href="713B547345805C8758AC4195423A80E6.png" width="435.00" height="340.00" transform="matrix(1.00, 0.00, -0.00, -1.00, 168.0, 494.0)"></image></g></g><image xlink:href="42C8614F3BB9FA7D688A886B78FD4CA1.png" width="250.00" height="41.00" transform="matrix(1.00, 0.00, -0.00, -1.00, 64.0, 137.0)"></image><g><clipPath id="clip-41"><path d="M 47.7 87.6 L 672.9 87.6 L 672.9 152.4 L 47.7 152.4 Z M 47.7 87.6 "></path></clipPath><g clip-path="url(#clip-41)"><text xml:space="preserve" font-family="PalatinoLinotype-Roman" font-size="48.0" fill="#FFFFFF" transform="matrix(1.00, 0.00, -0.00, -1.00, 65.0, 102.0)">T</text><text xml:space="preserve" font-family="PalatinoLinotype-Roman" font-size="48.0" fill="#FFFFFF" transform="matrix(1.00, 0.00, -0.00, -1.00, 91.0, 102.0)">e</text><text xml:space="preserve" font-family="PalatinoLinotype-Roman" font-size="48.0" fill="#FFFFFF" transform="matrix(1.00, 0.00, -0.00, -1.00, 114.0, 102.0)">s</text><text xml:space="preserve" font-family="PalatinoLinotype-Roman" font-size="48.0" fill="#FFFFFF" transform="matrix(1.00, 0.00, -0.00, -1.00, 134.4, 102.0)">t</text><text xml:space="preserve" font-family="PalatinoLinotype-Roman" font-size="48.0" fill="#FFFFFF" transform="matrix(1.00, 0.00, -0.00, -1.00, 150.0, 102.0)"> </text><text xml:space="preserve" font-family="PalatinoLinotype-Roman" font-size="48.0" fill="#FFFFFF" transform="matrix(1.00, 0.00, -0.00, -1.00, 162.0, 102.0)">D</text><text xml:space="preserve" font-family="PalatinoLinotype-Roman" font-size="48.0" fill="#FFFFFF" transform="matrix(1.00, 0.00, -0.00, -1.00, 199.2, 102.0)">r</text><text xml:space="preserve" font-family="PalatinoLinotype-Roman" font-size="48.0" fill="#FFFFFF" transform="matrix(1.00, 0.00, -0.00, -1.00, 218.2, 102.0)">i</text><text xml:space="preserve" font-family="PalatinoLinotype-Roman" font-size="48.0" fill="#FFFFFF" transform="matrix(1.00, 0.00, -0.00, -1.00, 232.1, 102.0)">v</text><text xml:space="preserve" font-family="PalatinoLinotype-Roman" font-size="48.0" fill="#FFFFFF" transform="matrix(1.00, 0.00, -0.00, -1.00, 258.4, 102.0)">e</text><text xml:space="preserve" font-family="PalatinoLinotype-Roman" font-size="48.0" fill="#FFFFFF" transform="matrix(1.00, 0.00, -0.00, -1.00, 281.5, 102.0)">n</text><text xml:space="preserve" font-family="PalatinoLinotype-Roman" font-size="48.0" fill="#FFFFFF" transform="matrix(1.00, 0.00, -0.00, -1.00, 309.4, 102.0)"> </text></g></g><image xlink:href="FF839AE8F37A47AFFA2E80B30AF99BFA.png" width="196.00" height="42.00" transform="matrix(1.00, 0.00, -0.00, -1.00, 325.0, 138.0)"></image><g><clipPath id="clip-42"><path d="M 47.7 87.6 L 672.9 87.6 L 672.9 152.4 L 47.7 152.4 Z M 47.7 87.6 "></path></clipPath><g clip-path="url(#clip-42)"><text xml:space="preserve" font-family="PalatinoLinotype-Roman" font-size="48.0" fill="#FFFFFF" transform="matrix(1.00, 0.00, -0.00, -1.00, 321.4, 102.0)">…</text><text xml:space="preserve" font-family="PalatinoLinotype-Roman" font-size="48.0" fill="#FFFFFF" transform="matrix(1.00, 0.00, -0.00, -1.00, 369.4, 102.0)"> </text><text xml:space="preserve" font-family="PalatinoLinotype-Roman" font-size="48.0" fill="#FFFFFF" transform="matrix(1.00, 0.00, -0.00, -1.00, 381.4, 102.0)">W</text><text xml:space="preserve" font-family="PalatinoLinotype-Roman" font-size="48.0" fill="#FFFFFF" transform="matrix(1.00, 0.00, -0.00, -1.00, 429.5, 102.0)">h</text><text xml:space="preserve" font-family="PalatinoLinotype-Roman" font-size="48.0" fill="#FFFFFF" transform="matrix(1.00, 0.00, -0.00, -1.00, 457.4, 102.0)">a</text><text xml:space="preserve" font-family="PalatinoLinotype-Roman" font-size="48.0" fill="#FFFFFF" transform="matrix(1.00, 0.00, -0.00, -1.00, 481.4, 102.0)">t</text><text xml:space="preserve" font-family="PalatinoLinotype-Roman" font-size="48.0" fill="#FFFFFF" transform="matrix(1.00, 0.00, -0.00, -1.00, 497.1, 102.0)">?</text></g></g><text xml:space="preserve" font-family="PalatinoLinotype-Roman" font-size="10.0" fill="#7E7E7E" transform="matrix(1.00, 0.00, -0.00, -1.00, 441.0, 17.0)">h</text><text xml:space="preserve" font-family="PalatinoLinotype-Roman" font-size="10.0" fill="#7E7E7E" transform="matrix(1.00, 0.00, -0.00, -1.00, 446.8, 17.0)">t</text><text xml:space="preserve" font-family="PalatinoLinotype-Roman" font-size="10.0" fill="#7E7E7E" transform="matrix(1.00, 0.00, -0.00, -1.00, 450.1, 17.0)">t</text><text xml:space="preserve" font-family="PalatinoLinotype-Roman" font-size="10.0" fill="#7E7E7E" transform="matrix(1.00, 0.00, -0.00, -1.00, 453.3, 17.0)">p</text><text xml:space="preserve" font-family="PalatinoLinotype-Roman" font-size="10.0" fill="#7E7E7E" transform="matrix(1.00, 0.00, -0.00, -1.00, 459.4, 17.0)">:</text><text xml:space="preserve" font-family="PalatinoLinotype-Roman" font-size="10.0" fill="#7E7E7E" transform="matrix(1.00, 0.00, -0.00, -1.00, 461.9, 17.0)">/</text><text xml:space="preserve" font-family="PalatinoLinotype-Roman" font-size="10.0" fill="#7E7E7E" transform="matrix(1.00, 0.00, -0.00, -1.00, 465.1, 17.0)">/</text><text xml:space="preserve" font-family="PalatinoLinotype-Roman" font-size="10.0" fill="#7E7E7E" transform="matrix(1.00, 0.00, -0.00, -1.00, 468.3, 17.0)">w</text><text xml:space="preserve" font-family="PalatinoLinotype-Roman" font-size="10.0" fill="#7E7E7E" transform="matrix(1.00, 0.00, -0.00, -1.00, 476.6, 17.0)">w</text><text xml:space="preserve" font-family="PalatinoLinotype-Roman" font-size="10.0" fill="#7E7E7E" transform="matrix(1.00, 0.00, -0.00, -1.00, 485.0, 17.0)">w</text><text xml:space="preserve" font-family="PalatinoLinotype-Roman" font-size="10.0" fill="#7E7E7E" transform="matrix(1.00, 0.00, -0.00, -1.00, 493.3, 17.0)">.</text><text xml:space="preserve" font-family="PalatinoLinotype-Roman" font-size="10.0" fill="#7E7E7E" transform="matrix(1.00, 0.00, -0.00, -1.00, 495.8, 17.0)">a</text><text xml:space="preserve" font-family="PalatinoLinotype-Roman" font-size="10.0" fill="#7E7E7E" transform="matrix(1.00, 0.00, -0.00, -1.00, 500.8, 17.0)">g</text><text xml:space="preserve" font-family="PalatinoLinotype-Roman" font-size="10.0" fill="#7E7E7E" transform="matrix(1.00, 0.00, -0.00, -1.00, 506.4, 17.0)">i</text><text xml:space="preserve" font-family="PalatinoLinotype-Roman" font-size="10.0" fill="#7E7E7E" transform="matrix(1.00, 0.00, -0.00, -1.00, 509.3, 17.0)">l</text><text xml:space="preserve" font-family="PalatinoLinotype-Roman" font-size="10.0" fill="#7E7E7E" transform="matrix(1.00, 0.00, -0.00, -1.00, 512.2, 17.0)">e</text><text xml:space="preserve" font-family="PalatinoLinotype-Roman" font-size="10.0" fill="#7E7E7E" transform="matrix(1.00, 0.00, -0.00, -1.00, 517.0, 17.0)">n</text><text xml:space="preserve" font-family="PalatinoLinotype-Roman" font-size="10.0" fill="#7E7E7E" transform="matrix(1.00, 0.00, -0.00, -1.00, 522.8, 17.0)">u</text><text xml:space="preserve" font-family="PalatinoLinotype-Roman" font-size="10.0" fill="#7E7E7E" transform="matrix(1.00, 0.00, -0.00, -1.00, 528.8, 17.0)">t</text><text xml:space="preserve" font-family="PalatinoLinotype-Roman" font-size="10.0" fill="#7E7E7E" transform="matrix(1.00, 0.00, -0.00, -1.00, 532.1, 17.0)">s</text><text xml:space="preserve" font-family="PalatinoLinotype-Roman" font-size="10.0" fill="#7E7E7E" transform="matrix(1.00, 0.00, -0.00, -1.00, 536.3, 17.0)">h</text><text xml:space="preserve" font-family="PalatinoLinotype-Roman" font-size="10.0" fill="#7E7E7E" transform="matrix(1.00, 0.00, -0.00, -1.00, 542.1, 17.0)">e</text><text xml:space="preserve" font-family="PalatinoLinotype-Roman" font-size="10.0" fill="#7E7E7E" transform="matrix(1.00, 0.00, -0.00, -1.00, 546.9, 17.0)">l</text><text xml:space="preserve" font-family="PalatinoLinotype-Roman" font-size="10.0" fill="#7E7E7E" transform="matrix(1.00, 0.00, -0.00, -1.00, 549.8, 17.0)">l</text><text xml:space="preserve" font-family="PalatinoLinotype-Roman" font-size="10.0" fill="#7E7E7E" transform="matrix(1.00, 0.00, -0.00, -1.00, 552.7, 17.0)">.</text><text xml:space="preserve" font-family="PalatinoLinotype-Roman" font-size="10.0" fill="#7E7E7E" transform="matrix(1.00, 0.00, -0.00, -1.00, 555.2, 17.0)">c</text><text xml:space="preserve" font-family="PalatinoLinotype-Roman" font-size="10.0" fill="#7E7E7E" transform="matrix(1.00, 0.00, -0.00, -1.00, 559.7, 17.0)">o</text><text xml:space="preserve" font-family="PalatinoLinotype-Roman" font-size="10.0" fill="#7E7E7E" transform="matrix(1.00, 0.00, -0.00, -1.00, 565.1, 17.0)">m</text><text xml:space="preserve" font-family="PalatinoLinotype-Roman" font-size="10.0" fill="#7E7E7E" transform="matrix(1.00, 0.00, -0.00, -1.00, 574.0, 17.0)">/</text><text xml:space="preserve" font-family="PalatinoLinotype-Roman" font-size="10.0" fill="#7E7E7E" transform="matrix(1.00, 0.00, -0.00, -1.00, 577.2, 17.0)">t</text><text xml:space="preserve" font-family="PalatinoLinotype-Roman" font-size="10.0" fill="#7E7E7E" transform="matrix(1.00, 0.00, -0.00, -1.00, 580.4, 17.0)">e</text><text xml:space="preserve" font-family="PalatinoLinotype-Roman" font-size="10.0" fill="#7E7E7E" transform="matrix(1.00, 0.00, -0.00, -1.00, 585.2, 17.0)">s</text><text xml:space="preserve" font-family="PalatinoLinotype-Roman" font-size="10.0" fill="#7E7E7E" transform="matrix(1.00, 0.00, -0.00, -1.00, 589.5, 17.0)">t</text><text xml:space="preserve" font-family="PalatinoLinotype-Roman" font-size="10.0" fill="#7E7E7E" transform="matrix(1.00, 0.00, -0.00, -1.00, 592.7, 17.0)">_</text><text xml:space="preserve" font-family="PalatinoLinotype-Roman" font-size="10.0" fill="#7E7E7E" transform="matrix(1.00, 0.00, -0.00, -1.00, 597.7, 17.0)">d</text><text xml:space="preserve" font-family="PalatinoLinotype-Roman" font-size="10.0" fill="#7E7E7E" transform="matrix(1.00, 0.00, -0.00, -1.00, 603.8, 17.0)">r</text><text xml:space="preserve" font-family="PalatinoLinotype-Roman" font-size="10.0" fill="#7E7E7E" transform="matrix(1.00, 0.00, -0.00, -1.00, 607.8, 17.0)">i</text><text xml:space="preserve" font-family="PalatinoLinotype-Roman" font-size="10.0" fill="#7E7E7E" transform="matrix(1.00, 0.00, -0.00, -1.00, 610.7, 17.0)">v</text><text xml:space="preserve" font-family="PalatinoLinotype-Roman" font-size="10.0" fill="#7E7E7E" transform="matrix(1.00, 0.00, -0.00, -1.00, 616.2, 17.0)">e</text><text xml:space="preserve" font-family="PalatinoLinotype-Roman" font-size="10.0" fill="#7E7E7E" transform="matrix(1.00, 0.00, -0.00, -1.00, 621.0, 17.0)">n</text><text xml:space="preserve" font-family="PalatinoLinotype-Roman" font-size="10.0" fill="#7E7E7E" transform="matrix(1.00, 0.00, -0.00, -1.00, 626.8, 17.0)">_</text><text xml:space="preserve" font-family="PalatinoLinotype-Roman" font-size="10.0" fill="#7E7E7E" transform="matrix(1.00, 0.00, -0.00, -1.00, 631.8, 17.0)">d</text><text xml:space="preserve" font-family="PalatinoLinotype-Roman" font-size="10.0" fill="#7E7E7E" transform="matrix(1.00, 0.00, -0.00, -1.00, 637.9, 17.0)">e</text><text xml:space="preserve" font-family="PalatinoLinotype-Roman" font-size="10.0" fill="#7E7E7E" transform="matrix(1.00, 0.00, -0.00, -1.00, 642.7, 17.0)">v</text><text xml:space="preserve" font-family="PalatinoLinotype-Roman" font-size="10.0" fill="#7E7E7E" transform="matrix(1.00, 0.00, -0.00, -1.00, 648.2, 17.0)">e</text><text xml:space="preserve" font-family="PalatinoLinotype-Roman" font-size="10.0" fill="#7E7E7E" transform="matrix(1.00, 0.00, -0.00, -1.00, 652.9, 17.0)">l</text><text xml:space="preserve" font-family="PalatinoLinotype-Roman" font-size="10.0" fill="#7E7E7E" transform="matrix(1.00, 0.00, -0.00, -1.00, 655.9, 17.0)">o</text><text xml:space="preserve" font-family="PalatinoLinotype-Roman" font-size="10.0" fill="#7E7E7E" transform="matrix(1.00, 0.00, -0.00, -1.00, 661.3, 17.0)">p</text><text xml:space="preserve" font-family="PalatinoLinotype-Roman" font-size="10.0" fill="#7E7E7E" transform="matrix(1.00, 0.00, -0.00, -1.00, 667.3, 17.0)">m</text><text xml:space="preserve" font-family="PalatinoLinotype-Roman" font-size="10.0" fill="#7E7E7E" transform="matrix(1.00, 0.00, -0.00, -1.00, 676.2, 17.0)">e</text><text xml:space="preserve" font-family="PalatinoLinotype-Roman" font-size="10.0" fill="#7E7E7E" transform="matrix(1.00, 0.00, -0.00, -1.00, 680.9, 17.0)">n</text><text xml:space="preserve" font-family="PalatinoLinotype-Roman" font-size="10.0" fill="#7E7E7E" transform="matrix(1.00, 0.00, -0.00, -1.00, 686.8, 17.0)">t</text></g></svg>