<?xml version="1.0" encoding="UTF-8" standalone="no"?><svg xmlns="http://www.w3.org/2000/svg" xmlns:xlink="http://www.w3.org/1999/xlink" clip-rule="evenodd" stroke-miterlimit="4.00" viewBox="0 0 720 540"><desc>SVG generated by Keynote</desc><defs></defs><g transform="matrix(1.00, 0.00, -0.00, -1.00, 0.0, 540.0)"><g><clipPath id="clip-0"><path d="M 0.0 540.0 L 720.0 540.0 L 720.0 0.0 L 0.0 0.0 Z M 0.0 540.0 "></path></clipPath><g clip-path="url(#clip-0)"><image xlink:href="FBB8612FB975EB8CCDB12C37C765AF08.png" width="720.00" height="540.00" transform="matrix(1.00, 0.00, -0.00, -1.00, 0.0, 540.0)"></image></g></g><g><clipPath id="clip-1"><path d="M 0.0 540.0 L 720.0 540.0 L 720.0 0.0 L 0.0 0.0 Z M 0.0 540.0 "></path></clipPath><g clip-path="url(#clip-1)"><image xlink:href="7601BF848A1235B6B5A20445977AEE42.png" width="720.00" height="540.00" transform="matrix(1.00, 0.00, -0.00, 1.00, 0.0, 0.0)"></image></g></g><g><clipPath id="clip-2"><path d="M 483.0 474.0 C 623.7 456.7 697.6 335.1 647.9 202.3 C 598.3 69.6 444.0 -24.1 303.3 -6.9 C 162.6 10.4 88.8 132.0 138.4 264.8 C 188.1 397.5 342.3 491.2 483.0 474.0 Z M 483.0 474.0 "></path></clipPath><g clip-path="url(#clip-2)"><image xlink:href="BADFE6F353B7F5F8A00CE8CD81F8D3D6.png" width="570.00" height="541.00" transform="matrix(1.16, 0.71, -0.71, 1.16, 252.6, -271.0)"></image></g></g><g><clipPath id="clip-3"><path d="M 146.2 463.6 C 244.0 512.9 345.8 467.0 373.6 361.1 C 401.3 255.1 344.6 129.3 246.8 80.0 C 148.9 30.7 47.1 76.6 19.4 182.6 C -8.4 288.5 48.4 414.3 146.2 463.6 Z M 146.2 463.6 "></path></clipPath><g clip-path="url(#clip-3)"><image xlink:href="4FDB1B0E90AF8D3A2BED7188D138EB0A.png" width="580.00" height="541.00" transform="matrix(0.43, 0.95, -0.95, 0.43, 333.9, -120.5)"></image></g></g><g><clipPath id="clip-4"><path d="M 598.7 550.4 C 721.8 539.6 783.3 438.3 736.1 324.1 C 688.9 209.9 550.8 126.1 427.7 136.8 C 304.6 147.6 243.1 249.0 290.3 363.1 C 337.5 477.3 475.6 561.2 598.7 550.4 Z M 598.7 550.4 "></path></clipPath><g clip-path="url(#clip-4)"><image xlink:href="C6A1A72DB74EAFC4E8775A40D516143F.png" width="560.00" height="541.00" transform="matrix(0.95, 0.58, -0.58, 0.95, 371.5, -86.1)"></image></g></g><image xlink:href="48DA8A7D0381DA6125BBC71C81DA9BBE.png" width="23.00" height="66.00" transform="matrix(1.00, 0.00, -0.00, -1.00, 146.0, 275.0)"></image><text xml:space="preserve" font-family="PalatinoLinotype-Roman" font-size="66.0" fill="#FFFFFF" transform="matrix(1.00, 0.00, -0.00, -1.00, 144.0, 226.0)">{</text><text xml:space="preserve" font-family="PalatinoLinotype-Roman" font-size="13.0" fill="#9EABBE" transform="matrix(1.00, 0.00, -0.00, -1.00, 15.0, 20.0)">D</text><text xml:space="preserve" font-family="PalatinoLinotype-Roman" font-size="13.0" fill="#9EABBE" transform="matrix(1.00, 0.00, -0.00, -1.00, 25.1, 20.0)">a</text><text xml:space="preserve" font-family="PalatinoLinotype-Roman" font-size="13.0" fill="#9EABBE" transform="matrix(1.00, 0.00, -0.00, -1.00, 31.6, 20.0)">w</text><text xml:space="preserve" font-family="PalatinoLinotype-Roman" font-size="13.0" fill="#9EABBE" transform="matrix(1.00, 0.00, -0.00, -1.00, 42.4, 20.0)">n</text><text xml:space="preserve" font-family="PalatinoLinotype-Roman" font-size="13.0" fill="#9EABBE" transform="matrix(1.00, 0.00, -0.00, -1.00, 50.0, 20.0)"> </text><text xml:space="preserve" font-family="PalatinoLinotype-Roman" font-size="13.0" fill="#9EABBE" transform="matrix(1.00, 0.00, -0.00, -1.00, 53.2, 20.0)">C</text><text xml:space="preserve" font-family="PalatinoLinotype-Roman" font-size="13.0" fill="#9EABBE" transform="matrix(1.00, 0.00, -0.00, -1.00, 62.4, 20.0)">o</text><text xml:space="preserve" font-family="PalatinoLinotype-Roman" font-size="13.0" fill="#9EABBE" transform="matrix(1.00, 0.00, -0.00, -1.00, 69.5, 20.0)">d</text><text xml:space="preserve" font-family="PalatinoLinotype-Roman" font-size="13.0" fill="#9EABBE" transform="matrix(1.00, 0.00, -0.00, -1.00, 77.5, 20.0)">e</text><text xml:space="preserve" font-family="PalatinoLinotype-Roman" font-size="13.0" fill="#9EABBE" transform="matrix(1.00, 0.00, -0.00, -1.00, 83.7, 20.0)">,</text><text xml:space="preserve" font-family="PalatinoLinotype-Roman" font-size="13.0" fill="#9EABBE" transform="matrix(1.00, 0.00, -0.00, -1.00, 86.9, 20.0)"> </text><text xml:space="preserve" font-family="PalatinoLinotype-Roman" font-size="13.0" fill="#9EABBE" transform="matrix(1.00, 0.00, -0.00, -1.00, 90.2, 20.0)">T</text><text xml:space="preserve" font-family="PalatinoLinotype-Roman" font-size="13.0" fill="#9EABBE" transform="matrix(1.00, 0.00, -0.00, -1.00, 98.2, 20.0)">r</text><text xml:space="preserve" font-family="PalatinoLinotype-Roman" font-size="13.0" fill="#9EABBE" transform="matrix(1.00, 0.00, -0.00, -1.00, 103.3, 20.0)">i</text><text xml:space="preserve" font-family="PalatinoLinotype-Roman" font-size="13.0" fill="#9EABBE" transform="matrix(1.00, 0.00, -0.00, -1.00, 107.1, 20.0)">A</text><text xml:space="preserve" font-family="PalatinoLinotype-Roman" font-size="13.0" fill="#9EABBE" transform="matrix(1.00, 0.00, -0.00, -1.00, 117.2, 20.0)">g</text><text xml:space="preserve" font-family="PalatinoLinotype-Roman" font-size="13.0" fill="#9EABBE" transform="matrix(1.00, 0.00, -0.00, -1.00, 124.4, 20.0)">i</text><text xml:space="preserve" font-family="PalatinoLinotype-Roman" font-size="13.0" fill="#9EABBE" transform="matrix(1.00, 0.00, -0.00, -1.00, 128.2, 20.0)">l</text><text xml:space="preserve" font-family="PalatinoLinotype-Roman" font-size="13.0" fill="#9EABBE" transform="matrix(1.00, 0.00, -0.00, -1.00, 132.0, 20.0)">e</text><text xml:space="preserve" font-family="PalatinoLinotype-Roman" font-size="13.0" fill="#9EABBE" transform="matrix(1.00, 0.00, -0.00, -1.00, 138.2, 20.0)"> </text><text xml:space="preserve" font-family="PalatinoLinotype-Roman" font-size="13.0" fill="#9EABBE" transform="matrix(1.00, 0.00, -0.00, -1.00, 141.5, 20.0)">2</text><text xml:space="preserve" font-family="PalatinoLinotype-Roman" font-size="13.0" fill="#9EABBE" transform="matrix(1.00, 0.00, -0.00, -1.00, 148.0, 20.0)">0</text><text xml:space="preserve" font-family="PalatinoLinotype-Roman" font-size="13.0" fill="#9EABBE" transform="matrix(1.00, 0.00, -0.00, -1.00, 154.5, 20.0)">1</text><text xml:space="preserve" font-family="PalatinoLinotype-Roman" font-size="13.0" fill="#9EABBE" transform="matrix(1.00, 0.00, -0.00, -1.00, 161.0, 20.0)">6</text><image xlink:href="841CD0A9A99743194A1B9C620FA4B0CC.png" width="566.00" height="62.00" transform="matrix(1.00, 0.00, -0.00, -1.00, 65.0, 408.0)"></image><text xml:space="preserve" font-family="PalatinoLinotype-Roman" font-size="54.0" fill="#FFFFFF" transform="matrix(1.00, 0.00, -0.00, -1.00, 65.0, 367.0)">P</text><text xml:space="preserve" font-family="PalatinoLinotype-Roman" font-size="54.0" fill="#FFFFFF" transform="matrix(1.00, 0.00, -0.00, -1.00, 95.9, 367.0)">a</text><text xml:space="preserve" font-family="PalatinoLinotype-Roman" font-size="54.0" fill="#FFFFFF" transform="matrix(1.00, 0.00, -0.00, -1.00, 122.9, 367.0)">i</text><text xml:space="preserve" font-family="PalatinoLinotype-Roman" font-size="54.0" fill="#FFFFFF" transform="matrix(1.00, 0.00, -0.00, -1.00, 138.6, 367.0)">r</text><text xml:space="preserve" font-family="PalatinoLinotype-Roman" font-size="54.0" fill="#FFFFFF" transform="matrix(1.00, 0.00, -0.00, -1.00, 160.0, 367.0)"> </text><text xml:space="preserve" font-family="PalatinoLinotype-Roman" font-size="54.0" fill="#FFFFFF" transform="matrix(1.00, 0.00, -0.00, -1.00, 173.5, 367.0)">D</text><text xml:space="preserve" font-family="PalatinoLinotype-Roman" font-size="54.0" fill="#FFFFFF" transform="matrix(1.00, 0.00, -0.00, -1.00, 215.2, 367.0)">e</text><text xml:space="preserve" font-family="PalatinoLinotype-Roman" font-size="54.0" fill="#FFFFFF" transform="matrix(1.00, 0.00, -0.00, -1.00, 241.1, 367.0)">v</text><text xml:space="preserve" font-family="PalatinoLinotype-Roman" font-size="54.0" fill="#FFFFFF" transform="matrix(1.00, 0.00, -0.00, -1.00, 270.7, 367.0)">e</text><text xml:space="preserve" font-family="PalatinoLinotype-Roman" font-size="54.0" fill="#FFFFFF" transform="matrix(1.00, 0.00, -0.00, -1.00, 296.6, 367.0)">l</text><text xml:space="preserve" font-family="PalatinoLinotype-Roman" font-size="54.0" fill="#FFFFFF" transform="matrix(1.00, 0.00, -0.00, -1.00, 312.3, 367.0)">o</text><text xml:space="preserve" font-family="PalatinoLinotype-Roman" font-size="54.0" fill="#FFFFFF" transform="matrix(1.00, 0.00, -0.00, -1.00, 341.7, 367.0)">p</text><text xml:space="preserve" font-family="PalatinoLinotype-Roman" font-size="54.0" fill="#FFFFFF" transform="matrix(1.00, 0.00, -0.00, -1.00, 374.2, 367.0)">m</text><text xml:space="preserve" font-family="PalatinoLinotype-Roman" font-size="54.0" fill="#FFFFFF" transform="matrix(1.00, 0.00, -0.00, -1.00, 421.9, 367.0)">e</text><text xml:space="preserve" font-family="PalatinoLinotype-Roman" font-size="54.0" fill="#FFFFFF" transform="matrix(1.00, 0.00, -0.00, -1.00, 447.7, 367.0)">n</text><text xml:space="preserve" font-family="PalatinoLinotype-Roman" font-size="54.0" fill="#FFFFFF" transform="matrix(1.00, 0.00, -0.00, -1.00, 479.2, 367.0)">t</text><text xml:space="preserve" font-family="PalatinoLinotype-Roman" font-size="54.0" fill="#FFFFFF" transform="matrix(1.00, 0.00, -0.00, -1.00, 496.8, 367.0)"> </text><text xml:space="preserve" font-family="PalatinoLinotype-Roman" font-size="54.0" fill="#FFFFFF" transform="matrix(1.00, 0.00, -0.00, -1.00, 510.3, 367.0)">f</text><text xml:space="preserve" font-family="PalatinoLinotype-Roman" font-size="54.0" fill="#FFFFFF" transform="matrix(1.00, 0.00, -0.00, -1.00, 528.3, 367.0)">r</text><text xml:space="preserve" font-family="PalatinoLinotype-Roman" font-size="54.0" fill="#FFFFFF" transform="matrix(1.00, 0.00, -0.00, -1.00, 549.6, 367.0)">o</text><text xml:space="preserve" font-family="PalatinoLinotype-Roman" font-size="54.0" fill="#FFFFFF" transform="matrix(1.00, 0.00, -0.00, -1.00, 579.1, 367.0)">m</text><text xml:space="preserve" font-family="PalatinoLinotype-Roman" font-size="54.0" fill="#FFFFFF" transform="matrix(1.00, 0.00, -0.00, -1.00, 626.7, 367.0)"> </text><image xlink:href="58803B0A4094817564B486AEE2BC6610.png" width="308.00" height="47.00" transform="matrix(1.00, 0.00, -0.00, -1.00, 65.0, 335.0)"></image><g><clipPath id="clip-5"><path d="M 45.7 277.6 L 674.9 277.6 L 674.9 536.4 L 45.7 536.4 Z M 45.7 277.6 "></path></clipPath><g clip-path="url(#clip-5)"><text xml:space="preserve" font-family="PalatinoLinotype-Roman" font-size="54.0" fill="#FFFFFF" transform="matrix(1.00, 0.00, -0.00, -1.00, 65.0, 294.0)">t</text><text xml:space="preserve" font-family="PalatinoLinotype-Roman" font-size="54.0" fill="#FFFFFF" transform="matrix(1.00, 0.00, -0.00, -1.00, 82.6, 294.0)">h</text><text xml:space="preserve" font-family="PalatinoLinotype-Roman" font-size="54.0" fill="#FFFFFF" transform="matrix(1.00, 0.00, -0.00, -1.00, 114.1, 294.0)">e</text><text xml:space="preserve" font-family="PalatinoLinotype-Roman" font-size="54.0" fill="#FFFFFF" transform="matrix(1.00, 0.00, -0.00, -1.00, 139.9, 294.0)"> </text><text xml:space="preserve" font-family="PalatinoLinotype-Roman" font-size="54.0" fill="#FFFFFF" transform="matrix(1.00, 0.00, -0.00, -1.00, 153.4, 294.0)">T</text><text xml:space="preserve" font-family="PalatinoLinotype-Roman" font-size="54.0" fill="#FFFFFF" transform="matrix(1.00, 0.00, -0.00, -1.00, 186.5, 294.0)">r</text><text xml:space="preserve" font-family="PalatinoLinotype-Roman" font-size="54.0" fill="#FFFFFF" transform="matrix(1.00, 0.00, -0.00, -1.00, 207.8, 294.0)">e</text><text xml:space="preserve" font-family="PalatinoLinotype-Roman" font-size="54.0" fill="#FFFFFF" transform="matrix(1.00, 0.00, -0.00, -1.00, 233.7, 294.0)">n</text><text xml:space="preserve" font-family="PalatinoLinotype-Roman" font-size="54.0" fill="#FFFFFF" transform="matrix(1.00, 0.00, -0.00, -1.00, 265.1, 294.0)">c</text><text xml:space="preserve" font-family="PalatinoLinotype-Roman" font-size="54.0" fill="#FFFFFF" transform="matrix(1.00, 0.00, -0.00, -1.00, 289.1, 294.0)">h</text><text xml:space="preserve" font-family="PalatinoLinotype-Roman" font-size="54.0" fill="#FFFFFF" transform="matrix(1.00, 0.00, -0.00, -1.00, 320.5, 294.0)">e</text><text xml:space="preserve" font-family="PalatinoLinotype-Roman" font-size="54.0" fill="#FFFFFF" transform="matrix(1.00, 0.00, -0.00, -1.00, 346.4, 294.0)">s</text></g></g><image xlink:href="8FB1AAFA269A34556A9F9131F2BD979A.png" width="252.00" height="23.00" transform="matrix(1.00, 0.00, -0.00, -1.00, 171.0, 246.0)"></image><g><clipPath id="clip-6"><path d="M 163.6 223.1 L 662.6 223.1 L 662.6 270.9 L 163.6 270.9 Z M 163.6 223.1 "></path></clipPath><g clip-path="url(#clip-6)"><text xml:space="preserve" font-family="PalatinoLinotype-Roman" font-size="21.0" fill="#FFFFFF" transform="matrix(1.00, 0.00, -0.00, -1.00, 172.0, 229.0)">D</text><text xml:space="preserve" font-family="PalatinoLinotype-Roman" font-size="21.0" fill="#FFFFFF" transform="matrix(1.00, 0.00, -0.00, -1.00, 188.3, 229.0)">a</text><text xml:space="preserve" font-family="PalatinoLinotype-Roman" font-size="21.0" fill="#FFFFFF" transform="matrix(1.00, 0.00, -0.00, -1.00, 198.8, 229.0)">w</text><text xml:space="preserve" font-family="PalatinoLinotype-Roman" font-size="21.0" fill="#FFFFFF" transform="matrix(1.00, 0.00, -0.00, -1.00, 216.3, 229.0)">n</text><text xml:space="preserve" font-family="PalatinoLinotype-Roman" font-size="21.0" fill="#FFFFFF" transform="matrix(1.00, 0.00, -0.00, -1.00, 228.5, 229.0)"> </text><text xml:space="preserve" font-family="PalatinoLinotype-Roman" font-size="21.0" fill="#FFFFFF" transform="matrix(1.00, 0.00, -0.00, -1.00, 233.7, 229.0)">C</text><text xml:space="preserve" font-family="PalatinoLinotype-Roman" font-size="21.0" fill="#FFFFFF" transform="matrix(1.00, 0.00, -0.00, -1.00, 248.6, 229.0)">o</text><text xml:space="preserve" font-family="PalatinoLinotype-Roman" font-size="21.0" fill="#FFFFFF" transform="matrix(1.00, 0.00, -0.00, -1.00, 260.1, 229.0)">d</text><text xml:space="preserve" font-family="PalatinoLinotype-Roman" font-size="21.0" fill="#FFFFFF" transform="matrix(1.00, 0.00, -0.00, -1.00, 272.9, 229.0)">e</text><text xml:space="preserve" font-family="PalatinoLinotype-Roman" font-size="21.0" fill="#FFFFFF" transform="matrix(1.00, 0.00, -0.00, -1.00, 283.0, 229.0)">,</text><text xml:space="preserve" font-family="PalatinoLinotype-Roman" font-size="21.0" fill="#FFFFFF" transform="matrix(1.00, 0.00, -0.00, -1.00, 288.2, 229.0)"> </text><text xml:space="preserve" font-family="PalatinoLinotype-Roman" font-size="21.0" fill="#FFFFFF" transform="matrix(1.00, 0.00, -0.00, -1.00, 293.5, 229.0)">T</text><text xml:space="preserve" font-family="PalatinoLinotype-Roman" font-size="21.0" fill="#FFFFFF" transform="matrix(1.00, 0.00, -0.00, -1.00, 306.3, 229.0)">r</text><text xml:space="preserve" font-family="PalatinoLinotype-Roman" font-size="21.0" fill="#FFFFFF" transform="matrix(1.00, 0.00, -0.00, -1.00, 314.6, 229.0)">i</text><text xml:space="preserve" font-family="PalatinoLinotype-Roman" font-size="21.0" fill="#FFFFFF" transform="matrix(1.00, 0.00, -0.00, -1.00, 320.7, 229.0)">A</text><text xml:space="preserve" font-family="PalatinoLinotype-Roman" font-size="21.0" fill="#FFFFFF" transform="matrix(1.00, 0.00, -0.00, -1.00, 337.1, 229.0)">g</text><text xml:space="preserve" font-family="PalatinoLinotype-Roman" font-size="21.0" fill="#FFFFFF" transform="matrix(1.00, 0.00, -0.00, -1.00, 348.8, 229.0)">i</text><text xml:space="preserve" font-family="PalatinoLinotype-Roman" font-size="21.0" fill="#FFFFFF" transform="matrix(1.00, 0.00, -0.00, -1.00, 354.9, 229.0)">l</text><text xml:space="preserve" font-family="PalatinoLinotype-Roman" font-size="21.0" fill="#FFFFFF" transform="matrix(1.00, 0.00, -0.00, -1.00, 361.0, 229.0)">e</text><text xml:space="preserve" font-family="PalatinoLinotype-Roman" font-size="21.0" fill="#FFFFFF" transform="matrix(1.00, 0.00, -0.00, -1.00, 371.0, 229.0)"> </text><text xml:space="preserve" font-family="PalatinoLinotype-Roman" font-size="21.0" fill="#FFFFFF" transform="matrix(1.00, 0.00, -0.00, -1.00, 376.3, 229.0)">2</text><text xml:space="preserve" font-family="PalatinoLinotype-Roman" font-size="21.0" fill="#FFFFFF" transform="matrix(1.00, 0.00, -0.00, -1.00, 386.8, 229.0)">0</text><text xml:space="preserve" font-family="PalatinoLinotype-Roman" font-size="21.0" fill="#FFFFFF" transform="matrix(1.00, 0.00, -0.00, -1.00, 397.3, 229.0)">1</text><text xml:space="preserve" font-family="PalatinoLinotype-Roman" font-size="21.0" fill="#FFFFFF" transform="matrix(1.00, 0.00, -0.00, -1.00, 407.8, 229.0)">6</text></g></g></g></svg>