<?xml version="1.0" encoding="UTF-8" standalone="no"?><svg xmlns="http://www.w3.org/2000/svg" xmlns:xlink="http://www.w3.org/1999/xlink" clip-rule="evenodd" stroke-miterlimit="4.00" viewBox="0 0 720 540"><desc>SVG generated by Keynote</desc><defs></defs><g transform="matrix(1.00, 0.00, -0.00, -1.00, 0.0, 540.0)"><g><clipPath id="clip-58"><path d="M 0.0 540.0 L 720.0 540.0 L 720.0 0.0 L 0.0 0.0 Z M 0.0 540.0 "></path></clipPath><g clip-path="url(#clip-58)"><image xlink:href="../../50284B37-CCEE-4A85-B7F1-B37C6F61AD00/assets/FBB8612FB975EB8CCDB12C37C765AF08.png" width="720.00" height="540.00" transform="matrix(1.00, 0.00, -0.00, -1.00, 0.0, 540.0)"></image></g></g><g><clipPath id="clip-59"><path d="M 0.0 540.0 L 720.0 540.0 L 720.0 0.0 L 0.0 0.0 Z M 0.0 540.0 "></path></clipPath><g clip-path="url(#clip-59)"><image xlink:href="../../50284B37-CCEE-4A85-B7F1-B37C6F61AD00/assets/7601BF848A1235B6B5A20445977AEE42.png" width="720.00" height="540.00" transform="matrix(1.00, 0.00, -0.00, 1.00, 0.0, 0.0)"></image></g></g><g><clipPath id="clip-60"><path d="M 483.0 474.0 C 623.7 456.7 697.6 335.1 647.9 202.3 C 598.3 69.6 444.0 -24.1 303.3 -6.9 C 162.6 10.4 88.8 132.0 138.4 264.8 C 188.1 397.5 342.3 491.2 483.0 474.0 Z M 483.0 474.0 "></path></clipPath><g clip-path="url(#clip-60)"><image xlink:href="../../50284B37-CCEE-4A85-B7F1-B37C6F61AD00/assets/BADFE6F353B7F5F8A00CE8CD81F8D3D6.png" width="570.00" height="541.00" transform="matrix(1.16, 0.71, -0.71, 1.16, 252.6, -271.0)"></image></g></g><g><clipPath id="clip-61"><path d="M 146.2 463.6 C 244.0 512.9 345.8 467.0 373.6 361.1 C 401.3 255.1 344.6 129.3 246.8 80.0 C 148.9 30.7 47.1 76.6 19.4 182.6 C -8.4 288.5 48.4 414.3 146.2 463.6 Z M 146.2 463.6 "></path></clipPath><g clip-path="url(#clip-61)"><image xlink:href="../../50284B37-CCEE-4A85-B7F1-B37C6F61AD00/assets/4FDB1B0E90AF8D3A2BED7188D138EB0A.png" width="580.00" height="541.00" transform="matrix(0.43, 0.95, -0.95, 0.43, 333.9, -120.5)"></image></g></g><g><clipPath id="clip-62"><path d="M 598.7 550.4 C 721.8 539.6 783.3 438.3 736.1 324.1 C 688.9 209.9 550.8 126.1 427.7 136.8 C 304.6 147.6 243.1 249.0 290.3 363.1 C 337.5 477.3 475.6 561.2 598.7 550.4 Z M 598.7 550.4 "></path></clipPath><g clip-path="url(#clip-62)"><image xlink:href="../../50284B37-CCEE-4A85-B7F1-B37C6F61AD00/assets/C6A1A72DB74EAFC4E8775A40D516143F.png" width="560.00" height="541.00" transform="matrix(0.95, 0.58, -0.58, 0.95, 371.5, -86.1)"></image></g></g><text xml:space="preserve" font-family="PalatinoLinotype-Roman" font-size="13.0" fill="#9EABBE" transform="matrix(1.00, 0.00, -0.00, -1.00, 15.0, 20.0)">D</text><text xml:space="preserve" font-family="PalatinoLinotype-Roman" font-size="13.0" fill="#9EABBE" transform="matrix(1.00, 0.00, -0.00, -1.00, 25.1, 20.0)">a</text><text xml:space="preserve" font-family="PalatinoLinotype-Roman" font-size="13.0" fill="#9EABBE" transform="matrix(1.00, 0.00, -0.00, -1.00, 31.6, 20.0)">w</text><text xml:space="preserve" font-family="PalatinoLinotype-Roman" font-size="13.0" fill="#9EABBE" transform="matrix(1.00, 0.00, -0.00, -1.00, 42.4, 20.0)">n</text><text xml:space="preserve" font-family="PalatinoLinotype-Roman" font-size="13.0" fill="#9EABBE" transform="matrix(1.00, 0.00, -0.00, -1.00, 50.0, 20.0)"> </text><text xml:space="preserve" font-family="PalatinoLinotype-Roman" font-size="13.0" fill="#9EABBE" transform="matrix(1.00, 0.00, -0.00, -1.00, 53.2, 20.0)">C</text><text xml:space="preserve" font-family="PalatinoLinotype-Roman" font-size="13.0" fill="#9EABBE" transform="matrix(1.00, 0.00, -0.00, -1.00, 62.4, 20.0)">o</text><text xml:space="preserve" font-family="PalatinoLinotype-Roman" font-size="13.0" fill="#9EABBE" transform="matrix(1.00, 0.00, -0.00, -1.00, 69.5, 20.0)">d</text><text xml:space="preserve" font-family="PalatinoLinotype-Roman" font-size="13.0" fill="#9EABBE" transform="matrix(1.00, 0.00, -0.00, -1.00, 77.5, 20.0)">e</text><text xml:space="preserve" font-family="PalatinoLinotype-Roman" font-size="13.0" fill="#9EABBE" transform="matrix(1.00, 0.00, -0.00, -1.00, 83.7, 20.0)">,</text><text xml:space="preserve" font-family="PalatinoLinotype-Roman" font-size="13.0" fill="#9EABBE" transform="matrix(1.00, 0.00, -0.00, -1.00, 86.9, 20.0)"> </text><text xml:space="preserve" font-family="PalatinoLinotype-Roman" font-size="13.0" fill="#9EABBE" transform="matrix(1.00, 0.00, -0.00, -1.00, 90.2, 20.0)">T</text><text xml:space="preserve" font-family="PalatinoLinotype-Roman" font-size="13.0" fill="#9EABBE" transform="matrix(1.00, 0.00, -0.00, -1.00, 98.2, 20.0)">r</text><text xml:space="preserve" font-family="PalatinoLinotype-Roman" font-size="13.0" fill="#9EABBE" transform="matrix(1.00, 0.00, -0.00, -1.00, 103.3, 20.0)">i</text><text xml:space="preserve" font-family="PalatinoLinotype-Roman" font-size="13.0" fill="#9EABBE" transform="matrix(1.00, 0.00, -0.00, -1.00, 107.1, 20.0)">A</text><text xml:space="preserve" font-family="PalatinoLinotype-Roman" font-size="13.0" fill="#9EABBE" transform="matrix(1.00, 0.00, -0.00, -1.00, 117.2, 20.0)">g</text><text xml:space="preserve" font-family="PalatinoLinotype-Roman" font-size="13.0" fill="#9EABBE" transform="matrix(1.00, 0.00, -0.00, -1.00, 124.4, 20.0)">i</text><text xml:space="preserve" font-family="PalatinoLinotype-Roman" font-size="13.0" fill="#9EABBE" transform="matrix(1.00, 0.00, -0.00, -1.00, 128.2, 20.0)">l</text><text xml:space="preserve" font-family="PalatinoLinotype-Roman" font-size="13.0" fill="#9EABBE" transform="matrix(1.00, 0.00, -0.00, -1.00, 132.0, 20.0)">e</text><text xml:space="preserve" font-family="PalatinoLinotype-Roman" font-size="13.0" fill="#9EABBE" transform="matrix(1.00, 0.00, -0.00, -1.00, 138.2, 20.0)"> </text><text xml:space="preserve" font-family="PalatinoLinotype-Roman" font-size="13.0" fill="#9EABBE" transform="matrix(1.00, 0.00, -0.00, -1.00, 141.5, 20.0)">2</text><text xml:space="preserve" font-family="PalatinoLinotype-Roman" font-size="13.0" fill="#9EABBE" transform="matrix(1.00, 0.00, -0.00, -1.00, 148.0, 20.0)">0</text><text xml:space="preserve" font-family="PalatinoLinotype-Roman" font-size="13.0" fill="#9EABBE" transform="matrix(1.00, 0.00, -0.00, -1.00, 154.5, 20.0)">1</text><text xml:space="preserve" font-family="PalatinoLinotype-Roman" font-size="13.0" fill="#9EABBE" transform="matrix(1.00, 0.00, -0.00, -1.00, 161.0, 20.0)">6</text><g><clipPath id="clip-63"><path d="M 168.0 486.0 L 648.0 486.0 L 648.0 198.0 L 168.0 198.0 Z M 168.0 486.0 "></path></clipPath><g clip-path="url(#clip-63)"><image xlink:href="../../5249EE0D-19D4-4C11-B6A6-4A26E1131405/assets/78B1AA667D614920E58E7D24403CF9C6.jpeg" width="400.00" height="267.00" transform="matrix(1.20, 0.00, -0.00, -1.20, 168.0, 502.0)"></image></g></g><image xlink:href="../../5249EE0D-19D4-4C11-B6A6-4A26E1131405/assets/B27EB0BF04AECD38F5297CD2A6C3118F.png" width="377.00" height="50.00" transform="matrix(1.00, 0.00, -0.00, -1.00, 65.0, 138.0)"></image><text xml:space="preserve" font-family="PalatinoLinotype-Roman" font-size="43.2" fill="#FFFFFF" transform="matrix(1.00, 0.00, -0.00, -1.00, 65.0, 106.0)">P</text><text xml:space="preserve" font-family="PalatinoLinotype-Roman" font-size="43.2" fill="#FFFFFF" transform="matrix(1.00, 0.00, -0.00, -1.00, 89.7, 106.0)">a</text><text xml:space="preserve" font-family="PalatinoLinotype-Roman" font-size="43.2" fill="#FFFFFF" transform="matrix(1.00, 0.00, -0.00, -1.00, 111.3, 106.0)">i</text><text xml:space="preserve" font-family="PalatinoLinotype-Roman" font-size="43.2" fill="#FFFFFF" transform="matrix(1.00, 0.00, -0.00, -1.00, 123.9, 106.0)">r</text><text xml:space="preserve" font-family="PalatinoLinotype-Roman" font-size="43.2" fill="#FFFFFF" transform="matrix(1.00, 0.00, -0.00, -1.00, 141.0, 106.0)"> </text><text xml:space="preserve" font-family="PalatinoLinotype-Roman" font-size="43.2" fill="#FFFFFF" transform="matrix(1.00, 0.00, -0.00, -1.00, 151.8, 106.0)">P</text><text xml:space="preserve" font-family="PalatinoLinotype-Roman" font-size="43.2" fill="#FFFFFF" transform="matrix(1.00, 0.00, -0.00, -1.00, 177.9, 106.0)">r</text><text xml:space="preserve" font-family="PalatinoLinotype-Roman" font-size="43.2" fill="#FFFFFF" transform="matrix(1.00, 0.00, -0.00, -1.00, 194.9, 106.0)">o</text><text xml:space="preserve" font-family="PalatinoLinotype-Roman" font-size="43.2" fill="#FFFFFF" transform="matrix(1.00, 0.00, -0.00, -1.00, 218.5, 106.0)">g</text><text xml:space="preserve" font-family="PalatinoLinotype-Roman" font-size="43.2" fill="#FFFFFF" transform="matrix(1.00, 0.00, -0.00, -1.00, 242.5, 106.0)">r</text><text xml:space="preserve" font-family="PalatinoLinotype-Roman" font-size="43.2" fill="#FFFFFF" transform="matrix(1.00, 0.00, -0.00, -1.00, 259.6, 106.0)">a</text><text xml:space="preserve" font-family="PalatinoLinotype-Roman" font-size="43.2" fill="#FFFFFF" transform="matrix(1.00, 0.00, -0.00, -1.00, 281.2, 106.0)">m</text><text xml:space="preserve" font-family="PalatinoLinotype-Roman" font-size="43.2" fill="#FFFFFF" transform="matrix(1.00, 0.00, -0.00, -1.00, 319.3, 106.0)">m</text><text xml:space="preserve" font-family="PalatinoLinotype-Roman" font-size="43.2" fill="#FFFFFF" transform="matrix(1.00, 0.00, -0.00, -1.00, 357.5, 106.0)">i</text><text xml:space="preserve" font-family="PalatinoLinotype-Roman" font-size="43.2" fill="#FFFFFF" transform="matrix(1.00, 0.00, -0.00, -1.00, 370.0, 106.0)">n</text><text xml:space="preserve" font-family="PalatinoLinotype-Roman" font-size="43.2" fill="#FFFFFF" transform="matrix(1.00, 0.00, -0.00, -1.00, 395.2, 106.0)">g</text><text xml:space="preserve" font-family="PalatinoLinotype-Roman" font-size="43.2" fill="#FFFFFF" transform="matrix(1.00, 0.00, -0.00, -1.00, 419.2, 106.0)">?</text><image xlink:href="../../5249EE0D-19D4-4C11-B6A6-4A26E1131405/assets/F8F6D2DEACA43262C9BCA8B153BDE3E9.png" width="162.00" height="43.00" transform="matrix(1.00, 0.00, -0.00, -1.00, 449.0, 137.0)"></image><text xml:space="preserve" font-family="PalatinoLinotype-Roman" font-size="43.2" fill="#FFFFFF" transform="matrix(1.00, 0.00, -0.00, -1.00, 438.4, 106.0)"> </text><text xml:space="preserve" font-family="PalatinoLinotype-Roman" font-size="43.2" fill="#FFFFFF" transform="matrix(1.00, 0.00, -0.00, -1.00, 449.2, 106.0)">N</text><text xml:space="preserve" font-family="PalatinoLinotype-Roman" font-size="43.2" fill="#FFFFFF" transform="matrix(1.00, 0.00, -0.00, -1.00, 485.1, 106.0)">o</text><text xml:space="preserve" font-family="PalatinoLinotype-Roman" font-size="43.2" fill="#FFFFFF" transform="matrix(1.00, 0.00, -0.00, -1.00, 508.7, 106.0)">,</text><text xml:space="preserve" font-family="PalatinoLinotype-Roman" font-size="43.2" fill="#FFFFFF" transform="matrix(1.00, 0.00, -0.00, -1.00, 519.5, 106.0)"> </text><text xml:space="preserve" font-family="PalatinoLinotype-Roman" font-size="43.2" fill="#FFFFFF" transform="matrix(1.00, 0.00, -0.00, -1.00, 530.3, 106.0)">P</text><text xml:space="preserve" font-family="PalatinoLinotype-Roman" font-size="43.2" fill="#FFFFFF" transform="matrix(1.00, 0.00, -0.00, -1.00, 555.0, 106.0)">a</text><text xml:space="preserve" font-family="PalatinoLinotype-Roman" font-size="43.2" fill="#FFFFFF" transform="matrix(1.00, 0.00, -0.00, -1.00, 576.6, 106.0)">i</text><text xml:space="preserve" font-family="PalatinoLinotype-Roman" font-size="43.2" fill="#FFFFFF" transform="matrix(1.00, 0.00, -0.00, -1.00, 589.2, 106.0)">r</text><text xml:space="preserve" font-family="PalatinoLinotype-Roman" font-size="43.2" fill="#FFFFFF" transform="matrix(1.00, 0.00, -0.00, -1.00, 606.2, 106.0)"> </text><image xlink:href="../../5249EE0D-19D4-4C11-B6A6-4A26E1131405/assets/EED275583DA399EBA3E547A604CBB24A.png" width="273.00" height="46.00" transform="matrix(1.00, 0.00, -0.00, -1.00, 64.0, 81.0)"></image><g><clipPath id="clip-64"><path d="M 49.4 35.6 L 671.3 35.6 L 671.3 152.4 L 49.4 152.4 Z M 49.4 35.6 "></path></clipPath><g clip-path="url(#clip-64)"><text xml:space="preserve" font-family="PalatinoLinotype-Roman" font-size="43.2" fill="#FFFFFF" transform="matrix(1.00, 0.00, -0.00, -1.00, 65.0, 48.0)">D</text><text xml:space="preserve" font-family="PalatinoLinotype-Roman" font-size="43.2" fill="#FFFFFF" transform="matrix(1.00, 0.00, -0.00, -1.00, 98.4, 48.0)">e</text><text xml:space="preserve" font-family="PalatinoLinotype-Roman" font-size="43.2" fill="#FFFFFF" transform="matrix(1.00, 0.00, -0.00, -1.00, 119.1, 48.0)">v</text><text xml:space="preserve" font-family="PalatinoLinotype-Roman" font-size="43.2" fill="#FFFFFF" transform="matrix(1.00, 0.00, -0.00, -1.00, 142.8, 48.0)">e</text><text xml:space="preserve" font-family="PalatinoLinotype-Roman" font-size="43.2" fill="#FFFFFF" transform="matrix(1.00, 0.00, -0.00, -1.00, 163.5, 48.0)">l</text><text xml:space="preserve" font-family="PalatinoLinotype-Roman" font-size="43.2" fill="#FFFFFF" transform="matrix(1.00, 0.00, -0.00, -1.00, 176.1, 48.0)">o</text><text xml:space="preserve" font-family="PalatinoLinotype-Roman" font-size="43.2" fill="#FFFFFF" transform="matrix(1.00, 0.00, -0.00, -1.00, 199.6, 48.0)">p</text><text xml:space="preserve" font-family="PalatinoLinotype-Roman" font-size="43.2" fill="#FFFFFF" transform="matrix(1.00, 0.00, -0.00, -1.00, 225.6, 48.0)">m</text><text xml:space="preserve" font-family="PalatinoLinotype-Roman" font-size="43.2" fill="#FFFFFF" transform="matrix(1.00, 0.00, -0.00, -1.00, 263.7, 48.0)">e</text><text xml:space="preserve" font-family="PalatinoLinotype-Roman" font-size="43.2" fill="#FFFFFF" transform="matrix(1.00, 0.00, -0.00, -1.00, 284.4, 48.0)">n</text><text xml:space="preserve" font-family="PalatinoLinotype-Roman" font-size="43.2" fill="#FFFFFF" transform="matrix(1.00, 0.00, -0.00, -1.00, 309.6, 48.0)">t</text><text xml:space="preserve" font-family="PalatinoLinotype-Roman" font-size="43.2" fill="#FFFFFF" transform="matrix(1.00, 0.00, -0.00, -1.00, 323.7, 48.0)">!</text></g></g><text xml:space="preserve" font-family="PalatinoLinotype-Roman" font-size="10.0" fill="#7F7F7F" transform="matrix(1.00, 0.00, -0.00, -1.00, 305.0, 15.0)">h</text><text xml:space="preserve" font-family="PalatinoLinotype-Roman" font-size="10.0" fill="#7F7F7F" transform="matrix(1.00, 0.00, -0.00, -1.00, 310.8, 15.0)">t</text><text xml:space="preserve" font-family="PalatinoLinotype-Roman" font-size="10.0" fill="#7F7F7F" transform="matrix(1.00, 0.00, -0.00, -1.00, 314.1, 15.0)">t</text><text xml:space="preserve" font-family="PalatinoLinotype-Roman" font-size="10.0" fill="#7F7F7F" transform="matrix(1.00, 0.00, -0.00, -1.00, 317.3, 15.0)">p</text><text xml:space="preserve" font-family="PalatinoLinotype-Roman" font-size="10.0" fill="#7F7F7F" transform="matrix(1.00, 0.00, -0.00, -1.00, 323.4, 15.0)">s</text><text xml:space="preserve" font-family="PalatinoLinotype-Roman" font-size="10.0" fill="#7F7F7F" transform="matrix(1.00, 0.00, -0.00, -1.00, 327.6, 15.0)">:</text><text xml:space="preserve" font-family="PalatinoLinotype-Roman" font-size="10.0" fill="#7F7F7F" transform="matrix(1.00, 0.00, -0.00, -1.00, 330.1, 15.0)">/</text><text xml:space="preserve" font-family="PalatinoLinotype-Roman" font-size="10.0" fill="#7F7F7F" transform="matrix(1.00, 0.00, -0.00, -1.00, 333.3, 15.0)">/</text><text xml:space="preserve" font-family="PalatinoLinotype-Roman" font-size="10.0" fill="#7F7F7F" transform="matrix(1.00, 0.00, -0.00, -1.00, 336.5, 15.0)">d</text><text xml:space="preserve" font-family="PalatinoLinotype-Roman" font-size="10.0" fill="#7F7F7F" transform="matrix(1.00, 0.00, -0.00, -1.00, 342.6, 15.0)">e</text><text xml:space="preserve" font-family="PalatinoLinotype-Roman" font-size="10.0" fill="#7F7F7F" transform="matrix(1.00, 0.00, -0.00, -1.00, 347.4, 15.0)">v</text><text xml:space="preserve" font-family="PalatinoLinotype-Roman" font-size="10.0" fill="#7F7F7F" transform="matrix(1.00, 0.00, -0.00, -1.00, 352.9, 15.0)">e</text><text xml:space="preserve" font-family="PalatinoLinotype-Roman" font-size="10.0" fill="#7F7F7F" transform="matrix(1.00, 0.00, -0.00, -1.00, 357.7, 15.0)">l</text><text xml:space="preserve" font-family="PalatinoLinotype-Roman" font-size="10.0" fill="#7F7F7F" transform="matrix(1.00, 0.00, -0.00, -1.00, 360.6, 15.0)">o</text><text xml:space="preserve" font-family="PalatinoLinotype-Roman" font-size="10.0" fill="#7F7F7F" transform="matrix(1.00, 0.00, -0.00, -1.00, 366.0, 15.0)">p</text><text xml:space="preserve" font-family="PalatinoLinotype-Roman" font-size="10.0" fill="#7F7F7F" transform="matrix(1.00, 0.00, -0.00, -1.00, 372.1, 15.0)">e</text><text xml:space="preserve" font-family="PalatinoLinotype-Roman" font-size="10.0" fill="#7F7F7F" transform="matrix(1.00, 0.00, -0.00, -1.00, 376.8, 15.0)">r</text><text xml:space="preserve" font-family="PalatinoLinotype-Roman" font-size="10.0" fill="#7F7F7F" transform="matrix(1.00, 0.00, -0.00, -1.00, 380.8, 15.0)">.</text><text xml:space="preserve" font-family="PalatinoLinotype-Roman" font-size="10.0" fill="#7F7F7F" transform="matrix(1.00, 0.00, -0.00, -1.00, 383.3, 15.0)">a</text><text xml:space="preserve" font-family="PalatinoLinotype-Roman" font-size="10.0" fill="#7F7F7F" transform="matrix(1.00, 0.00, -0.00, -1.00, 388.3, 15.0)">t</text><text xml:space="preserve" font-family="PalatinoLinotype-Roman" font-size="10.0" fill="#7F7F7F" transform="matrix(1.00, 0.00, -0.00, -1.00, 391.6, 15.0)">l</text><text xml:space="preserve" font-family="PalatinoLinotype-Roman" font-size="10.0" fill="#7F7F7F" transform="matrix(1.00, 0.00, -0.00, -1.00, 394.5, 15.0)">a</text><text xml:space="preserve" font-family="PalatinoLinotype-Roman" font-size="10.0" fill="#7F7F7F" transform="matrix(1.00, 0.00, -0.00, -1.00, 399.5, 15.0)">s</text><text xml:space="preserve" font-family="PalatinoLinotype-Roman" font-size="10.0" fill="#7F7F7F" transform="matrix(1.00, 0.00, -0.00, -1.00, 403.7, 15.0)">s</text><text xml:space="preserve" font-family="PalatinoLinotype-Roman" font-size="10.0" fill="#7F7F7F" transform="matrix(1.00, 0.00, -0.00, -1.00, 407.9, 15.0)">i</text><text xml:space="preserve" font-family="PalatinoLinotype-Roman" font-size="10.0" fill="#7F7F7F" transform="matrix(1.00, 0.00, -0.00, -1.00, 410.8, 15.0)">a</text><text xml:space="preserve" font-family="PalatinoLinotype-Roman" font-size="10.0" fill="#7F7F7F" transform="matrix(1.00, 0.00, -0.00, -1.00, 415.8, 15.0)">n</text><text xml:space="preserve" font-family="PalatinoLinotype-Roman" font-size="10.0" fill="#7F7F7F" transform="matrix(1.00, 0.00, -0.00, -1.00, 421.7, 15.0)">.</text><text xml:space="preserve" font-family="PalatinoLinotype-Roman" font-size="10.0" fill="#7F7F7F" transform="matrix(1.00, 0.00, -0.00, -1.00, 424.2, 15.0)">c</text><text xml:space="preserve" font-family="PalatinoLinotype-Roman" font-size="10.0" fill="#7F7F7F" transform="matrix(1.00, 0.00, -0.00, -1.00, 428.6, 15.0)">o</text><text xml:space="preserve" font-family="PalatinoLinotype-Roman" font-size="10.0" fill="#7F7F7F" transform="matrix(1.00, 0.00, -0.00, -1.00, 434.1, 15.0)">m</text><text xml:space="preserve" font-family="PalatinoLinotype-Roman" font-size="10.0" fill="#7F7F7F" transform="matrix(1.00, 0.00, -0.00, -1.00, 442.9, 15.0)">/</text><text xml:space="preserve" font-family="PalatinoLinotype-Roman" font-size="10.0" fill="#7F7F7F" transform="matrix(1.00, 0.00, -0.00, -1.00, 446.1, 15.0)">b</text><text xml:space="preserve" font-family="PalatinoLinotype-Roman" font-size="10.0" fill="#7F7F7F" transform="matrix(1.00, 0.00, -0.00, -1.00, 451.6, 15.0)">l</text><text xml:space="preserve" font-family="PalatinoLinotype-Roman" font-size="10.0" fill="#7F7F7F" transform="matrix(1.00, 0.00, -0.00, -1.00, 454.5, 15.0)">o</text><text xml:space="preserve" font-family="PalatinoLinotype-Roman" font-size="10.0" fill="#7F7F7F" transform="matrix(1.00, 0.00, -0.00, -1.00, 460.0, 15.0)">g</text><text xml:space="preserve" font-family="PalatinoLinotype-Roman" font-size="10.0" fill="#7F7F7F" transform="matrix(1.00, 0.00, -0.00, -1.00, 465.6, 15.0)">/</text><text xml:space="preserve" font-family="PalatinoLinotype-Roman" font-size="10.0" fill="#7F7F7F" transform="matrix(1.00, 0.00, -0.00, -1.00, 468.8, 15.0)">2</text><text xml:space="preserve" font-family="PalatinoLinotype-Roman" font-size="10.0" fill="#7F7F7F" transform="matrix(1.00, 0.00, -0.00, -1.00, 473.8, 15.0)">0</text><text xml:space="preserve" font-family="PalatinoLinotype-Roman" font-size="10.0" fill="#7F7F7F" transform="matrix(1.00, 0.00, -0.00, -1.00, 478.8, 15.0)">1</text><text xml:space="preserve" font-family="PalatinoLinotype-Roman" font-size="10.0" fill="#7F7F7F" transform="matrix(1.00, 0.00, -0.00, -1.00, 483.8, 15.0)">5</text><text xml:space="preserve" font-family="PalatinoLinotype-Roman" font-size="10.0" fill="#7F7F7F" transform="matrix(1.00, 0.00, -0.00, -1.00, 488.8, 15.0)">/</text><text xml:space="preserve" font-family="PalatinoLinotype-Roman" font-size="10.0" fill="#7F7F7F" transform="matrix(1.00, 0.00, -0.00, -1.00, 492.0, 15.0)">0</text><text xml:space="preserve" font-family="PalatinoLinotype-Roman" font-size="10.0" fill="#7F7F7F" transform="matrix(1.00, 0.00, -0.00, -1.00, 497.0, 15.0)">5</text><text xml:space="preserve" font-family="PalatinoLinotype-Roman" font-size="10.0" fill="#7F7F7F" transform="matrix(1.00, 0.00, -0.00, -1.00, 502.0, 15.0)">/</text><text xml:space="preserve" font-family="PalatinoLinotype-Roman" font-size="10.0" fill="#7F7F7F" transform="matrix(1.00, 0.00, -0.00, -1.00, 505.2, 15.0)">t</text><text xml:space="preserve" font-family="PalatinoLinotype-Roman" font-size="10.0" fill="#7F7F7F" transform="matrix(1.00, 0.00, -0.00, -1.00, 508.4, 15.0)">r</text><text xml:space="preserve" font-family="PalatinoLinotype-Roman" font-size="10.0" fill="#7F7F7F" transform="matrix(1.00, 0.00, -0.00, -1.00, 512.4, 15.0)">y</text><text xml:space="preserve" font-family="PalatinoLinotype-Roman" font-size="10.0" fill="#7F7F7F" transform="matrix(1.00, 0.00, -0.00, -1.00, 518.0, 15.0)">-</text><text xml:space="preserve" font-family="PalatinoLinotype-Roman" font-size="10.0" fill="#7F7F7F" transform="matrix(1.00, 0.00, -0.00, -1.00, 521.3, 15.0)">p</text><text xml:space="preserve" font-family="PalatinoLinotype-Roman" font-size="10.0" fill="#7F7F7F" transform="matrix(1.00, 0.00, -0.00, -1.00, 527.3, 15.0)">a</text><text xml:space="preserve" font-family="PalatinoLinotype-Roman" font-size="10.0" fill="#7F7F7F" transform="matrix(1.00, 0.00, -0.00, -1.00, 532.3, 15.0)">i</text><text xml:space="preserve" font-family="PalatinoLinotype-Roman" font-size="10.0" fill="#7F7F7F" transform="matrix(1.00, 0.00, -0.00, -1.00, 535.2, 15.0)">r</text><text xml:space="preserve" font-family="PalatinoLinotype-Roman" font-size="10.0" fill="#7F7F7F" transform="matrix(1.00, 0.00, -0.00, -1.00, 539.2, 15.0)">-</text><text xml:space="preserve" font-family="PalatinoLinotype-Roman" font-size="10.0" fill="#7F7F7F" transform="matrix(1.00, 0.00, -0.00, -1.00, 542.5, 15.0)">p</text><text xml:space="preserve" font-family="PalatinoLinotype-Roman" font-size="10.0" fill="#7F7F7F" transform="matrix(1.00, 0.00, -0.00, -1.00, 548.5, 15.0)">r</text><text xml:space="preserve" font-family="PalatinoLinotype-Roman" font-size="10.0" fill="#7F7F7F" transform="matrix(1.00, 0.00, -0.00, -1.00, 552.5, 15.0)">o</text><text xml:space="preserve" font-family="PalatinoLinotype-Roman" font-size="10.0" fill="#7F7F7F" transform="matrix(1.00, 0.00, -0.00, -1.00, 557.9, 15.0)">g</text><text xml:space="preserve" font-family="PalatinoLinotype-Roman" font-size="10.0" fill="#7F7F7F" transform="matrix(1.00, 0.00, -0.00, -1.00, 563.5, 15.0)">r</text><text xml:space="preserve" font-family="PalatinoLinotype-Roman" font-size="10.0" fill="#7F7F7F" transform="matrix(1.00, 0.00, -0.00, -1.00, 567.4, 15.0)">a</text><text xml:space="preserve" font-family="PalatinoLinotype-Roman" font-size="10.0" fill="#7F7F7F" transform="matrix(1.00, 0.00, -0.00, -1.00, 572.4, 15.0)">m</text><text xml:space="preserve" font-family="PalatinoLinotype-Roman" font-size="10.0" fill="#7F7F7F" transform="matrix(1.00, 0.00, -0.00, -1.00, 581.3, 15.0)">m</text><text xml:space="preserve" font-family="PalatinoLinotype-Roman" font-size="10.0" fill="#7F7F7F" transform="matrix(1.00, 0.00, -0.00, -1.00, 590.1, 15.0)">i</text><text xml:space="preserve" font-family="PalatinoLinotype-Roman" font-size="10.0" fill="#7F7F7F" transform="matrix(1.00, 0.00, -0.00, -1.00, 593.0, 15.0)">n</text><text xml:space="preserve" font-family="PalatinoLinotype-Roman" font-size="10.0" fill="#7F7F7F" transform="matrix(1.00, 0.00, -0.00, -1.00, 598.8, 15.0)">g</text><text xml:space="preserve" font-family="PalatinoLinotype-Roman" font-size="10.0" fill="#7F7F7F" transform="matrix(1.00, 0.00, -0.00, -1.00, 604.4, 15.0)">/</text><text xml:space="preserve" font-family="PalatinoLinotype-Roman" font-size="10.0" fill="#7F7F7F" transform="matrix(1.00, 0.00, -0.00, -1.00, 607.6, 15.0)">i</text><text xml:space="preserve" font-family="PalatinoLinotype-Roman" font-size="10.0" fill="#7F7F7F" transform="matrix(1.00, 0.00, -0.00, -1.00, 610.5, 15.0)">m</text><text xml:space="preserve" font-family="PalatinoLinotype-Roman" font-size="10.0" fill="#7F7F7F" transform="matrix(1.00, 0.00, -0.00, -1.00, 619.3, 15.0)">a</text><text xml:space="preserve" font-family="PalatinoLinotype-Roman" font-size="10.0" fill="#7F7F7F" transform="matrix(1.00, 0.00, -0.00, -1.00, 624.3, 15.0)">g</text><text xml:space="preserve" font-family="PalatinoLinotype-Roman" font-size="10.0" fill="#7F7F7F" transform="matrix(1.00, 0.00, -0.00, -1.00, 629.9, 15.0)">e</text><text xml:space="preserve" font-family="PalatinoLinotype-Roman" font-size="10.0" fill="#7F7F7F" transform="matrix(1.00, 0.00, -0.00, -1.00, 634.7, 15.0)">s</text><text xml:space="preserve" font-family="PalatinoLinotype-Roman" font-size="10.0" fill="#7F7F7F" transform="matrix(1.00, 0.00, -0.00, -1.00, 638.9, 15.0)">/</text><text xml:space="preserve" font-family="PalatinoLinotype-Roman" font-size="10.0" fill="#7F7F7F" transform="matrix(1.00, 0.00, -0.00, -1.00, 642.1, 15.0)">t</text><text xml:space="preserve" font-family="PalatinoLinotype-Roman" font-size="10.0" fill="#7F7F7F" transform="matrix(1.00, 0.00, -0.00, -1.00, 645.4, 15.0)">h</text><text xml:space="preserve" font-family="PalatinoLinotype-Roman" font-size="10.0" fill="#7F7F7F" transform="matrix(1.00, 0.00, -0.00, -1.00, 651.2, 15.0)">e</text><text xml:space="preserve" font-family="PalatinoLinotype-Roman" font-size="10.0" fill="#7F7F7F" transform="matrix(1.00, 0.00, -0.00, -1.00, 656.0, 15.0)">-</text><text xml:space="preserve" font-family="PalatinoLinotype-Roman" font-size="10.0" fill="#7F7F7F" transform="matrix(1.00, 0.00, -0.00, -1.00, 659.3, 15.0)">n</text><text xml:space="preserve" font-family="PalatinoLinotype-Roman" font-size="10.0" fill="#7F7F7F" transform="matrix(1.00, 0.00, -0.00, -1.00, 665.1, 15.0)">o</text><text xml:space="preserve" font-family="PalatinoLinotype-Roman" font-size="10.0" fill="#7F7F7F" transform="matrix(1.00, 0.00, -0.00, -1.00, 670.6, 15.0)">o</text><text xml:space="preserve" font-family="PalatinoLinotype-Roman" font-size="10.0" fill="#7F7F7F" transform="matrix(1.00, 0.00, -0.00, -1.00, 676.0, 15.0)">b</text><text xml:space="preserve" font-family="PalatinoLinotype-Roman" font-size="10.0" fill="#7F7F7F" transform="matrix(1.00, 0.00, -0.00, -1.00, 681.6, 15.0)">.</text><text xml:space="preserve" font-family="PalatinoLinotype-Roman" font-size="10.0" fill="#7F7F7F" transform="matrix(1.00, 0.00, -0.00, -1.00, 684.1, 15.0)">j</text><text xml:space="preserve" font-family="PalatinoLinotype-Roman" font-size="10.0" fill="#7F7F7F" transform="matrix(1.00, 0.00, -0.00, -1.00, 686.4, 15.0)">p</text><text xml:space="preserve" font-family="PalatinoLinotype-Roman" font-size="10.0" fill="#7F7F7F" transform="matrix(1.00, 0.00, -0.00, -1.00, 692.4, 15.0)">g</text></g></svg>