<?xml version="1.0" encoding="UTF-8" standalone="no"?><svg xmlns="http://www.w3.org/2000/svg" xmlns:xlink="http://www.w3.org/1999/xlink" clip-rule="evenodd" stroke-miterlimit="4.00" viewBox="0 0 244 111"><desc>SVG generated by Keynote</desc><defs></defs><g transform="matrix(1.00, 0.00, -0.00, -1.00, 0.0, 111.0)"><image xlink:href="../../CAE60E7F-0A20-45BC-A9CF-26FF63EB6860/assets/E3FB2402041FE87ACCA0C05012AC910A.png" width="198.00" height="39.00" transform="matrix(1.00, 0.00, -0.00, -1.00, 1.0, 110.0)"></image><text xml:space="preserve" font-family="PalatinoLinotype-Roman" font-size="44.1" fill="#FFFFFF" transform="matrix(1.00, 0.00, -0.00, -1.00, 2.0, 77.0)">T</text><text xml:space="preserve" font-family="PalatinoLinotype-Roman" font-size="44.1" fill="#FFFFFF" transform="matrix(1.00, 0.00, -0.00, -1.00, 25.9, 77.0)">e</text><text xml:space="preserve" font-family="PalatinoLinotype-Roman" font-size="44.1" fill="#FFFFFF" transform="matrix(1.00, 0.00, -0.00, -1.00, 47.0, 77.0)">s</text><text xml:space="preserve" font-family="PalatinoLinotype-Roman" font-size="44.1" fill="#FFFFFF" transform="matrix(1.00, 0.00, -0.00, -1.00, 65.7, 77.0)">t</text><text xml:space="preserve" font-family="PalatinoLinotype-Roman" font-size="44.1" fill="#FFFFFF" transform="matrix(1.00, 0.00, -0.00, -1.00, 80.1, 77.0)"> </text><text xml:space="preserve" font-family="PalatinoLinotype-Roman" font-size="44.1" fill="#FFFFFF" transform="matrix(1.00, 0.00, -0.00, -1.00, 91.1, 77.0)">C</text><text xml:space="preserve" font-family="PalatinoLinotype-Roman" font-size="44.1" fill="#FFFFFF" transform="matrix(1.00, 0.00, -0.00, -1.00, 122.4, 77.0)">o</text><text xml:space="preserve" font-family="PalatinoLinotype-Roman" font-size="44.1" fill="#FFFFFF" transform="matrix(1.00, 0.00, -0.00, -1.00, 146.5, 77.0)">d</text><text xml:space="preserve" font-family="PalatinoLinotype-Roman" font-size="44.1" fill="#FFFFFF" transform="matrix(1.00, 0.00, -0.00, -1.00, 173.4, 77.0)">e</text><text xml:space="preserve" font-family="PalatinoLinotype-Roman" font-size="44.1" fill="#FFFFFF" transform="matrix(1.00, 0.00, -0.00, -1.00, 194.5, 77.0)"> </text><text xml:space="preserve" font-family="LucidaGrande" font-size="44.1" fill="#FFFFFF" transform="matrix(1.00, 0.00, -0.00, -1.00, 205.6, 77.0)"> </text><image xlink:href="../../CAE60E7F-0A20-45BC-A9CF-26FF63EB6860/assets/C7096F79B66DC04B454B37CC3E6965F0.png" width="239.00" height="47.00" transform="matrix(1.00, 0.00, -0.00, -1.00, 3.0, 51.0)"></image><g><clipPath id="clip-256"><path d="M 0.0 4.6 L 244.0 4.6 L 244.0 111.0 L 0.0 111.0 Z M 0.0 4.6 "></path></clipPath><g clip-path="url(#clip-256)"><text xml:space="preserve" font-family="PalatinoLinotype-Roman" font-size="44.1" fill="#FFFFFF" transform="matrix(1.00, 0.00, -0.00, -1.00, 2.0, 18.0)">(</text><text xml:space="preserve" font-family="PalatinoLinotype-Roman" font-size="44.1" fill="#FFFFFF" transform="matrix(1.00, 0.00, -0.00, -1.00, 16.7, 18.0)">F</text><text xml:space="preserve" font-family="PalatinoLinotype-Roman" font-size="44.1" fill="#FFFFFF" transform="matrix(1.00, 0.00, -0.00, -1.00, 41.2, 18.0)">u</text><text xml:space="preserve" font-family="PalatinoLinotype-Roman" font-size="44.1" fill="#FFFFFF" transform="matrix(1.00, 0.00, -0.00, -1.00, 67.8, 18.0)">n</text><text xml:space="preserve" font-family="PalatinoLinotype-Roman" font-size="44.1" fill="#FFFFFF" transform="matrix(1.00, 0.00, -0.00, -1.00, 93.5, 18.0)">c</text><text xml:space="preserve" font-family="PalatinoLinotype-Roman" font-size="44.1" fill="#FFFFFF" transform="matrix(1.00, 0.00, -0.00, -1.00, 113.0, 18.0)">t</text><text xml:space="preserve" font-family="PalatinoLinotype-Roman" font-size="44.1" fill="#FFFFFF" transform="matrix(1.00, 0.00, -0.00, -1.00, 127.4, 18.0)">i</text><text xml:space="preserve" font-family="PalatinoLinotype-Roman" font-size="44.1" fill="#FFFFFF" transform="matrix(1.00, 0.00, -0.00, -1.00, 140.3, 18.0)">o</text><text xml:space="preserve" font-family="PalatinoLinotype-Roman" font-size="44.1" fill="#FFFFFF" transform="matrix(1.00, 0.00, -0.00, -1.00, 164.3, 18.0)">n</text><text xml:space="preserve" font-family="PalatinoLinotype-Roman" font-size="44.1" fill="#FFFFFF" transform="matrix(1.00, 0.00, -0.00, -1.00, 190.0, 18.0)">a</text><text xml:space="preserve" font-family="PalatinoLinotype-Roman" font-size="44.1" fill="#FFFFFF" transform="matrix(1.00, 0.00, -0.00, -1.00, 212.1, 18.0)">l</text><text xml:space="preserve" font-family="PalatinoLinotype-Roman" font-size="44.1" fill="#FFFFFF" transform="matrix(1.00, 0.00, -0.00, -1.00, 224.9, 18.0)">)</text></g></g></g></svg>