<?xml version="1.0" encoding="UTF-8" standalone="no"?><svg xmlns="http://www.w3.org/2000/svg" xmlns:xlink="http://www.w3.org/1999/xlink" clip-rule="evenodd" stroke-miterlimit="4.00" viewBox="0 0 720 540"><desc>SVG generated by Keynote</desc><defs></defs><g transform="matrix(1.00, 0.00, -0.00, -1.00, 0.0, 540.0)"><g><clipPath id="clip-116"><path d="M 0.0 540.0 L 720.0 540.0 L 720.0 0.0 L 0.0 0.0 Z M 0.0 540.0 "></path></clipPath><g clip-path="url(#clip-116)"><image xlink:href="../../50284B37-CCEE-4A85-B7F1-B37C6F61AD00/assets/FBB8612FB975EB8CCDB12C37C765AF08.png" width="720.00" height="540.00" transform="matrix(1.00, 0.00, -0.00, -1.00, 0.0, 540.0)"></image></g></g><g><clipPath id="clip-117"><path d="M 0.0 540.0 L 720.0 540.0 L 720.0 0.0 L 0.0 0.0 Z M 0.0 540.0 "></path></clipPath><g clip-path="url(#clip-117)"><image xlink:href="../../50284B37-CCEE-4A85-B7F1-B37C6F61AD00/assets/7601BF848A1235B6B5A20445977AEE42.png" width="720.00" height="540.00" transform="matrix(1.00, 0.00, -0.00, 1.00, 0.0, 0.0)"></image></g></g><g><clipPath id="clip-118"><path d="M 483.0 474.0 C 623.7 456.7 697.6 335.1 647.9 202.3 C 598.3 69.6 444.0 -24.1 303.3 -6.9 C 162.6 10.4 88.8 132.0 138.4 264.8 C 188.1 397.5 342.3 491.2 483.0 474.0 Z M 483.0 474.0 "></path></clipPath><g clip-path="url(#clip-118)"><image xlink:href="../../50284B37-CCEE-4A85-B7F1-B37C6F61AD00/assets/BADFE6F353B7F5F8A00CE8CD81F8D3D6.png" width="570.00" height="541.00" transform="matrix(1.16, 0.71, -0.71, 1.16, 252.6, -271.0)"></image></g></g><g><clipPath id="clip-119"><path d="M 146.2 463.6 C 244.0 512.9 345.8 467.0 373.6 361.1 C 401.3 255.1 344.6 129.3 246.8 80.0 C 148.9 30.7 47.1 76.6 19.4 182.6 C -8.4 288.5 48.4 414.3 146.2 463.6 Z M 146.2 463.6 "></path></clipPath><g clip-path="url(#clip-119)"><image xlink:href="../../50284B37-CCEE-4A85-B7F1-B37C6F61AD00/assets/4FDB1B0E90AF8D3A2BED7188D138EB0A.png" width="580.00" height="541.00" transform="matrix(0.43, 0.95, -0.95, 0.43, 333.9, -120.5)"></image></g></g><g><clipPath id="clip-120"><path d="M 598.7 550.4 C 721.8 539.6 783.3 438.3 736.1 324.1 C 688.9 209.9 550.8 126.1 427.7 136.8 C 304.6 147.6 243.1 249.0 290.3 363.1 C 337.5 477.3 475.6 561.2 598.7 550.4 Z M 598.7 550.4 "></path></clipPath><g clip-path="url(#clip-120)"><image xlink:href="../../50284B37-CCEE-4A85-B7F1-B37C6F61AD00/assets/C6A1A72DB74EAFC4E8775A40D516143F.png" width="560.00" height="541.00" transform="matrix(0.95, 0.58, -0.58, 0.95, 371.5, -86.1)"></image></g></g><text xml:space="preserve" font-family="PalatinoLinotype-Roman" font-size="13.0" fill="#9EABBE" transform="matrix(1.00, 0.00, -0.00, -1.00, 15.0, 20.0)">D</text><text xml:space="preserve" font-family="PalatinoLinotype-Roman" font-size="13.0" fill="#9EABBE" transform="matrix(1.00, 0.00, -0.00, -1.00, 25.1, 20.0)">a</text><text xml:space="preserve" font-family="PalatinoLinotype-Roman" font-size="13.0" fill="#9EABBE" transform="matrix(1.00, 0.00, -0.00, -1.00, 31.6, 20.0)">w</text><text xml:space="preserve" font-family="PalatinoLinotype-Roman" font-size="13.0" fill="#9EABBE" transform="matrix(1.00, 0.00, -0.00, -1.00, 42.4, 20.0)">n</text><text xml:space="preserve" font-family="PalatinoLinotype-Roman" font-size="13.0" fill="#9EABBE" transform="matrix(1.00, 0.00, -0.00, -1.00, 50.0, 20.0)"> </text><text xml:space="preserve" font-family="PalatinoLinotype-Roman" font-size="13.0" fill="#9EABBE" transform="matrix(1.00, 0.00, -0.00, -1.00, 53.2, 20.0)">C</text><text xml:space="preserve" font-family="PalatinoLinotype-Roman" font-size="13.0" fill="#9EABBE" transform="matrix(1.00, 0.00, -0.00, -1.00, 62.4, 20.0)">o</text><text xml:space="preserve" font-family="PalatinoLinotype-Roman" font-size="13.0" fill="#9EABBE" transform="matrix(1.00, 0.00, -0.00, -1.00, 69.5, 20.0)">d</text><text xml:space="preserve" font-family="PalatinoLinotype-Roman" font-size="13.0" fill="#9EABBE" transform="matrix(1.00, 0.00, -0.00, -1.00, 77.5, 20.0)">e</text><text xml:space="preserve" font-family="PalatinoLinotype-Roman" font-size="13.0" fill="#9EABBE" transform="matrix(1.00, 0.00, -0.00, -1.00, 83.7, 20.0)">,</text><text xml:space="preserve" font-family="PalatinoLinotype-Roman" font-size="13.0" fill="#9EABBE" transform="matrix(1.00, 0.00, -0.00, -1.00, 86.9, 20.0)"> </text><text xml:space="preserve" font-family="PalatinoLinotype-Roman" font-size="13.0" fill="#9EABBE" transform="matrix(1.00, 0.00, -0.00, -1.00, 90.2, 20.0)">T</text><text xml:space="preserve" font-family="PalatinoLinotype-Roman" font-size="13.0" fill="#9EABBE" transform="matrix(1.00, 0.00, -0.00, -1.00, 98.2, 20.0)">r</text><text xml:space="preserve" font-family="PalatinoLinotype-Roman" font-size="13.0" fill="#9EABBE" transform="matrix(1.00, 0.00, -0.00, -1.00, 103.3, 20.0)">i</text><text xml:space="preserve" font-family="PalatinoLinotype-Roman" font-size="13.0" fill="#9EABBE" transform="matrix(1.00, 0.00, -0.00, -1.00, 107.1, 20.0)">A</text><text xml:space="preserve" font-family="PalatinoLinotype-Roman" font-size="13.0" fill="#9EABBE" transform="matrix(1.00, 0.00, -0.00, -1.00, 117.2, 20.0)">g</text><text xml:space="preserve" font-family="PalatinoLinotype-Roman" font-size="13.0" fill="#9EABBE" transform="matrix(1.00, 0.00, -0.00, -1.00, 124.4, 20.0)">i</text><text xml:space="preserve" font-family="PalatinoLinotype-Roman" font-size="13.0" fill="#9EABBE" transform="matrix(1.00, 0.00, -0.00, -1.00, 128.2, 20.0)">l</text><text xml:space="preserve" font-family="PalatinoLinotype-Roman" font-size="13.0" fill="#9EABBE" transform="matrix(1.00, 0.00, -0.00, -1.00, 132.0, 20.0)">e</text><text xml:space="preserve" font-family="PalatinoLinotype-Roman" font-size="13.0" fill="#9EABBE" transform="matrix(1.00, 0.00, -0.00, -1.00, 138.2, 20.0)"> </text><text xml:space="preserve" font-family="PalatinoLinotype-Roman" font-size="13.0" fill="#9EABBE" transform="matrix(1.00, 0.00, -0.00, -1.00, 141.5, 20.0)">2</text><text xml:space="preserve" font-family="PalatinoLinotype-Roman" font-size="13.0" fill="#9EABBE" transform="matrix(1.00, 0.00, -0.00, -1.00, 148.0, 20.0)">0</text><text xml:space="preserve" font-family="PalatinoLinotype-Roman" font-size="13.0" fill="#9EABBE" transform="matrix(1.00, 0.00, -0.00, -1.00, 154.5, 20.0)">1</text><text xml:space="preserve" font-family="PalatinoLinotype-Roman" font-size="13.0" fill="#9EABBE" transform="matrix(1.00, 0.00, -0.00, -1.00, 161.0, 20.0)">6</text><text xml:space="preserve" font-family="PalatinoLinotype-Roman" font-size="10.0" fill="#7E7E7E" transform="matrix(1.00, 0.00, -0.00, -1.00, 377.0, 28.0)">h</text><text xml:space="preserve" font-family="PalatinoLinotype-Roman" font-size="10.0" fill="#7E7E7E" transform="matrix(1.00, 0.00, -0.00, -1.00, 382.8, 28.0)">t</text><text xml:space="preserve" font-family="PalatinoLinotype-Roman" font-size="10.0" fill="#7E7E7E" transform="matrix(1.00, 0.00, -0.00, -1.00, 386.1, 28.0)">t</text><text xml:space="preserve" font-family="PalatinoLinotype-Roman" font-size="10.0" fill="#7E7E7E" transform="matrix(1.00, 0.00, -0.00, -1.00, 389.3, 28.0)">p</text><text xml:space="preserve" font-family="PalatinoLinotype-Roman" font-size="10.0" fill="#7E7E7E" transform="matrix(1.00, 0.00, -0.00, -1.00, 395.4, 28.0)">:</text><text xml:space="preserve" font-family="PalatinoLinotype-Roman" font-size="10.0" fill="#7E7E7E" transform="matrix(1.00, 0.00, -0.00, -1.00, 397.9, 28.0)">/</text><text xml:space="preserve" font-family="PalatinoLinotype-Roman" font-size="10.0" fill="#7E7E7E" transform="matrix(1.00, 0.00, -0.00, -1.00, 401.1, 28.0)">/</text><text xml:space="preserve" font-family="PalatinoLinotype-Roman" font-size="10.0" fill="#7E7E7E" transform="matrix(1.00, 0.00, -0.00, -1.00, 404.3, 28.0)">v</text><text xml:space="preserve" font-family="PalatinoLinotype-Roman" font-size="10.0" fill="#7E7E7E" transform="matrix(1.00, 0.00, -0.00, -1.00, 409.9, 28.0)">i</text><text xml:space="preserve" font-family="PalatinoLinotype-Roman" font-size="10.0" fill="#7E7E7E" transform="matrix(1.00, 0.00, -0.00, -1.00, 412.8, 28.0)">g</text><text xml:space="preserve" font-family="PalatinoLinotype-Roman" font-size="10.0" fill="#7E7E7E" transform="matrix(1.00, 0.00, -0.00, -1.00, 418.4, 28.0)">n</text><text xml:space="preserve" font-family="PalatinoLinotype-Roman" font-size="10.0" fill="#7E7E7E" transform="matrix(1.00, 0.00, -0.00, -1.00, 424.2, 28.0)">e</text><text xml:space="preserve" font-family="PalatinoLinotype-Roman" font-size="10.0" fill="#7E7E7E" transform="matrix(1.00, 0.00, -0.00, -1.00, 429.0, 28.0)">t</text><text xml:space="preserve" font-family="PalatinoLinotype-Roman" font-size="10.0" fill="#7E7E7E" transform="matrix(1.00, 0.00, -0.00, -1.00, 432.3, 28.0)">t</text><text xml:space="preserve" font-family="PalatinoLinotype-Roman" font-size="10.0" fill="#7E7E7E" transform="matrix(1.00, 0.00, -0.00, -1.00, 435.5, 28.0)">e</text><text xml:space="preserve" font-family="PalatinoLinotype-Roman" font-size="10.0" fill="#7E7E7E" transform="matrix(1.00, 0.00, -0.00, -1.00, 440.3, 28.0)">3</text><text xml:space="preserve" font-family="PalatinoLinotype-Roman" font-size="10.0" fill="#7E7E7E" transform="matrix(1.00, 0.00, -0.00, -1.00, 445.3, 28.0)">.</text><text xml:space="preserve" font-family="PalatinoLinotype-Roman" font-size="10.0" fill="#7E7E7E" transform="matrix(1.00, 0.00, -0.00, -1.00, 447.8, 28.0)">w</text><text xml:space="preserve" font-family="PalatinoLinotype-Roman" font-size="10.0" fill="#7E7E7E" transform="matrix(1.00, 0.00, -0.00, -1.00, 456.2, 28.0)">i</text><text xml:space="preserve" font-family="PalatinoLinotype-Roman" font-size="10.0" fill="#7E7E7E" transform="matrix(1.00, 0.00, -0.00, -1.00, 459.1, 28.0)">k</text><text xml:space="preserve" font-family="PalatinoLinotype-Roman" font-size="10.0" fill="#7E7E7E" transform="matrix(1.00, 0.00, -0.00, -1.00, 464.6, 28.0)">i</text><text xml:space="preserve" font-family="PalatinoLinotype-Roman" font-size="10.0" fill="#7E7E7E" transform="matrix(1.00, 0.00, -0.00, -1.00, 467.5, 28.0)">a</text><text xml:space="preserve" font-family="PalatinoLinotype-Roman" font-size="10.0" fill="#7E7E7E" transform="matrix(1.00, 0.00, -0.00, -1.00, 472.5, 28.0)">.</text><text xml:space="preserve" font-family="PalatinoLinotype-Roman" font-size="10.0" fill="#7E7E7E" transform="matrix(1.00, 0.00, -0.00, -1.00, 475.0, 28.0)">n</text><text xml:space="preserve" font-family="PalatinoLinotype-Roman" font-size="10.0" fill="#7E7E7E" transform="matrix(1.00, 0.00, -0.00, -1.00, 480.9, 28.0)">o</text><text xml:space="preserve" font-family="PalatinoLinotype-Roman" font-size="10.0" fill="#7E7E7E" transform="matrix(1.00, 0.00, -0.00, -1.00, 486.3, 28.0)">c</text><text xml:space="preserve" font-family="PalatinoLinotype-Roman" font-size="10.0" fill="#7E7E7E" transform="matrix(1.00, 0.00, -0.00, -1.00, 490.8, 28.0)">o</text><text xml:space="preserve" font-family="PalatinoLinotype-Roman" font-size="10.0" fill="#7E7E7E" transform="matrix(1.00, 0.00, -0.00, -1.00, 496.2, 28.0)">o</text><text xml:space="preserve" font-family="PalatinoLinotype-Roman" font-size="10.0" fill="#7E7E7E" transform="matrix(1.00, 0.00, -0.00, -1.00, 501.7, 28.0)">k</text><text xml:space="preserve" font-family="PalatinoLinotype-Roman" font-size="10.0" fill="#7E7E7E" transform="matrix(1.00, 0.00, -0.00, -1.00, 507.2, 28.0)">i</text><text xml:space="preserve" font-family="PalatinoLinotype-Roman" font-size="10.0" fill="#7E7E7E" transform="matrix(1.00, 0.00, -0.00, -1.00, 510.1, 28.0)">e</text><text xml:space="preserve" font-family="PalatinoLinotype-Roman" font-size="10.0" fill="#7E7E7E" transform="matrix(1.00, 0.00, -0.00, -1.00, 514.9, 28.0)">.</text><text xml:space="preserve" font-family="PalatinoLinotype-Roman" font-size="10.0" fill="#7E7E7E" transform="matrix(1.00, 0.00, -0.00, -1.00, 517.4, 28.0)">n</text><text xml:space="preserve" font-family="PalatinoLinotype-Roman" font-size="10.0" fill="#7E7E7E" transform="matrix(1.00, 0.00, -0.00, -1.00, 523.3, 28.0)">e</text><text xml:space="preserve" font-family="PalatinoLinotype-Roman" font-size="10.0" fill="#7E7E7E" transform="matrix(1.00, 0.00, -0.00, -1.00, 528.1, 28.0)">t</text><text xml:space="preserve" font-family="PalatinoLinotype-Roman" font-size="10.0" fill="#7E7E7E" transform="matrix(1.00, 0.00, -0.00, -1.00, 531.3, 28.0)">/</text><text xml:space="preserve" font-family="PalatinoLinotype-Roman" font-size="10.0" fill="#7E7E7E" transform="matrix(1.00, 0.00, -0.00, -1.00, 534.5, 28.0)">c</text><text xml:space="preserve" font-family="PalatinoLinotype-Roman" font-size="10.0" fill="#7E7E7E" transform="matrix(1.00, 0.00, -0.00, -1.00, 539.0, 28.0)">l</text><text xml:space="preserve" font-family="PalatinoLinotype-Roman" font-size="10.0" fill="#7E7E7E" transform="matrix(1.00, 0.00, -0.00, -1.00, 541.9, 28.0)">u</text><text xml:space="preserve" font-family="PalatinoLinotype-Roman" font-size="10.0" fill="#7E7E7E" transform="matrix(1.00, 0.00, -0.00, -1.00, 547.9, 28.0)">b</text><text xml:space="preserve" font-family="PalatinoLinotype-Roman" font-size="10.0" fill="#7E7E7E" transform="matrix(1.00, 0.00, -0.00, -1.00, 553.4, 28.0)">p</text><text xml:space="preserve" font-family="PalatinoLinotype-Roman" font-size="10.0" fill="#7E7E7E" transform="matrix(1.00, 0.00, -0.00, -1.00, 559.4, 28.0)">e</text><text xml:space="preserve" font-family="PalatinoLinotype-Roman" font-size="10.0" fill="#7E7E7E" transform="matrix(1.00, 0.00, -0.00, -1.00, 564.2, 28.0)">n</text><text xml:space="preserve" font-family="PalatinoLinotype-Roman" font-size="10.0" fill="#7E7E7E" transform="matrix(1.00, 0.00, -0.00, -1.00, 570.1, 28.0)">g</text><text xml:space="preserve" font-family="PalatinoLinotype-Roman" font-size="10.0" fill="#7E7E7E" transform="matrix(1.00, 0.00, -0.00, -1.00, 575.6, 28.0)">u</text><text xml:space="preserve" font-family="PalatinoLinotype-Roman" font-size="10.0" fill="#7E7E7E" transform="matrix(1.00, 0.00, -0.00, -1.00, 581.6, 28.0)">i</text><text xml:space="preserve" font-family="PalatinoLinotype-Roman" font-size="10.0" fill="#7E7E7E" transform="matrix(1.00, 0.00, -0.00, -1.00, 584.6, 28.0)">n</text><text xml:space="preserve" font-family="PalatinoLinotype-Roman" font-size="10.0" fill="#7E7E7E" transform="matrix(1.00, 0.00, -0.00, -1.00, 590.4, 28.0)">/</text><text xml:space="preserve" font-family="PalatinoLinotype-Roman" font-size="10.0" fill="#7E7E7E" transform="matrix(1.00, 0.00, -0.00, -1.00, 593.6, 28.0)">i</text><text xml:space="preserve" font-family="PalatinoLinotype-Roman" font-size="10.0" fill="#7E7E7E" transform="matrix(1.00, 0.00, -0.00, -1.00, 596.5, 28.0)">m</text><text xml:space="preserve" font-family="PalatinoLinotype-Roman" font-size="10.0" fill="#7E7E7E" transform="matrix(1.00, 0.00, -0.00, -1.00, 605.3, 28.0)">a</text><text xml:space="preserve" font-family="PalatinoLinotype-Roman" font-size="10.0" fill="#7E7E7E" transform="matrix(1.00, 0.00, -0.00, -1.00, 610.3, 28.0)">g</text><text xml:space="preserve" font-family="PalatinoLinotype-Roman" font-size="10.0" fill="#7E7E7E" transform="matrix(1.00, 0.00, -0.00, -1.00, 615.9, 28.0)">e</text><text xml:space="preserve" font-family="PalatinoLinotype-Roman" font-size="10.0" fill="#7E7E7E" transform="matrix(1.00, 0.00, -0.00, -1.00, 620.7, 28.0)">s</text><text xml:space="preserve" font-family="PalatinoLinotype-Roman" font-size="10.0" fill="#7E7E7E" transform="matrix(1.00, 0.00, -0.00, -1.00, 624.9, 28.0)">/</text><text xml:space="preserve" font-family="PalatinoLinotype-Roman" font-size="10.0" fill="#7E7E7E" transform="matrix(1.00, 0.00, -0.00, -1.00, 628.1, 28.0)">8</text><text xml:space="preserve" font-family="PalatinoLinotype-Roman" font-size="10.0" fill="#7E7E7E" transform="matrix(1.00, 0.00, -0.00, -1.00, 633.1, 28.0)">/</text><text xml:space="preserve" font-family="PalatinoLinotype-Roman" font-size="10.0" fill="#7E7E7E" transform="matrix(1.00, 0.00, -0.00, -1.00, 636.3, 28.0)">8</text><text xml:space="preserve" font-family="PalatinoLinotype-Roman" font-size="10.0" fill="#7E7E7E" transform="matrix(1.00, 0.00, -0.00, -1.00, 641.3, 28.0)">e</text><text xml:space="preserve" font-family="PalatinoLinotype-Roman" font-size="10.0" fill="#7E7E7E" transform="matrix(1.00, 0.00, -0.00, -1.00, 646.1, 28.0)">/</text><text xml:space="preserve" font-family="PalatinoLinotype-Roman" font-size="10.0" fill="#7E7E7E" transform="matrix(1.00, 0.00, -0.00, -1.00, 377.0, 15.0)">H</text><text xml:space="preserve" font-family="PalatinoLinotype-Roman" font-size="10.0" fill="#7E7E7E" transform="matrix(1.00, 0.00, -0.00, -1.00, 385.3, 15.0)">a</text><text xml:space="preserve" font-family="PalatinoLinotype-Roman" font-size="10.0" fill="#7E7E7E" transform="matrix(1.00, 0.00, -0.00, -1.00, 390.3, 15.0)">r</text><text xml:space="preserve" font-family="PalatinoLinotype-Roman" font-size="10.0" fill="#7E7E7E" transform="matrix(1.00, 0.00, -0.00, -1.00, 394.3, 15.0)">d</text><text xml:space="preserve" font-family="PalatinoLinotype-Roman" font-size="10.0" fill="#7E7E7E" transform="matrix(1.00, 0.00, -0.00, -1.00, 400.4, 15.0)">_</text><text xml:space="preserve" font-family="PalatinoLinotype-Roman" font-size="10.0" fill="#7E7E7E" transform="matrix(1.00, 0.00, -0.00, -1.00, 405.4, 15.0)">H</text><text xml:space="preserve" font-family="PalatinoLinotype-Roman" font-size="10.0" fill="#7E7E7E" transform="matrix(1.00, 0.00, -0.00, -1.00, 413.7, 15.0)">a</text><text xml:space="preserve" font-family="PalatinoLinotype-Roman" font-size="10.0" fill="#7E7E7E" transform="matrix(1.00, 0.00, -0.00, -1.00, 418.7, 15.0)">t</text><text xml:space="preserve" font-family="PalatinoLinotype-Roman" font-size="10.0" fill="#7E7E7E" transform="matrix(1.00, 0.00, -0.00, -1.00, 422.0, 15.0)">_</text><text xml:space="preserve" font-family="PalatinoLinotype-Roman" font-size="10.0" fill="#7E7E7E" transform="matrix(1.00, 0.00, -0.00, -1.00, 427.0, 15.0)">c</text><text xml:space="preserve" font-family="PalatinoLinotype-Roman" font-size="10.0" fill="#7E7E7E" transform="matrix(1.00, 0.00, -0.00, -1.00, 431.4, 15.0)">l</text><text xml:space="preserve" font-family="PalatinoLinotype-Roman" font-size="10.0" fill="#7E7E7E" transform="matrix(1.00, 0.00, -0.00, -1.00, 434.3, 15.0)">o</text><text xml:space="preserve" font-family="PalatinoLinotype-Roman" font-size="10.0" fill="#7E7E7E" transform="matrix(1.00, 0.00, -0.00, -1.00, 439.8, 15.0)">t</text><text xml:space="preserve" font-family="PalatinoLinotype-Roman" font-size="10.0" fill="#7E7E7E" transform="matrix(1.00, 0.00, -0.00, -1.00, 443.0, 15.0)">h</text><text xml:space="preserve" font-family="PalatinoLinotype-Roman" font-size="10.0" fill="#7E7E7E" transform="matrix(1.00, 0.00, -0.00, -1.00, 448.8, 15.0)">i</text><text xml:space="preserve" font-family="PalatinoLinotype-Roman" font-size="10.0" fill="#7E7E7E" transform="matrix(1.00, 0.00, -0.00, -1.00, 451.8, 15.0)">n</text><text xml:space="preserve" font-family="PalatinoLinotype-Roman" font-size="10.0" fill="#7E7E7E" transform="matrix(1.00, 0.00, -0.00, -1.00, 457.6, 15.0)">g</text><text xml:space="preserve" font-family="PalatinoLinotype-Roman" font-size="10.0" fill="#7E7E7E" transform="matrix(1.00, 0.00, -0.00, -1.00, 463.1, 15.0)">_</text><text xml:space="preserve" font-family="PalatinoLinotype-Roman" font-size="10.0" fill="#7E7E7E" transform="matrix(1.00, 0.00, -0.00, -1.00, 468.1, 15.0)">i</text><text xml:space="preserve" font-family="PalatinoLinotype-Roman" font-size="10.0" fill="#7E7E7E" transform="matrix(1.00, 0.00, -0.00, -1.00, 471.1, 15.0)">c</text><text xml:space="preserve" font-family="PalatinoLinotype-Roman" font-size="10.0" fill="#7E7E7E" transform="matrix(1.00, 0.00, -0.00, -1.00, 475.5, 15.0)">o</text><text xml:space="preserve" font-family="PalatinoLinotype-Roman" font-size="10.0" fill="#7E7E7E" transform="matrix(1.00, 0.00, -0.00, -1.00, 480.9, 15.0)">n</text><text xml:space="preserve" font-family="PalatinoLinotype-Roman" font-size="10.0" fill="#7E7E7E" transform="matrix(1.00, 0.00, -0.00, -1.00, 486.8, 15.0)">_</text><text xml:space="preserve" font-family="PalatinoLinotype-Roman" font-size="10.0" fill="#7E7E7E" transform="matrix(1.00, 0.00, -0.00, -1.00, 491.8, 15.0)">I</text><text xml:space="preserve" font-family="PalatinoLinotype-Roman" font-size="10.0" fill="#7E7E7E" transform="matrix(1.00, 0.00, -0.00, -1.00, 495.1, 15.0)">D</text><text xml:space="preserve" font-family="PalatinoLinotype-Roman" font-size="10.0" fill="#7E7E7E" transform="matrix(1.00, 0.00, -0.00, -1.00, 502.9, 15.0)">_</text><text xml:space="preserve" font-family="PalatinoLinotype-Roman" font-size="10.0" fill="#7E7E7E" transform="matrix(1.00, 0.00, -0.00, -1.00, 507.9, 15.0)">4</text><text xml:space="preserve" font-family="PalatinoLinotype-Roman" font-size="10.0" fill="#7E7E7E" transform="matrix(1.00, 0.00, -0.00, -1.00, 512.9, 15.0)">0</text><text xml:space="preserve" font-family="PalatinoLinotype-Roman" font-size="10.0" fill="#7E7E7E" transform="matrix(1.00, 0.00, -0.00, -1.00, 517.9, 15.0)">3</text><text xml:space="preserve" font-family="PalatinoLinotype-Roman" font-size="10.0" fill="#7E7E7E" transform="matrix(1.00, 0.00, -0.00, -1.00, 522.9, 15.0)">.</text><text xml:space="preserve" font-family="PalatinoLinotype-Roman" font-size="10.0" fill="#7E7E7E" transform="matrix(1.00, 0.00, -0.00, -1.00, 525.4, 15.0)">p</text><text xml:space="preserve" font-family="PalatinoLinotype-Roman" font-size="10.0" fill="#7E7E7E" transform="matrix(1.00, 0.00, -0.00, -1.00, 531.4, 15.0)">n</text><text xml:space="preserve" font-family="PalatinoLinotype-Roman" font-size="10.0" fill="#7E7E7E" transform="matrix(1.00, 0.00, -0.00, -1.00, 537.2, 15.0)">g</text><text xml:space="preserve" font-family="PalatinoLinotype-Roman" font-size="10.0" fill="#7E7E7E" transform="matrix(1.00, 0.00, -0.00, -1.00, 542.8, 15.0)">/</text><text xml:space="preserve" font-family="PalatinoLinotype-Roman" font-size="10.0" fill="#7E7E7E" transform="matrix(1.00, 0.00, -0.00, -1.00, 546.0, 15.0)">r</text><text xml:space="preserve" font-family="PalatinoLinotype-Roman" font-size="10.0" fill="#7E7E7E" transform="matrix(1.00, 0.00, -0.00, -1.00, 549.9, 15.0)">e</text><text xml:space="preserve" font-family="PalatinoLinotype-Roman" font-size="10.0" fill="#7E7E7E" transform="matrix(1.00, 0.00, -0.00, -1.00, 554.7, 15.0)">v</text><text xml:space="preserve" font-family="PalatinoLinotype-Roman" font-size="10.0" fill="#7E7E7E" transform="matrix(1.00, 0.00, -0.00, -1.00, 560.4, 15.0)">i</text><text xml:space="preserve" font-family="PalatinoLinotype-Roman" font-size="10.0" fill="#7E7E7E" transform="matrix(1.00, 0.00, -0.00, -1.00, 563.3, 15.0)">s</text><text xml:space="preserve" font-family="PalatinoLinotype-Roman" font-size="10.0" fill="#7E7E7E" transform="matrix(1.00, 0.00, -0.00, -1.00, 567.5, 15.0)">i</text><text xml:space="preserve" font-family="PalatinoLinotype-Roman" font-size="10.0" fill="#7E7E7E" transform="matrix(1.00, 0.00, -0.00, -1.00, 570.4, 15.0)">o</text><text xml:space="preserve" font-family="PalatinoLinotype-Roman" font-size="10.0" fill="#7E7E7E" transform="matrix(1.00, 0.00, -0.00, -1.00, 575.9, 15.0)">n</text><text xml:space="preserve" font-family="PalatinoLinotype-Roman" font-size="10.0" fill="#7E7E7E" transform="matrix(1.00, 0.00, -0.00, -1.00, 581.7, 15.0)">/</text><text xml:space="preserve" font-family="PalatinoLinotype-Roman" font-size="10.0" fill="#7E7E7E" transform="matrix(1.00, 0.00, -0.00, -1.00, 584.9, 15.0)">l</text><text xml:space="preserve" font-family="PalatinoLinotype-Roman" font-size="10.0" fill="#7E7E7E" transform="matrix(1.00, 0.00, -0.00, -1.00, 587.8, 15.0)">a</text><text xml:space="preserve" font-family="PalatinoLinotype-Roman" font-size="10.0" fill="#7E7E7E" transform="matrix(1.00, 0.00, -0.00, -1.00, 592.8, 15.0)">t</text><text xml:space="preserve" font-family="PalatinoLinotype-Roman" font-size="10.0" fill="#7E7E7E" transform="matrix(1.00, 0.00, -0.00, -1.00, 596.1, 15.0)">e</text><text xml:space="preserve" font-family="PalatinoLinotype-Roman" font-size="10.0" fill="#7E7E7E" transform="matrix(1.00, 0.00, -0.00, -1.00, 600.9, 15.0)">s</text><text xml:space="preserve" font-family="PalatinoLinotype-Roman" font-size="10.0" fill="#7E7E7E" transform="matrix(1.00, 0.00, -0.00, -1.00, 605.1, 15.0)">t</text><text xml:space="preserve" font-family="PalatinoLinotype-Roman" font-size="10.0" fill="#7E7E7E" transform="matrix(1.00, 0.00, -0.00, -1.00, 608.4, 15.0)">?</text><text xml:space="preserve" font-family="PalatinoLinotype-Roman" font-size="10.0" fill="#7E7E7E" transform="matrix(1.00, 0.00, -0.00, -1.00, 612.8, 15.0)">c</text><text xml:space="preserve" font-family="PalatinoLinotype-Roman" font-size="10.0" fill="#7E7E7E" transform="matrix(1.00, 0.00, -0.00, -1.00, 617.2, 15.0)">b</text><text xml:space="preserve" font-family="PalatinoLinotype-Roman" font-size="10.0" fill="#7E7E7E" transform="matrix(1.00, 0.00, -0.00, -1.00, 622.8, 15.0)">=</text><text xml:space="preserve" font-family="PalatinoLinotype-Roman" font-size="10.0" fill="#7E7E7E" transform="matrix(1.00, 0.00, -0.00, -1.00, 627.8, 15.0)">2</text><text xml:space="preserve" font-family="PalatinoLinotype-Roman" font-size="10.0" fill="#7E7E7E" transform="matrix(1.00, 0.00, -0.00, -1.00, 632.8, 15.0)">0</text><text xml:space="preserve" font-family="PalatinoLinotype-Roman" font-size="10.0" fill="#7E7E7E" transform="matrix(1.00, 0.00, -0.00, -1.00, 637.8, 15.0)">1</text><text xml:space="preserve" font-family="PalatinoLinotype-Roman" font-size="10.0" fill="#7E7E7E" transform="matrix(1.00, 0.00, -0.00, -1.00, 642.8, 15.0)">4</text><text xml:space="preserve" font-family="PalatinoLinotype-Roman" font-size="10.0" fill="#7E7E7E" transform="matrix(1.00, 0.00, -0.00, -1.00, 647.8, 15.0)">0</text><text xml:space="preserve" font-family="PalatinoLinotype-Roman" font-size="10.0" fill="#7E7E7E" transform="matrix(1.00, 0.00, -0.00, -1.00, 652.8, 15.0)">7</text><text xml:space="preserve" font-family="PalatinoLinotype-Roman" font-size="10.0" fill="#7E7E7E" transform="matrix(1.00, 0.00, -0.00, -1.00, 657.8, 15.0)">2</text><text xml:space="preserve" font-family="PalatinoLinotype-Roman" font-size="10.0" fill="#7E7E7E" transform="matrix(1.00, 0.00, -0.00, -1.00, 662.8, 15.0)">8</text><text xml:space="preserve" font-family="PalatinoLinotype-Roman" font-size="10.0" fill="#7E7E7E" transform="matrix(1.00, 0.00, -0.00, -1.00, 667.8, 15.0)">0</text><text xml:space="preserve" font-family="PalatinoLinotype-Roman" font-size="10.0" fill="#7E7E7E" transform="matrix(1.00, 0.00, -0.00, -1.00, 672.8, 15.0)">0</text><text xml:space="preserve" font-family="PalatinoLinotype-Roman" font-size="10.0" fill="#7E7E7E" transform="matrix(1.00, 0.00, -0.00, -1.00, 677.8, 15.0)">3</text><text xml:space="preserve" font-family="PalatinoLinotype-Roman" font-size="10.0" fill="#7E7E7E" transform="matrix(1.00, 0.00, -0.00, -1.00, 682.8, 15.0)">3</text><text xml:space="preserve" font-family="PalatinoLinotype-Roman" font-size="10.0" fill="#7E7E7E" transform="matrix(1.00, 0.00, -0.00, -1.00, 687.8, 15.0)">5</text><text xml:space="preserve" font-family="PalatinoLinotype-Roman" font-size="10.0" fill="#7E7E7E" transform="matrix(1.00, 0.00, -0.00, -1.00, 692.8, 15.0)">6</text><image xlink:href="../../3A222696-96E7-4E9E-8A71-3736AF854532/assets/6EF0137F198BE6F88519049ECACA09E2.png" width="608.00" height="51.00" transform="matrix(1.00, 0.00, -0.00, -1.00, 59.0, 138.0)"></image><g><clipPath id="clip-121"><path d="M 25.0 87.6 L 701.1 87.6 L 701.1 152.4 L 25.0 152.4 Z M 25.0 87.6 "></path></clipPath><g clip-path="url(#clip-121)"><text xml:space="preserve" font-family="PalatinoLinotype-Roman" font-size="48.0" fill="#FFFFFF" transform="matrix(1.00, 0.00, -0.00, -1.00, 60.0, 102.0)">D</text><text xml:space="preserve" font-family="PalatinoLinotype-Roman" font-size="48.0" fill="#FFFFFF" transform="matrix(1.00, 0.00, -0.00, -1.00, 97.2, 102.0)">e</text><text xml:space="preserve" font-family="PalatinoLinotype-Roman" font-size="48.0" fill="#FFFFFF" transform="matrix(1.00, 0.00, -0.00, -1.00, 120.2, 102.0)">v</text><text xml:space="preserve" font-family="PalatinoLinotype-Roman" font-size="48.0" fill="#FFFFFF" transform="matrix(1.00, 0.00, -0.00, -1.00, 146.5, 102.0)">e</text><text xml:space="preserve" font-family="PalatinoLinotype-Roman" font-size="48.0" fill="#FFFFFF" transform="matrix(1.00, 0.00, -0.00, -1.00, 169.5, 102.0)">l</text><text xml:space="preserve" font-family="PalatinoLinotype-Roman" font-size="48.0" fill="#FFFFFF" transform="matrix(1.00, 0.00, -0.00, -1.00, 183.4, 102.0)">o</text><text xml:space="preserve" font-family="PalatinoLinotype-Roman" font-size="48.0" fill="#FFFFFF" transform="matrix(1.00, 0.00, -0.00, -1.00, 209.7, 102.0)">p</text><text xml:space="preserve" font-family="PalatinoLinotype-Roman" font-size="48.0" fill="#FFFFFF" transform="matrix(1.00, 0.00, -0.00, -1.00, 238.5, 102.0)">e</text><text xml:space="preserve" font-family="PalatinoLinotype-Roman" font-size="48.0" fill="#FFFFFF" transform="matrix(1.00, 0.00, -0.00, -1.00, 261.5, 102.0)">r</text><text xml:space="preserve" font-family="PalatinoLinotype-Roman" font-size="48.0" fill="#FFFFFF" transform="matrix(1.00, 0.00, -0.00, -1.00, 280.5, 102.0)"> </text><text xml:space="preserve" font-family="PalatinoLinotype-Roman" font-size="48.0" fill="#FFFFFF" transform="matrix(1.00, 0.00, -0.00, -1.00, 292.5, 102.0)">H</text><text xml:space="preserve" font-family="PalatinoLinotype-Roman" font-size="48.0" fill="#FFFFFF" transform="matrix(1.00, 0.00, -0.00, -1.00, 332.5, 102.0)">a</text><text xml:space="preserve" font-family="PalatinoLinotype-Roman" font-size="48.0" fill="#FFFFFF" transform="matrix(1.00, 0.00, -0.00, -1.00, 356.5, 102.0)">t</text><text xml:space="preserve" font-family="PalatinoLinotype-Roman" font-size="48.0" fill="#FFFFFF" transform="matrix(1.00, 0.00, -0.00, -1.00, 372.1, 102.0)"> </text><text xml:space="preserve" font-family="PalatinoLinotype-Roman" font-size="48.0" fill="#FFFFFF" transform="matrix(1.00, 0.00, -0.00, -1.00, 384.1, 102.0)">v</text><text xml:space="preserve" font-family="PalatinoLinotype-Roman" font-size="48.0" fill="#FFFFFF" transform="matrix(1.00, 0.00, -0.00, -1.00, 411.3, 102.0)">s</text><text xml:space="preserve" font-family="PalatinoLinotype-Roman" font-size="48.0" fill="#FFFFFF" transform="matrix(1.00, 0.00, -0.00, -1.00, 431.6, 102.0)"> </text><text xml:space="preserve" font-family="PalatinoLinotype-Roman" font-size="48.0" fill="#FFFFFF" transform="matrix(1.00, 0.00, -0.00, -1.00, 443.6, 102.0)">T</text><text xml:space="preserve" font-family="PalatinoLinotype-Roman" font-size="48.0" fill="#FFFFFF" transform="matrix(1.00, 0.00, -0.00, -1.00, 469.6, 102.0)">e</text><text xml:space="preserve" font-family="PalatinoLinotype-Roman" font-size="48.0" fill="#FFFFFF" transform="matrix(1.00, 0.00, -0.00, -1.00, 492.6, 102.0)">s</text><text xml:space="preserve" font-family="PalatinoLinotype-Roman" font-size="48.0" fill="#FFFFFF" transform="matrix(1.00, 0.00, -0.00, -1.00, 513.0, 102.0)">t</text><text xml:space="preserve" font-family="PalatinoLinotype-Roman" font-size="48.0" fill="#FFFFFF" transform="matrix(1.00, 0.00, -0.00, -1.00, 528.6, 102.0)">e</text><text xml:space="preserve" font-family="PalatinoLinotype-Roman" font-size="48.0" fill="#FFFFFF" transform="matrix(1.00, 0.00, -0.00, -1.00, 551.6, 102.0)">r</text><text xml:space="preserve" font-family="PalatinoLinotype-Roman" font-size="48.0" fill="#FFFFFF" transform="matrix(1.00, 0.00, -0.00, -1.00, 570.6, 102.0)"> </text><text xml:space="preserve" font-family="PalatinoLinotype-Roman" font-size="48.0" fill="#FFFFFF" transform="matrix(1.00, 0.00, -0.00, -1.00, 582.6, 102.0)">H</text><text xml:space="preserve" font-family="PalatinoLinotype-Roman" font-size="48.0" fill="#FFFFFF" transform="matrix(1.00, 0.00, -0.00, -1.00, 622.6, 102.0)">a</text><text xml:space="preserve" font-family="PalatinoLinotype-Roman" font-size="48.0" fill="#FFFFFF" transform="matrix(1.00, 0.00, -0.00, -1.00, 646.6, 102.0)">t</text></g></g><g><clipPath id="clip-122"><path d="M 39.0 474.0 L 386.0 474.0 L 386.0 240.0 L 39.0 240.0 Z M 38.5 473.7 "></path></clipPath><g clip-path="url(#clip-122)"><image xlink:href="../../3A222696-96E7-4E9E-8A71-3736AF854532/assets/40D1BE3BC44A9189C6E119D0EF5237F4.png" width="341.00" height="234.00" transform="matrix(1.00, 0.00, -0.00, -1.00, 39.0, 474.0)"></image></g></g><text xml:space="preserve" font-family="PalatinoLinotype-Roman" font-size="24.0" fill="#FEFFFF" transform="matrix(1.00, 0.00, -0.00, -1.00, 233.0, 59.0)">W</text><text xml:space="preserve" font-family="PalatinoLinotype-Roman" font-size="24.0" fill="#FEFFFF" transform="matrix(1.00, 0.00, -0.00, -1.00, 257.0, 59.0)">h</text><text xml:space="preserve" font-family="PalatinoLinotype-Roman" font-size="24.0" fill="#FEFFFF" transform="matrix(1.00, 0.00, -0.00, -1.00, 271.0, 59.0)">o</text><text xml:space="preserve" font-family="PalatinoLinotype-Roman" font-size="24.0" fill="#FEFFFF" transform="matrix(1.00, 0.00, -0.00, -1.00, 284.1, 59.0)"> </text><text xml:space="preserve" font-family="PalatinoLinotype-Roman" font-size="24.0" fill="#FEFFFF" transform="matrix(1.00, 0.00, -0.00, -1.00, 290.1, 59.0)">c</text><text xml:space="preserve" font-family="PalatinoLinotype-Roman" font-size="24.0" fill="#FEFFFF" transform="matrix(1.00, 0.00, -0.00, -1.00, 300.7, 59.0)">a</text><text xml:space="preserve" font-family="PalatinoLinotype-Roman" font-size="24.0" fill="#FEFFFF" transform="matrix(1.00, 0.00, -0.00, -1.00, 312.7, 59.0)">n</text><text xml:space="preserve" font-family="PalatinoLinotype-Roman" font-size="24.0" fill="#FEFFFF" transform="matrix(1.00, 0.00, -0.00, -1.00, 326.7, 59.0)"> </text><text xml:space="preserve" font-family="PalatinoLinotype-Roman" font-size="24.0" fill="#FEFFFF" transform="matrix(1.00, 0.00, -0.00, -1.00, 332.7, 59.0)">w</text><text xml:space="preserve" font-family="PalatinoLinotype-Roman" font-size="24.0" fill="#FEFFFF" transform="matrix(1.00, 0.00, -0.00, -1.00, 352.3, 59.0)">e</text><text xml:space="preserve" font-family="PalatinoLinotype-Roman" font-size="24.0" fill="#FEFFFF" transform="matrix(1.00, 0.00, -0.00, -1.00, 363.8, 59.0)">a</text><text xml:space="preserve" font-family="PalatinoLinotype-Roman" font-size="24.0" fill="#FEFFFF" transform="matrix(1.00, 0.00, -0.00, -1.00, 375.8, 59.0)">r</text><text xml:space="preserve" font-family="PalatinoLinotype-Roman" font-size="24.0" fill="#FEFFFF" transform="matrix(1.00, 0.00, -0.00, -1.00, 385.3, 59.0)"> </text><text xml:space="preserve" font-family="PalatinoLinotype-Roman" font-size="24.0" fill="#FEFFFF" transform="matrix(1.00, 0.00, -0.00, -1.00, 391.3, 59.0)">e</text><text xml:space="preserve" font-family="PalatinoLinotype-Roman" font-size="24.0" fill="#FEFFFF" transform="matrix(1.00, 0.00, -0.00, -1.00, 402.8, 59.0)">a</text><text xml:space="preserve" font-family="PalatinoLinotype-Roman" font-size="24.0" fill="#FEFFFF" transform="matrix(1.00, 0.00, -0.00, -1.00, 414.8, 59.0)">c</text><text xml:space="preserve" font-family="PalatinoLinotype-Roman" font-size="24.0" fill="#FEFFFF" transform="matrix(1.00, 0.00, -0.00, -1.00, 425.4, 59.0)">h</text><text xml:space="preserve" font-family="PalatinoLinotype-Roman" font-size="24.0" fill="#FEFFFF" transform="matrix(1.00, 0.00, -0.00, -1.00, 439.4, 59.0)"> </text><text xml:space="preserve" font-family="PalatinoLinotype-Roman" font-size="24.0" fill="#FEFFFF" transform="matrix(1.00, 0.00, -0.00, -1.00, 445.4, 59.0)">h</text><text xml:space="preserve" font-family="PalatinoLinotype-Roman" font-size="24.0" fill="#FEFFFF" transform="matrix(1.00, 0.00, -0.00, -1.00, 459.3, 59.0)">a</text><text xml:space="preserve" font-family="PalatinoLinotype-Roman" font-size="24.0" fill="#FEFFFF" transform="matrix(1.00, 0.00, -0.00, -1.00, 471.3, 59.0)">t</text><text xml:space="preserve" font-family="PalatinoLinotype-Roman" font-size="24.0" fill="#FEFFFF" transform="matrix(1.00, 0.00, -0.00, -1.00, 479.2, 59.0)">?</text><image xlink:href="../../3A222696-96E7-4E9E-8A71-3736AF854532/assets/DDEBBC958937146F7BE0BD1E8E90AB70.png" width="259.00" height="240.00" transform="matrix(1.00, 0.00, -0.00, -1.00, 414.0, 487.0)"></image></g></svg>