<?xml version="1.0" encoding="UTF-8" standalone="no"?><svg xmlns="http://www.w3.org/2000/svg" xmlns:xlink="http://www.w3.org/1999/xlink" clip-rule="evenodd" stroke-miterlimit="4.00" viewBox="0 0 231 57"><desc>SVG generated by Keynote</desc><defs></defs><g transform="matrix(1.00, 0.00, -0.00, -1.00, 0.0, 57.0)"><image xlink:href="../../83623756-16D3-478B-BC37-CBF3D74AE021/assets/B5370D5451350E0EED8CEADD03C91738.png" width="229.00" height="50.00" transform="matrix(1.00, 0.00, -0.00, -1.00, 1.0, 56.0)"></image><g><clipPath id="clip-340"><path d="M 0.0 6.6 L 231.0 6.6 L 231.0 57.0 L 0.0 57.0 Z M 0.0 6.6 "></path></clipPath><g clip-path="url(#clip-340)"><text xml:space="preserve" font-family="PalatinoLinotype-Roman" font-size="48.0" fill="#FFFFFF" transform="matrix(1.00, 0.00, -0.00, -1.00, 1.0, 21.0)">S</text><text xml:space="preserve" font-family="PalatinoLinotype-Roman" font-size="48.0" fill="#FFFFFF" transform="matrix(1.00, 0.00, -0.00, -1.00, 26.2, 21.0)">i</text><text xml:space="preserve" font-family="PalatinoLinotype-Roman" font-size="48.0" fill="#FFFFFF" transform="matrix(1.00, 0.00, -0.00, -1.00, 40.2, 21.0)">g</text><text xml:space="preserve" font-family="PalatinoLinotype-Roman" font-size="48.0" fill="#FFFFFF" transform="matrix(1.00, 0.00, -0.00, -1.00, 66.9, 21.0)">n</text><text xml:space="preserve" font-family="PalatinoLinotype-Roman" font-size="48.0" fill="#FFFFFF" transform="matrix(1.00, 0.00, -0.00, -1.00, 94.8, 21.0)">a</text><text xml:space="preserve" font-family="PalatinoLinotype-Roman" font-size="48.0" fill="#FFFFFF" transform="matrix(1.00, 0.00, -0.00, -1.00, 118.9, 21.0)">t</text><text xml:space="preserve" font-family="PalatinoLinotype-Roman" font-size="48.0" fill="#FFFFFF" transform="matrix(1.00, 0.00, -0.00, -1.00, 134.5, 21.0)">u</text><text xml:space="preserve" font-family="PalatinoLinotype-Roman" font-size="48.0" fill="#FFFFFF" transform="matrix(1.00, 0.00, -0.00, -1.00, 163.5, 21.0)">r</text><text xml:space="preserve" font-family="PalatinoLinotype-Roman" font-size="48.0" fill="#FFFFFF" transform="matrix(1.00, 0.00, -0.00, -1.00, 182.4, 21.0)">e</text><text xml:space="preserve" font-family="PalatinoLinotype-Roman" font-size="48.0" fill="#FFFFFF" transform="matrix(1.00, 0.00, -0.00, -1.00, 205.5, 21.0)">s</text></g></g></g></svg>